<svg width="388" height="460" xmlns="http://www.w3.org/2000/svg"><g fill="none" fill-rule="evenodd"><path d="M38 119.764c24.5-19 56.047-6 89-6 54.735 0 165.856-68.888 206-39.531 39.314 28.75 32.46 70.594 18.719 105.531-13.742 34.937 26.71 73.5-6.733 116-33.913 43.097-104.626-8.654-151.585 10.488-41.726 17.008-84.413 23.028-121.326 14.989C-6.379 304.154 13.5 138.764 38 119.764z" fill="#D2F0FF"/><path fill="#FFF" d="M164 59.764h87v389h-87z"/><path fill="#3E4952" d="M188 79h10v10h-10zM188 109h10v10h-10zM216 79h10v10h-10zM216 201h10v10h-10zM216 140h10v10h-10zM216 262h10v10h-10zM216 109h10v10h-10zM216 231h10v10h-10zM216 170h10v10h-10zM216 292h10v10h-10zM216 322h10v10h-10zM217 353h10v10h-10z"/><path fill="#FFF" d="M72 132.764h121v316H72z"/><path d="M76 134v313h114V134H76zm-4-4h122v321H72V130z" fill="#3E4952" fill-rule="nonzero"/><path fill="#FFF" d="M252 203.764h79v245h-79z"/><path fill="#3E4952" fill-rule="nonzero" d="M250 446.764v-387h-85v71.5h-4v-75.5h93v395h-93v-4z"/><path d="M187 37.764h-4l4-4v4zm0 0v22h-4v-26h50v26h-4v-22h-42zm42 0v-4l4 4h-4zm0 0v-4l4 4h-4zm-42 22h-4v-26h50v26h-46zm-4-22l4-4-4 4z" fill="#FFF" fill-rule="nonzero"/><path fill="#3E4952" d="M165 60h85v387h-89v4h93V56h-93v75.5h4z"/><path d="M329 206v-4l4 4h-4zm0 0h-76v-4h80v249h-93v-4h89V206zm4 241l-4 4v-4h4zm0 0l-4 4v-4h4zm-4-241h-76v-4h80v249h-93v-4h89V206zm0 0v-4l4 4h-4zM72 271v-4h95v4z" fill="#3E4952" fill-rule="nonzero"/><path fill="#3E4952" fill-rule="nonzero" d="M251 349v-4h52v4zM251 327v-4h31v4zM252 289v-4h31v4zM252 368v-4h31v4zM252 387v-4h31v4zM252 308v-4h52v4zM74 325v-4h52v4zM75 371v-4h52v4zM73 202v-4h63v4zM72 248v-4h63v4zM72 294v-4h95v4zM74 348v-4h95v4zM72 225v-4h95v4z"/><path d="M59.5 362.764c9.665 0 17.5 7.835 17.5 17.5 0 3.426-.984 6.621-2.685 9.32A19.423 19.423 0 0179 402.264c0 10.77-8.73 19.5-19.5 19.5s-19.5-8.73-19.5-19.5c0-4.842 1.765-9.272 4.686-12.681A17.409 17.409 0 0142 380.264c0-9.665 7.835-17.5 17.5-17.5z" fill="#43D777"/><path d="M46.377 388.517l.787 1.248-.96 1.12A17.42 17.42 0 0042 402.264c0 9.665 7.835 17.5 17.5 17.5s17.5-7.835 17.5-17.5a17.42 17.42 0 00-4.204-11.38l-.96-1.12.787-1.247A15.416 15.416 0 0075 380.264c0-8.56-6.94-15.5-15.5-15.5-8.56 0-15.5 6.94-15.5 15.5 0 2.965.832 5.802 2.377 8.253zM40 380.264c0-10.77 8.73-19.5 19.5-19.5s19.5 8.73 19.5 19.5c0 3.233-.79 6.353-2.27 9.138A21.413 21.413 0 0181 402.264c0 11.874-9.626 21.5-21.5 21.5s-21.5-9.626-21.5-21.5c0-4.708 1.52-9.186 4.27-12.862a19.424 19.424 0 01-2.27-9.138z" fill="#3E4952" fill-rule="nonzero"/><path d="M162.5 364.764c9.665 0 17.5 7.835 17.5 17.5 0 3.573-1.07 6.896-2.909 9.665a16.93 16.93 0 011.909 7.835c0 9.389-7.611 17-17 17s-17-7.611-17-17c0-3.172.869-6.14 2.38-8.682a17.42 17.42 0 01-2.38-8.818c0-9.665 7.835-17.5 17.5-17.5z" fill="#43D777"/><path d="M149.108 390.073l.595 1.018-.603 1.014a14.92 14.92 0 00-2.1 7.659c0 8.284 6.716 15 15 15 8.284 0 15-6.716 15-15 0-2.442-.583-4.796-1.683-6.912l-.545-1.046.653-.983a15.416 15.416 0 002.575-8.559c0-8.56-6.94-15.5-15.5-15.5-8.56 0-15.5 6.94-15.5 15.5 0 2.786.734 5.46 2.108 7.809zM143 382.264c0-10.77 8.73-19.5 19.5-19.5s19.5 8.73 19.5 19.5c0 3.489-.92 6.845-2.63 9.788a18.94 18.94 0 011.63 7.712c0 10.493-8.507 19-19 19s-19-8.507-19-19c0-3.066.729-6.029 2.1-8.69a19.426 19.426 0 01-2.1-8.81z" fill="#3E4952" fill-rule="nonzero"/><path d="M183.5 364.764c9.665 0 17.5 7.835 17.5 17.5 0 3.573-1.07 6.896-2.909 9.665a16.93 16.93 0 011.909 7.835c0 9.389-7.611 17-17 17s-17-7.611-17-17c0-3.172.869-6.14 2.38-8.682a17.42 17.42 0 01-2.38-8.818c0-9.665 7.835-17.5 17.5-17.5z" fill="#43D777"/><path d="M170.108 390.073l.595 1.018-.603 1.014a14.92 14.92 0 00-2.1 7.659c0 8.284 6.716 15 15 15 8.284 0 15-6.716 15-15 0-2.442-.583-4.796-1.683-6.912l-.545-1.046.653-.983a15.416 15.416 0 002.575-8.559c0-8.56-6.94-15.5-15.5-15.5-8.56 0-15.5 6.94-15.5 15.5 0 2.786.734 5.46 2.108 7.809zM164 382.264c0-10.77 8.73-19.5 19.5-19.5s19.5 8.73 19.5 19.5c0 3.489-.92 6.845-2.63 9.788a18.94 18.94 0 011.63 7.712c0 10.493-8.507 19-19 19s-19-8.507-19-19c0-3.066.729-6.029 2.1-8.69a19.426 19.426 0 01-2.1-8.81zM58 420h4v31h-4zM159 417h4v31h-4z" fill="#3E4952" fill-rule="nonzero"/><path fill="#3E4952" fill-rule="nonzero" d="M180 417h4v31h-4z"/><path fill="#FFF" d="M89 145.764h88v14H89z"/><path d="M93 150v6h80v-6H93zm-4-4h88v14H89v-14z" fill="#3E4952" fill-rule="nonzero"/><path fill="#FFF" d="M262 215.764h57v23h-57z"/><path d="M266 220v15h49v-15h-49zm-4-4h57v23h-57v-23zM187 37.764h-4l4-4v4zm0 0v22h-4v-26h50v26h-4v-22h-42zm42 0v-4l4 4h-4zm0 0v-4l4 4h-4zm0 0h-42v22h-4v-26h50v26h-4v-22zm-42 0h-4l4-4v4z" fill="#3E4952" fill-rule="nonzero"/><path fill="#3E4952" fill-rule="nonzero" d="M208 8.764h4v28h-4z"/></g></svg>