<?xml version="1.0" encoding="UTF-8"?>
<svg width="147px" height="207px" viewBox="0 0 147 207" version="1.1" xmlns="http://www.w3.org/2000/svg" xmlns:xlink="http://www.w3.org/1999/xlink">
    <title>OH CO image 01</title>
    <g id="OH-CO-image-01" stroke="none" stroke-width="1" fill="none" fill-rule="evenodd">
        <g id="Group-90-Copy" transform="translate(-2.000000, 1.000000)">
            <ellipse id="Oval-Copy-4" fill="#DADADA" cx="34" cy="202.597015" rx="29" ry="2.59701493"></ellipse>
            <g id="Group-93">
                <rect id="Rectangle-8" fill="#FFFFFF" x="105" y="117" width="36" height="15" rx="7.5"></rect>
                <rect id="Rectangle-8-Copy" fill="#FFFFFF" x="66.5" y="138" width="35" height="15" rx="7.5"></rect>
                <rect id="Rectangle" fill="#E9E9E9" opacity="0.353213356" x="27" y="0" width="121.5" height="183" rx="16.5"></rect>
                <g id="Group-2-Copy" transform="translate(0.000000, 140.000000)">
                    <path d="M17.5,8.5 L51,8.5 C56.2467051,8.5 60.5,12.7532949 60.5,18 L60.5,43.4194064 C60.5,48.6661116 56.2467051,52.9194064 51,52.9194064 L18.2427607,52.9194064 L18.2427607,52.9194064 L8,58.5 L8,44.1288167 L8,18 C8,12.7532949 12.2532949,8.5 17.5,8.5 Z" id="Rectangle-5-Copy-13" fill="#FFFFFF" fill-rule="nonzero"></path>
                    <path d="M17.5,9 L51,9 C56.2467051,9 60.5,13.2532949 60.5,18.5 L60.5,28 L60.5,28 L8,28 L8,18.5 C8,13.2532949 12.2532949,9 17.5,9 Z" id="Rectangle-4-Copy-7" fill="#C452B9"></path>
                    <path d="M51,9.5 C53.3472102,9.5 55.4722102,10.4513949 57.0104076,11.9895924 C58.5486051,13.5277898 59.5,15.6527898 59.5,18 L59.5,18 L59.5,43.4194064 C59.5,45.7666166 58.5486051,47.8916166 57.0104076,49.4298141 C55.4722102,50.9680115 53.3472102,51.9194064 51,51.9194064 L51,51.9194064 L17.9880218,51.9194064 L9,56.8163769 L9,18 C9,15.6527898 9.95139491,13.5277898 11.4895924,11.9895924 C13.0277898,10.4513949 15.1527898,9.5 17.5,9.5 L17.5,9.5 L51,9.5 Z" id="Rectangle-5-Copy-13" stroke="#3E4952" stroke-width="2" fill-rule="nonzero"></path>
                    <path d="M51,8.5 C56.2467051,8.5 60.5,12.7532949 60.5,18 L60.5,43.4194064 C60.5,48.6661116 56.2467051,52.9194064 51,52.9194064 L18.2427607,52.9194064 L8,58.5 L8,18 C8,12.7532949 12.2532949,8.5 17.5,8.5 L51,8.5 Z M51,10 L17.5,10 C13.1650857,10 9.63545713,13.4478378 9.50380682,17.7508207 L9.5,18 L9.5,55.974 L17.8606524,51.4194064 L51,51.4194064 C55.3349143,51.4194064 58.8645429,47.9715687 58.9961932,43.6685858 L59,43.4194064 L59,18 C59,13.6650857 55.5521622,10.1354571 51.2491793,10.0038068 L51,10 Z" id="Rectangle-5-Copy-14" fill="#3E4952" fill-rule="nonzero"></path>
                    <g id="Group-6-Copy" transform="translate(31.000000, 0.000000)" fill="#3E4952" fill-rule="nonzero">
                        <polygon id="Line-3-Copy-13" points="4.07198226 4.0625 4.07198226 9.54997244 2.07198226 9.54997244 2.07198226 4.0625"></polygon>
                        <path d="M3.11743681,5.68421053 C4.77429106,5.68421053 6.11743681,4.41175666 6.11743681,2.84210526 C6.11743681,1.27245387 4.77429106,-1.64313008e-14 3.11743681,-1.64313008e-14 C1.46058256,-1.64313008e-14 0.11743681,1.27245387 0.11743681,2.84210526 C0.11743681,4.41175666 1.46058256,5.68421053 3.11743681,5.68421053 Z" id="Oval-Copy-13"></path>
                    </g>
                    <rect id="Rectangle-8-Copy-10" fill="#FFFFFF" x="14.5" y="18.5" width="38.5" height="16" rx="8"></rect>
                    <path d="M45,18.5 C49.418278,18.5 53,22.081722 53,26.5 C53,30.918278 49.418278,34.5 45,34.5 L22.5,34.5 C18.081722,34.5 14.5,30.918278 14.5,26.5 C14.5,22.081722 18.081722,18.5 22.5,18.5 L45,18.5 Z M45,20.5 L22.5,20.5 C19.1862915,20.5 16.5,23.1862915 16.5,26.5 C16.5,29.7383969 19.0655749,32.3775718 22.2750617,32.4958615 L22.5,32.5 L45,32.5 C48.3137085,32.5 51,29.8137085 51,26.5 C51,23.2616031 48.4344251,20.6224282 45.2249383,20.5041385 L45,20.5 Z" id="Rectangle-8-Copy-10" fill="#3E4952" fill-rule="nonzero"></path>
                    <g id="Group-3-Copy-17" transform="translate(24.000000, 24.500000)" fill="#3E4952">
                        <ellipse id="Oval-18-Copy-6" transform="translate(16.396333, 2.500000) scale(-1, 1) translate(-16.396333, -2.500000) " cx="16.3963329" cy="2.5" rx="2.43589744" ry="2.5"></ellipse>
                        <ellipse id="Oval-18-Copy-7" transform="translate(2.435897, 2.500000) scale(-1, 1) translate(-2.435897, -2.500000) " cx="2.43589744" cy="2.5" rx="2.43589744" ry="2.5"></ellipse>
                    </g>
                    <polygon id="Line-21-Copy-92" fill="#3E4952" fill-rule="nonzero" transform="translate(27.498560, 56.976748) rotate(-85.000000) translate(-27.498560, -56.976748) " points="32.9292083 55.7074798 33.0679068 57.7026647 29.4243823 57.9491114 27.1734303 58.0850127 25.316146 58.1797183 24.0681806 58.2271709 23.6451156 58.2381417 23.0919246 58.2460156 21.9292129 58.2448504 21.9322153 56.2448526 23.0884868 56.246014 23.6236306 56.2382014 24.2581357 56.220199 25.2584209 56.1803449 26.7561779 56.1050531 29.3134911 55.9520928"></polygon>
                    <polygon id="Line-21-Copy-95" fill="#3E4952" fill-rule="nonzero" transform="translate(40.498560, 56.976748) scale(-1, 1) rotate(-85.000000) translate(-40.498560, -56.976748) " points="45.9292083 55.7074798 46.0679068 57.7026647 42.4243823 57.9491114 40.1734303 58.0850127 38.316146 58.1797183 37.0681806 58.2271709 36.6451156 58.2381417 36.0919246 58.2460156 34.9292129 58.2448504 34.9322153 56.2448526 36.0884868 56.246014 36.6236306 56.2382014 37.2581357 56.220199 38.2584209 56.1803449 39.7561779 56.1050531 42.3134911 55.9520928"></polygon>
                    <path d="M5.50465247,34.7386443 L7.12234864,33.562609 L7.95388706,34.7082988 L8.42222916,35.3675826 L8.86552004,36.0077757 L9.28361732,36.6290091 C9.35119283,36.7309753 9.41771267,36.8321569 9.48317387,36.9325568 L9.86321378,37.5255959 L10.2177041,38.1000025 C12.4954914,41.867562 13.0604818,44.4016747 11.7228255,45.8768344 C10.2465743,47.5048358 7.9482229,47.9567351 4.94136911,47.3323765 L4.61650027,47.2613671 L3.64180072,47.037848 L4.08883891,45.0884489 L5.06353846,45.311968 C7.59404716,45.8922669 9.27788072,45.5957542 10.2412479,44.5333584 C10.5458092,44.1974899 10.523981,43.4870176 10.1482079,42.427268 L10.017745,42.0810294 C9.92288331,41.8425029 9.81220571,41.5886141 9.68545514,41.3195993 L9.4832424,40.9047622 C9.44752044,40.8337418 9.41078589,40.7617834 9.37303472,40.6888907 L9.13429621,40.2403526 L8.87096613,39.7695686 C8.82501778,39.6892606 8.77803674,39.6080331 8.730019,39.5258898 L8.42944001,39.0220693 C8.3772594,38.9362774 8.32403405,38.8495771 8.26975995,38.761972 L7.93149817,38.2255139 L7.56787349,37.6675189 C7.50514508,37.5727349 7.44135186,37.4770608 7.37648979,37.3805005 L6.97445918,36.7905325 L6.54658358,36.1794707 L6.09267014,35.5474924 L5.50465247,34.7386443 Z" id="Line-21-Copy-93" fill="#3E4952" fill-rule="nonzero" transform="translate(8.039214, 40.582124) rotate(150.000000) translate(-8.039214, -40.582124) "></path>
                    <path d="M67.8706773,25.3143137 L69.3649187,26.6436905 L68.7002303,27.3908112 C66.8393755,29.4824428 65.1046204,30.9332313 63.4739743,31.7390761 C61.9137659,32.5101116 59.8819082,32.8971505 57.3744883,32.9208499 L56.8987731,32.9210406 L55.8988086,32.9126115 L55.915667,30.9126825 L56.9156314,30.9211117 C59.3553302,30.941677 61.2476489,30.6084049 62.5878943,29.9460724 C63.8747844,29.3101075 65.3205667,28.1268874 66.9069073,26.3929936 L67.2059889,26.0614344 L67.8706773,25.3143137 Z" id="Line-21-Copy-94" fill="#3E4952" fill-rule="nonzero" transform="translate(62.631864, 29.117677) scale(-1, -1) rotate(140.000000) translate(-62.631864, -29.117677) "></path>
                    <path d="M26,40 C28.5833333,43 31.1666667,44.5 33.75,44.5 C36.3333333,44.5 38.9166667,43 41.5,40" id="Line-10-Copy-11" stroke="#3E4952" stroke-width="2" stroke-linecap="square"></path>
                </g>
                <path d="M133.575,115.75 L112.425,115.75 C107.72104,115.75 103.891534,119.49398 103.753834,124.164586 L103.75,124.575 C103.75,129.36607 107.63393,133.25 112.425,133.25 L133.575,133.25 C138.36607,133.25 142.25,129.36607 142.25,124.575 L142.25,124.425 C142.25,119.63393 138.36607,115.75 133.575,115.75 Z M112.425,118.25 L133.575,118.25 C136.985358,118.25 139.75,121.014642 139.75,124.425 L139.75,124.575 C139.75,127.985358 136.985358,130.75 133.575,130.75 L112.425,130.75 C109.014642,130.75 106.25,127.985358 106.25,124.575 L106.25,124.425 C106.25,121.014642 109.014642,118.25 112.425,118.25 Z" id="Rectangle-8" fill="#C452B9" fill-rule="nonzero"></path>
                <path d="M113.716797,127.058594 C114.166016,127.058594 114.52832,126.95166 114.803711,126.737793 C115.079102,126.523926 115.216797,126.241211 115.216797,125.889648 C115.216797,125.666992 115.146973,125.462402 115.007324,125.275879 C114.867676,125.089355 114.637695,124.910156 114.317383,124.738281 C114.586914,124.603516 114.782227,124.450684 114.90332,124.279785 C115.024414,124.108887 115.084961,123.914062 115.084961,123.695312 C115.084961,123.378906 114.959473,123.127441 114.708496,122.940918 C114.45752,122.754395 114.126953,122.661133 113.716797,122.661133 C113.308594,122.661133 112.977539,122.755859 112.723633,122.945312 C112.469727,123.134766 112.342773,123.382812 112.342773,123.689453 C112.342773,123.898438 112.396484,124.09082 112.503906,124.266602 C112.611328,124.442383 112.787109,124.607422 113.03125,124.761719 C112.744141,124.90625 112.535645,125.073242 112.405762,125.262695 C112.275879,125.452148 112.210938,125.668945 112.210938,125.913086 C112.210938,126.27832 112.344727,126.560547 112.612305,126.759766 C112.879883,126.958984 113.248047,127.058594 113.716797,127.058594 Z M113.716797,124.360352 C113.519531,124.262695 113.383301,124.16748 113.308105,124.074707 C113.23291,123.981934 113.195312,123.876953 113.195312,123.759766 C113.195312,123.626953 113.242676,123.520996 113.337402,123.441895 C113.432129,123.362793 113.556641,123.323242 113.710938,123.323242 C113.863281,123.323242 113.988281,123.362305 114.085938,123.44043 C114.183594,123.518555 114.232422,123.625 114.232422,123.759766 C114.232422,123.882812 114.194336,123.991211 114.118164,124.084961 C114.041992,124.178711 113.908203,124.270508 113.716797,124.360352 Z M113.705078,126.393555 C113.501953,126.393555 113.341797,126.34668 113.224609,126.25293 C113.107422,126.15918 113.048828,126.02832 113.048828,125.860352 C113.048828,125.567383 113.256836,125.325195 113.672852,125.133789 C113.920898,125.262695 114.100098,125.384277 114.210449,125.498535 C114.320801,125.612793 114.375977,125.735352 114.375977,125.866211 C114.375977,126.024414 114.320312,126.151855 114.208984,126.248535 C114.097656,126.345215 113.929688,126.393555 113.705078,126.393555 Z M116.283203,124.65918 C116.441406,124.65918 116.565918,124.615723 116.656738,124.528809 C116.747559,124.441895 116.792969,124.319336 116.792969,124.161133 C116.792969,124.000977 116.748535,123.87793 116.659668,123.791992 C116.570801,123.706055 116.445312,123.663086 116.283203,123.663086 C116.115234,123.663086 115.987305,123.705078 115.899414,123.789062 C115.811523,123.873047 115.767578,123.99707 115.767578,124.161133 C115.767578,124.321289 115.8125,124.444336 115.902344,124.530273 C115.992188,124.616211 116.119141,124.65918 116.283203,124.65918 Z M116.283203,127.079102 C116.443359,127.079102 116.568359,127.034668 116.658203,126.945801 C116.748047,126.856934 116.792969,126.735352 116.792969,126.581055 C116.792969,126.420898 116.748535,126.297852 116.659668,126.211914 C116.570801,126.125977 116.445312,126.083008 116.283203,126.083008 C116.115234,126.083008 115.987305,126.125 115.899414,126.208984 C115.811523,126.292969 115.767578,126.416992 115.767578,126.581055 C115.767578,126.739258 115.8125,126.861816 115.902344,126.94873 C115.992188,127.035645 116.119141,127.079102 116.283203,127.079102 Z M118.84668,127.058594 C119.356445,127.058594 119.733887,126.878906 119.979004,126.519531 C120.224121,126.160156 120.34668,125.606445 120.34668,124.858398 C120.34668,124.135742 120.220215,123.586914 119.967285,123.211914 C119.714355,122.836914 119.34082,122.649414 118.84668,122.649414 C118.338867,122.649414 117.962891,122.828613 117.71875,123.187012 C117.474609,123.54541 117.352539,124.102539 117.352539,124.858398 C117.352539,125.583008 117.478027,126.130859 117.729004,126.501953 C117.97998,126.873047 118.352539,127.058594 118.84668,127.058594 Z M118.84668,126.329102 C118.631836,126.329102 118.479004,126.215332 118.388184,125.987793 C118.297363,125.760254 118.251953,125.383789 118.251953,124.858398 C118.251953,124.333008 118.297852,123.955566 118.389648,123.726074 C118.481445,123.496582 118.633789,123.381836 118.84668,123.381836 C119.055664,123.381836 119.20752,123.496582 119.302246,123.726074 C119.396973,123.955566 119.444336,124.333008 119.444336,124.858398 C119.444336,125.37793 119.397461,125.75293 119.303711,125.983398 C119.209961,126.213867 119.057617,126.329102 118.84668,126.329102 Z M122.271484,127.058594 C122.78125,127.058594 123.158691,126.878906 123.403809,126.519531 C123.648926,126.160156 123.771484,125.606445 123.771484,124.858398 C123.771484,124.135742 123.64502,123.586914 123.39209,123.211914 C123.13916,122.836914 122.765625,122.649414 122.271484,122.649414 C121.763672,122.649414 121.387695,122.828613 121.143555,123.187012 C120.899414,123.54541 120.777344,124.102539 120.777344,124.858398 C120.777344,125.583008 120.902832,126.130859 121.153809,126.501953 C121.404785,126.873047 121.777344,127.058594 122.271484,127.058594 Z M122.271484,126.329102 C122.056641,126.329102 121.903809,126.215332 121.812988,125.987793 C121.722168,125.760254 121.676758,125.383789 121.676758,124.858398 C121.676758,124.333008 121.722656,123.955566 121.814453,123.726074 C121.90625,123.496582 122.058594,123.381836 122.271484,123.381836 C122.480469,123.381836 122.632324,123.496582 122.727051,123.726074 C122.821777,123.955566 122.869141,124.333008 122.869141,124.858398 C122.869141,125.37793 122.822266,125.75293 122.728516,125.983398 C122.634766,126.213867 122.482422,126.329102 122.271484,126.329102 Z M126.522461,127 L126.833008,125.980469 L128.394531,125.980469 L128.705078,127 L129.683594,127 L128.166016,122.699219 L127.055664,122.699219 L125.543945,127 L126.522461,127 Z M128.177734,125.21875 L127.061523,125.21875 L127.061523,125.21875 L127.253271,124.594727 C127.445,123.966722 127.565655,123.556566 127.615234,123.364258 C127.630859,123.43457 127.656738,123.530273 127.692871,123.651367 C127.729004,123.772461 127.890625,124.294922 128.177734,125.21875 L128.177734,125.21875 Z M131.03418,127 L131.03418,125.007812 C131.03418,124.779297 131.015625,124.323242 130.978516,123.639648 L130.978516,123.639648 L131.004883,123.639648 L132.036133,127 L132.868164,127 L133.972656,123.645508 L133.999023,123.645508 C133.975586,124.18457 133.962402,124.516602 133.959473,124.641602 C133.956543,124.766602 133.955078,124.876953 133.955078,124.972656 L133.955078,127 L134.801758,127 L134.801758,122.716797 L133.56543,122.716797 L132.490234,125.992188 L132.472656,125.992188 L131.458984,122.716797 L130.222656,122.716797 L130.222656,127 L131.03418,127 Z" id="8:00AM" fill="#3E4952" fill-rule="nonzero"></path>
                <g id="Group-23" transform="translate(104.000000, 137.500000)">
                    <rect id="Rectangle-8" fill="#E9E9E9" x="0" y="0" width="37.5" height="16.5" rx="8.25"></rect>
                    <path d="M9.47851562,10 L9.47851562,5.71679688 L8.734375,5.71679688 L7.35449219,6.81542969 L7.79101562,7.36035156 L8.28320312,6.96484375 C8.34179688,6.91796875 8.44628906,6.81933594 8.59667969,6.66894531 L8.59667969,6.66894531 L8.58203125,7.11425781 L8.57324219,7.52148438 L8.57324219,10 L9.47851562,10 Z M11.2832031,7.65917969 C11.4414062,7.65917969 11.565918,7.61572266 11.6567383,7.52880859 C11.7475586,7.44189453 11.7929688,7.31933594 11.7929688,7.16113281 C11.7929688,7.00097656 11.7485352,6.87792969 11.659668,6.79199219 C11.5708008,6.70605469 11.4453125,6.66308594 11.2832031,6.66308594 C11.1152344,6.66308594 10.9873047,6.70507812 10.8994141,6.7890625 C10.8115234,6.87304688 10.7675781,6.99707031 10.7675781,7.16113281 C10.7675781,7.32128906 10.8125,7.44433594 10.9023438,7.53027344 C10.9921875,7.61621094 11.1191406,7.65917969 11.2832031,7.65917969 Z M11.2832031,10.0791016 C11.4433594,10.0791016 11.5683594,10.034668 11.6582031,9.94580078 C11.7480469,9.85693359 11.7929688,9.73535156 11.7929688,9.58105469 C11.7929688,9.42089844 11.7485352,9.29785156 11.659668,9.21191406 C11.5708008,9.12597656 11.4453125,9.08300781 11.2832031,9.08300781 C11.1152344,9.08300781 10.9873047,9.125 10.8994141,9.20898438 C10.8115234,9.29296875 10.7675781,9.41699219 10.7675781,9.58105469 C10.7675781,9.73925781 10.8125,9.86181641 10.9023438,9.94873047 C10.9921875,10.0356445 11.1191406,10.0791016 11.2832031,10.0791016 Z M13.8466797,10.0585938 C14.3564453,10.0585938 14.7338867,9.87890625 14.9790039,9.51953125 C15.2241211,9.16015625 15.3466797,8.60644531 15.3466797,7.85839844 C15.3466797,7.13574219 15.2202148,6.58691406 14.9672852,6.21191406 C14.7143555,5.83691406 14.3408203,5.64941406 13.8466797,5.64941406 C13.3388672,5.64941406 12.9628906,5.82861328 12.71875,6.18701172 C12.4746094,6.54541016 12.3525391,7.10253906 12.3525391,7.85839844 C12.3525391,8.58300781 12.4780273,9.13085938 12.7290039,9.50195312 C12.9799805,9.87304688 13.3525391,10.0585938 13.8466797,10.0585938 Z M13.8466797,9.32910156 C13.6318359,9.32910156 13.4790039,9.21533203 13.3881836,8.98779297 C13.2973633,8.76025391 13.2519531,8.38378906 13.2519531,7.85839844 C13.2519531,7.33300781 13.2978516,6.95556641 13.3896484,6.72607422 C13.4814453,6.49658203 13.6337891,6.38183594 13.8466797,6.38183594 C14.0556641,6.38183594 14.2075195,6.49658203 14.3022461,6.72607422 C14.3969727,6.95556641 14.4443359,7.33300781 14.4443359,7.85839844 C14.4443359,8.37792969 14.3974609,8.75292969 14.3037109,8.98339844 C14.2099609,9.21386719 14.0576172,9.32910156 13.8466797,9.32910156 Z M17.2714844,10.0585938 C17.78125,10.0585938 18.1586914,9.87890625 18.4038086,9.51953125 C18.6489258,9.16015625 18.7714844,8.60644531 18.7714844,7.85839844 C18.7714844,7.13574219 18.6450195,6.58691406 18.3920898,6.21191406 C18.1391602,5.83691406 17.765625,5.64941406 17.2714844,5.64941406 C16.7636719,5.64941406 16.3876953,5.82861328 16.1435547,6.18701172 C15.8994141,6.54541016 15.7773438,7.10253906 15.7773438,7.85839844 C15.7773438,8.58300781 15.902832,9.13085938 16.1538086,9.50195312 C16.4047852,9.87304688 16.7773438,10.0585938 17.2714844,10.0585938 Z M17.2714844,9.32910156 C17.0566406,9.32910156 16.9038086,9.21533203 16.8129883,8.98779297 C16.722168,8.76025391 16.6767578,8.38378906 16.6767578,7.85839844 C16.6767578,7.33300781 16.7226562,6.95556641 16.8144531,6.72607422 C16.90625,6.49658203 17.0585938,6.38183594 17.2714844,6.38183594 C17.4804688,6.38183594 17.6323242,6.49658203 17.7270508,6.72607422 C17.8217773,6.95556641 17.8691406,7.33300781 17.8691406,7.85839844 C17.8691406,8.37792969 17.8222656,8.75292969 17.7285156,8.98339844 C17.6347656,9.21386719 17.4824219,9.32910156 17.2714844,9.32910156 Z M21.9912109,10 L21.9912109,8.4765625 L22.3808594,8.4765625 C22.9121094,8.4765625 23.3217773,8.35449219 23.6098633,8.11035156 C23.8979492,7.86621094 24.0419922,7.51367188 24.0419922,7.05273438 C24.0419922,6.609375 23.9067383,6.27587891 23.6362305,6.05224609 C23.3657227,5.82861328 22.9707031,5.71679688 22.4511719,5.71679688 L22.4511719,5.71679688 L21.0830078,5.71679688 L21.0830078,10 L21.9912109,10 Z M22.2900391,7.73242188 L21.9912109,7.73242188 L21.9912109,6.4609375 L22.4042969,6.4609375 C22.6523438,6.4609375 22.8344727,6.51171875 22.9506836,6.61328125 C23.0668945,6.71484375 23.125,6.87207031 23.125,7.08496094 C23.125,7.29589844 23.0556641,7.45654297 22.9169922,7.56689453 C22.7783203,7.67724609 22.5693359,7.73242188 22.2900391,7.73242188 L22.2900391,7.73242188 Z M25.6621094,10 L25.6621094,8.0078125 C25.6621094,7.77929688 25.6435547,7.32324219 25.6064453,6.63964844 L25.6064453,6.63964844 L25.6328125,6.63964844 L26.6640625,10 L27.4960938,10 L28.6005859,6.64550781 L28.6269531,6.64550781 C28.6035156,7.18457031 28.590332,7.51660156 28.5874023,7.64160156 C28.5844727,7.76660156 28.5830078,7.87695312 28.5830078,7.97265625 L28.5830078,10 L29.4296875,10 L29.4296875,5.71679688 L28.1933594,5.71679688 L27.1181641,8.9921875 L27.1005859,8.9921875 L26.0869141,5.71679688 L24.8505859,5.71679688 L24.8505859,10 L25.6621094,10 Z" id="1:00PM" fill="#ADADAD" fill-rule="nonzero"></path>
                </g>
                <path d="M94.075,136.75 L73.925,136.75 C69.2210402,136.75 65.3915337,140.49398 65.2538339,145.164586 L65.25,145.575 C65.25,150.36607 69.1339298,154.25 73.925,154.25 L94.075,154.25 C98.8660702,154.25 102.75,150.36607 102.75,145.575 L102.75,145.425 C102.75,140.63393 98.8660702,136.75 94.075,136.75 Z M73.925,139.25 L94.075,139.25 C97.4853583,139.25 100.25,142.014642 100.25,145.425 L100.25,145.575 C100.25,148.985358 97.4853583,151.75 94.075,151.75 L73.925,151.75 C70.5146417,151.75 67.75,148.985358 67.75,145.575 L67.75,145.425 C67.75,142.014642 70.5146417,139.25 73.925,139.25 Z" id="Rectangle-8-Copy" fill="#C452B9" fill-rule="nonzero"></path>
                <path d="M74.8505859,147.5 L74.8505859,145.484375 C74.8505859,145.240234 74.8320312,144.832031 74.7949219,144.259766 L74.7949219,144.259766 L74.8212891,144.259766 L76.6845703,147.5 L77.8388672,147.5 L77.8388672,143.216797 L77.0214844,143.216797 L77.0214844,145.244141 C77.0214844,145.474609 77.0361328,145.868164 77.0654297,146.424805 L77.0654297,146.424805 L77.0449219,146.424805 L75.1845703,143.216797 L74.0390625,143.216797 L74.0390625,147.5 L74.8505859,147.5 Z M80.2265625,147.558594 C80.7285156,147.558594 81.1201172,147.408203 81.4013672,147.107422 C81.6826172,146.806641 81.8232422,146.389648 81.8232422,145.856445 C81.8232422,145.512695 81.7587891,145.212891 81.6298828,144.957031 C81.5009766,144.701172 81.3164062,144.504883 81.0761719,144.368164 C80.8359375,144.231445 80.5585938,144.163086 80.2441406,144.163086 C79.7382812,144.163086 79.3457031,144.311523 79.0664062,144.608398 C78.7871094,144.905273 78.6474609,145.321289 78.6474609,145.856445 C78.6474609,146.200195 78.7119141,146.500977 78.8408203,146.758789 C78.9697266,147.016602 79.1542969,147.214355 79.3945312,147.352051 C79.6347656,147.489746 79.9121094,147.558594 80.2265625,147.558594 Z M80.2382812,146.84082 C79.9980469,146.84082 79.824707,146.757812 79.7182617,146.591797 C79.6118164,146.425781 79.5585938,146.180664 79.5585938,145.856445 C79.5585938,145.530273 79.6113281,145.286621 79.7167969,145.125488 C79.8222656,144.964355 79.9941406,144.883789 80.2324219,144.883789 C80.4726562,144.883789 80.6455078,144.964844 80.7509766,145.126953 C80.8564453,145.289062 80.9091797,145.532227 80.9091797,145.856445 C80.9091797,146.182617 80.8569336,146.428223 80.7524414,146.593262 C80.6479492,146.758301 80.4765625,146.84082 80.2382812,146.84082 Z M84.2578125,147.5 L85.5058594,144.224609 L84.5712891,144.224609 L83.9414062,146.09082 C83.8632812,146.350586 83.8193359,146.574219 83.8095703,146.761719 L83.8095703,146.761719 L83.7919922,146.761719 C83.7744141,146.550781 83.7304688,146.327148 83.6601562,146.09082 L83.6601562,146.09082 L83.0273438,144.224609 L82.0927734,144.224609 L83.3408203,147.5 L84.2578125,147.5 Z M90.2988281,147.5 L90.2988281,146.738281 L88.4326172,146.738281 L88.4326172,146.697266 L88.9833984,146.178711 C89.3505859,145.842773 89.6069336,145.583984 89.7524414,145.402344 C89.8979492,145.220703 90.0053711,145.043457 90.074707,144.870605 C90.144043,144.697754 90.1787109,144.512695 90.1787109,144.31543 C90.1787109,144.088867 90.1220703,143.887695 90.0087891,143.711914 C89.8955078,143.536133 89.7363281,143.399414 89.53125,143.301758 C89.3261719,143.204102 89.0898438,143.155273 88.8222656,143.155273 C88.6191406,143.155273 88.4355469,143.175293 88.2714844,143.215332 C88.1074219,143.255371 87.9560547,143.3125 87.8173828,143.386719 C87.6787109,143.460938 87.5039062,143.587891 87.2929688,143.767578 L87.2929688,143.767578 L87.7851562,144.350586 C87.9550781,144.209961 88.1181641,144.101562 88.2744141,144.025391 C88.4306641,143.949219 88.5917969,143.911133 88.7578125,143.911133 C88.9160156,143.911133 89.0424805,143.953125 89.137207,144.037109 C89.2319336,144.121094 89.2792969,144.249023 89.2792969,144.420898 C89.2792969,144.536133 89.2578125,144.647461 89.2148438,144.754883 C89.171875,144.862305 89.1015625,144.979004 89.0039062,145.10498 C88.90625,145.230957 88.6982422,145.457031 88.3798828,145.783203 L88.3798828,145.783203 L87.3046875,146.870117 L87.3046875,147.5 L90.2988281,147.5 Z M93.7236328,147.5 L93.7236328,146.738281 L91.8574219,146.738281 L91.8574219,146.697266 L92.4082031,146.178711 C92.7753906,145.842773 93.0317383,145.583984 93.1772461,145.402344 C93.3227539,145.220703 93.4301758,145.043457 93.4995117,144.870605 C93.5688477,144.697754 93.6035156,144.512695 93.6035156,144.31543 C93.6035156,144.088867 93.546875,143.887695 93.4335938,143.711914 C93.3203125,143.536133 93.1611328,143.399414 92.9560547,143.301758 C92.7509766,143.204102 92.5146484,143.155273 92.2470703,143.155273 C92.0439453,143.155273 91.8603516,143.175293 91.6962891,143.215332 C91.5322266,143.255371 91.3808594,143.3125 91.2421875,143.386719 C91.1035156,143.460938 90.9287109,143.587891 90.7177734,143.767578 L90.7177734,143.767578 L91.2099609,144.350586 C91.3798828,144.209961 91.5429688,144.101562 91.6992188,144.025391 C91.8554688,143.949219 92.0166016,143.911133 92.1826172,143.911133 C92.3408203,143.911133 92.4672852,143.953125 92.5620117,144.037109 C92.6567383,144.121094 92.7041016,144.249023 92.7041016,144.420898 C92.7041016,144.536133 92.6826172,144.647461 92.6396484,144.754883 C92.5966797,144.862305 92.5263672,144.979004 92.4287109,145.10498 C92.3310547,145.230957 92.1230469,145.457031 91.8046875,145.783203 L91.8046875,145.783203 L90.7294922,146.870117 L90.7294922,147.5 L93.7236328,147.5 Z" id="Nov22" fill="#3E4952" fill-rule="nonzero"></path>
                <g id="Group-22" transform="translate(67.000000, 116.000000)">
                    <rect id="Rectangle-8" fill="#E9E9E9" x="0" y="0" width="36" height="16.5" rx="8.25"></rect>
                    <path d="M10.3876953,11.0585938 C11.0439453,11.0585938 11.5478516,10.8681641 11.8994141,10.4873047 C12.2509766,10.1064453 12.4267578,9.56152344 12.4267578,8.85253906 C12.4267578,8.14160156 12.2524414,7.59667969 11.9038086,7.21777344 C11.5551758,6.83886719 11.0517578,6.64941406 10.3935547,6.64941406 C9.73535156,6.64941406 9.22998047,6.83740234 8.87744141,7.21337891 C8.52490234,7.58935547 8.34863281,8.13378906 8.34863281,8.84667969 C8.34863281,9.55957031 8.52441406,10.1064453 8.87597656,10.4873047 C9.22753906,10.8681641 9.73144531,11.0585938 10.3876953,11.0585938 Z M10.3876953,10.296875 C10.0263672,10.296875 9.75488281,10.1757812 9.57324219,9.93359375 C9.39160156,9.69140625 9.30078125,9.33105469 9.30078125,8.85253906 C9.30078125,8.37402344 9.39257812,8.01318359 9.57617188,7.77001953 C9.75976562,7.52685547 10.0322266,7.40527344 10.3935547,7.40527344 C11.1142578,7.40527344 11.4746094,7.88769531 11.4746094,8.85253906 C11.4746094,9.81542969 11.1123047,10.296875 10.3876953,10.296875 Z M14.5742188,11.0585938 C14.7988281,11.0585938 14.9848633,11.0410156 15.1323242,11.0058594 C15.2797852,10.9707031 15.4257812,10.9072266 15.5703125,10.8154297 L15.5703125,10.8154297 L15.5703125,10.0507812 C15.4238281,10.1484375 15.2773438,10.2202148 15.1308594,10.2661133 C14.984375,10.3120117 14.8251953,10.3349609 14.6533203,10.3349609 C14.1884766,10.3349609 13.9560547,10.0146484 13.9560547,9.37402344 C13.9560547,8.71386719 14.1884766,8.38378906 14.6533203,8.38378906 C14.7744141,8.38378906 14.8955078,8.40185547 15.0166016,8.43798828 C15.1376953,8.47412109 15.2685547,8.52050781 15.4091797,8.57714844 L15.4091797,8.57714844 L15.6728516,7.88574219 C15.3720703,7.73730469 15.0322266,7.66308594 14.6533203,7.66308594 C14.1357422,7.66308594 13.7382812,7.81005859 13.4609375,8.10400391 C13.1835938,8.39794922 13.0449219,8.82324219 13.0449219,9.37988281 C13.0449219,10.4990234 13.5546875,11.0585938 14.5742188,11.0585938 Z M17.4511719,11.0585938 C17.7753906,11.0585938 18.0488281,11.0087891 18.2714844,10.9091797 L18.2714844,10.9091797 L18.2714844,10.2441406 C18.0527344,10.3125 17.8652344,10.3466797 17.7089844,10.3466797 C17.5917969,10.3466797 17.4975586,10.3164062 17.4262695,10.2558594 C17.3549805,10.1953125 17.3193359,10.1015625 17.3193359,9.97460938 L17.3193359,9.97460938 L17.3193359,8.39550781 L18.2363281,8.39550781 L18.2363281,7.72460938 L17.3193359,7.72460938 L17.3193359,7.02734375 L16.7480469,7.02734375 L16.4902344,7.71875 L15.9980469,8.01757812 L15.9980469,8.39550781 L16.4257812,8.39550781 L16.4257812,9.97460938 C16.4257812,10.3359375 16.5073242,10.6069336 16.6704102,10.7875977 C16.8334961,10.9682617 17.09375,11.0585938 17.4511719,11.0585938 Z M22.5019531,11 L22.5019531,6.71679688 L21.7578125,6.71679688 L20.3779297,7.81542969 L20.8144531,8.36035156 L21.3066406,7.96484375 C21.3652344,7.91796875 21.4697266,7.81933594 21.6201172,7.66894531 L21.6201172,7.66894531 L21.6054688,8.11425781 L21.5966797,8.52148438 L21.5966797,11 L22.5019531,11 Z M24.9130859,11.0585938 C25.4677734,11.0585938 25.8945312,10.9438477 26.1933594,10.7143555 C26.4921875,10.4848633 26.6416016,10.1640625 26.6416016,9.75195312 C26.6416016,9.46875 26.5527344,9.24365234 26.375,9.07666016 C26.1972656,8.90966797 25.9355469,8.8046875 25.5898438,8.76171875 L25.5898438,8.76171875 L25.5898438,8.74414062 C25.8828125,8.67382812 26.1103516,8.54492188 26.2724609,8.35742188 C26.4345703,8.16992188 26.515625,7.94238281 26.515625,7.67480469 C26.515625,7.35449219 26.387207,7.10449219 26.1303711,6.92480469 C25.8735352,6.74511719 25.5234375,6.65527344 25.0800781,6.65527344 C24.5390625,6.65527344 24.0732422,6.79589844 23.6826172,7.07714844 L23.6826172,7.07714844 L24.1015625,7.70117188 C24.2792969,7.5859375 24.440918,7.50488281 24.5864258,7.45800781 C24.7319336,7.41113281 24.875,7.38769531 25.015625,7.38769531 C25.421875,7.38769531 25.625,7.54980469 25.625,7.87402344 C25.625,8.08496094 25.5483398,8.23388672 25.3950195,8.32080078 C25.2416992,8.40771484 24.9990234,8.45117188 24.6669922,8.45117188 L24.6669922,8.45117188 L24.3359375,8.45117188 L24.3359375,9.14550781 L24.6611328,9.14550781 C25.0205078,9.14550781 25.2822266,9.1875 25.4462891,9.27148438 C25.6103516,9.35546875 25.6923828,9.49804688 25.6923828,9.69921875 C25.6923828,9.92382812 25.6210938,10.0869141 25.4785156,10.1884766 C25.3359375,10.2900391 25.1152344,10.3408203 24.8164062,10.3408203 C24.6210938,10.3408203 24.4238281,10.3144531 24.2246094,10.2617188 C24.0253906,10.2089844 23.8427734,10.140625 23.6767578,10.0566406 L23.6767578,10.0566406 L23.6767578,10.8271484 C24.0361328,10.9814453 24.4482422,11.0585938 24.9130859,11.0585938 Z" id="Oct13" fill="#ADADAD" fill-rule="nonzero"></path>
                </g>
                <path d="M110.284033,86.0438445 L111.897492,87.225686 L111.306572,88.0324156 C106.963077,93.9621895 100.09768,98.0540497 89.539478,101.592229 L88.3047691,101.998096 L87.7739145,102.164736 L87.2259299,102.327643 L86.6576729,102.487672 L86.0660016,102.645676 L85.4477737,102.802508 L84.7998473,102.959023 L84.1190801,103.116074 L83.0294795,103.354524 L82.2528637,103.51665 L81.4324097,103.682301 L80.1126587,103.939251 L77.0961351,104.497324 L72.0689447,105.410822 L70.0238979,105.799754 L68.5894863,106.085573 L67.5671617,106.298314 C67.3988171,106.334017 67.2314931,106.369846 67.0651884,106.405805 L66.0795829,106.623144 L65.1183836,106.843779 L64.1815318,107.067893 L63.2689691,107.295672 C63.1188961,107.333951 62.9698328,107.37239 62.8217778,107.410993 L61.9455387,107.644613 C61.8015124,107.683888 61.658492,107.723335 61.5164763,107.762958 L60.6764291,108.002833 L59.8604366,108.24711 C59.5924417,108.329289 59.3284462,108.412232 59.0684402,108.495971 L58.3003813,108.7496 C58.0483448,108.834959 57.8002881,108.921143 57.5562014,109.008183 L56.8358419,109.271903 C56.127373,109.538254 55.4545469,109.812586 54.8170998,110.095728 L54.191436,110.381839 C48.6664233,112.983817 46,116.321837 46,121 C46,127.335585 49.7924649,131.0704 56.4829122,133.425905 L56.8507143,133.553027 L57.7976877,133.874339 L57.1550637,135.768285 L56.2080903,135.446973 C48.5687923,132.854928 44,128.491881 44,121 C44,115.894173 46.8647858,112.050586 52.1643556,109.196686 C55.4251203,107.440715 59.4114645,106.105809 64.6922016,104.882829 L65.9340695,104.60245 C66.1449634,104.556004 66.3578367,104.509688 66.572722,104.463486 L67.8864347,104.187484 L69.6408555,103.836777 L71.7009238,103.444972 L78.3072455,102.243323 L80.1616398,101.893217 L81.8165891,101.564355 L82.9413428,101.327779 L83.6413434,101.173349 L84.6240864,100.944624 L85.2387816,100.792914 L85.8246011,100.640884 L86.3845427,100.48773 L86.9216044,100.332648 C87.0093746,100.306596 87.0963163,100.280429 87.1824921,100.254132 L87.690855,100.094649 C88.1022105,99.9619756 88.5078641,99.8286351 88.9078865,99.6945579 L90.0911312,99.2900462 C99.4230732,96.0351553 105.55223,92.3157416 109.456481,87.168034 L109.693112,86.8505742 L110.284033,86.0438445 Z M105.132038,52.6409809 C111.888942,56.002056 116.132215,61.4545214 116.469183,68.5192049 L116.483876,68.9133429 L116.51079,69.9129807 L114.511515,69.9668092 L114.484601,68.9671714 C114.311118,62.5237419 110.509662,57.5497358 104.241297,54.4316735 C99.1124899,51.8804598 92.7707833,50.9256884 88.5915952,51.8256377 L88.2387537,51.9073244 L87.2682141,52.1482661 L86.7863308,50.2071869 L87.7568704,49.9662452 C92.4106068,48.8109303 99.4501456,49.8146469 105.132038,52.6409809 Z" id="Shape" fill="#C5C5C5" fill-rule="nonzero"></path>
                <path d="M64,24 L136.5,24 C139.813708,24 142.5,26.6862915 142.5,30 L142.5,36 C142.5,39.3137085 139.813708,42 136.5,42 L58,42 L58,42 L58,30 C58,26.6862915 60.6862915,24 64,24 Z" id="Rectangle-6-Copy" fill="#FFFFFF" fill-rule="nonzero"></path>
                <path d="M136.5,24 C139.813708,24 142.5,26.6862915 142.5,30 L142.5,36 C142.5,39.3137085 139.813708,42 136.5,42 L58,42 L58,30 C58,26.6862915 60.6862915,24 64,24 L136.5,24 Z M136.5,26.5 L64,26.5 C62.1314366,26.5 60.6048736,27.9642776 60.5051789,29.8079648 L60.5,30 L60.5,39.5 L136.5,39.5 C138.368563,39.5 139.895126,38.0357224 139.994821,36.1920352 L140,36 L140,30 C140,28.1314366 138.535722,26.6048736 136.692035,26.5051789 L136.5,26.5 Z" id="Rectangle-6-Copy" fill="#BF23AF" fill-rule="nonzero"></path>
                <path d="M52,70 L125,70 C128.313708,70 131,72.6862915 131,76 L131,82.5 C131,85.8137085 128.313708,88.5 125,88.5 L46,88.5 L46,88.5 L46,76 C46,72.6862915 48.6862915,70 52,70 Z" id="Rectangle-6-Copy-2" fill="#FFFFFF" fill-rule="nonzero" transform="translate(88.500000, 79.250000) scale(-1, 1) translate(-88.500000, -79.250000) "></path>
                <polygon id="Line-4-Copy-4" fill="#3E4952" fill-rule="nonzero" points="126.490991 32.0901228 126.490991 34.5901228 66.9835327 34.5901228 66.9835327 32.0901228"></polygon>
                <polygon id="Line-4-Copy-6" fill="#3E4952" fill-rule="nonzero" points="113.490991 78.0901228 113.490991 80.5901228 53.9835327 80.5901228 53.9835327 78.0901228"></polygon>
                <ellipse id="Oval" fill="#FFFFFF" cx="59" cy="134.75" rx="2.5" ry="2.75"></ellipse>
                <circle id="Oval-Copy-3" fill="#FFFFFF" cx="86.5" cy="51" r="2.5"></circle>
                <path d="M59,131.25 C57.1882819,131.25 55.75,132.83211 55.75,134.75 C55.75,136.66789 57.1882819,138.25 59,138.25 C60.8117181,138.25 62.25,136.66789 62.25,134.75 C62.25,132.83211 60.8117181,131.25 59,131.25 Z M59,132.75 C59.9497056,132.75 60.75,133.630324 60.75,134.75 C60.75,135.869676 59.9497056,136.75 59,136.75 C58.0502944,136.75 57.25,135.869676 57.25,134.75 C57.25,133.630324 58.0502944,132.75 59,132.75 Z" id="Oval" fill="#979797" fill-rule="nonzero"></path>
                <path d="M86.5,47.75 C84.7050746,47.75 83.25,49.2050746 83.25,51 C83.25,52.7949254 84.7050746,54.25 86.5,54.25 C88.2949254,54.25 89.75,52.7949254 89.75,51 C89.75,49.2050746 88.2949254,47.75 86.5,47.75 Z M86.5,49.25 C87.4664983,49.25 88.25,50.0335017 88.25,51 C88.25,51.9664983 87.4664983,52.75 86.5,52.75 C85.5335017,52.75 84.75,51.9664983 84.75,51 C84.75,50.0335017 85.5335017,49.25 86.5,49.25 Z" id="Oval-Copy-3" fill="#979797" fill-rule="nonzero"></path>
                <path d="M125,70 C128.313708,70 131,72.6862915 131,76 L131,82.5 C131,85.8137085 128.313708,88.5 125,88.5 L46,88.5 L46,76 C46,72.6862915 48.6862915,70 52,70 L125,70 Z M125,72.5 L52,72.5 C50.1314366,72.5 48.6048736,73.9642776 48.5051789,75.8079648 L48.5,76 L48.5,86 L125,86 C126.868563,86 128.395126,84.5357224 128.494821,82.6920352 L128.5,82.5 L128.5,76 C128.5,74.1314366 127.035722,72.6048736 125.192035,72.5051789 L125,72.5 Z" id="Rectangle-6-Copy-2" fill="#3E4952" fill-rule="nonzero" transform="translate(88.500000, 79.250000) scale(-1, 1) translate(-88.500000, -79.250000) "></path>
                <g id="icon-/-bot-/-Favicon-Copy" transform="translate(32.000000, 21.000000)" fill="#4A4A4A">
                    <g id="Group-7-Copy-24" transform="translate(3.250000, 3.437500)">
                        <path d="M0.906249997,16.4990495 L2.83618275,15.40625 L3.07494886,15.40625 L13.590125,15.40625 C14.5911411,15.40625 15.402625,14.5947661 15.402625,13.59375 L15.402625,5.43749998 C15.402625,4.43648388 14.5911411,3.62499998 13.590125,3.62499998 L2.71875,3.62499998 C1.71773389,3.62499998 0.906249997,4.43648388 0.906249997,5.43749998 L0.906249997,13.8636308 L0.906249997,16.4990495 Z M13.590125,2.71874998 C15.0916492,2.71874998 16.308875,3.93597582 16.308875,5.43749998 L16.308875,13.59375 C16.308875,15.0952742 15.0916492,16.3125 13.590125,16.3125 L3.07494886,16.3125 L-3.26939836e-09,18.0536501 L-3.26939836e-09,13.8636308 L-3.26939836e-09,5.43749998 C-3.26939836e-09,3.93597582 1.21722583,2.71874998 2.71875,2.71874998 L13.590125,2.71874998 Z" id="Rectangle-5-Copy-15" fill-rule="nonzero"></path>
                        <g id="Group-6-Copy-3" transform="translate(7.721761, 0.000000)" fill-rule="nonzero">
                            <polygon id="Line-3-Copy-13" points="1.35408884 3.171875 0.434488837 3.171875 0.434488837 1.26355063 1.35408884 1.26355063"></polygon>
                            <path d="M0.90625,1.8125 C1.40675805,1.8125 1.8125,1.40675805 1.8125,0.90625 C1.8125,0.405741945 1.40675805,0 0.90625,0 C0.405741945,0 0,0.405741945 0,0.90625 C0,1.40675805 0.405741945,1.8125 0.90625,1.8125 Z" id="Oval-Copy-13"></path>
                        </g>
                        <path d="M4.53125,6.34375 C3.53023389,6.34375 2.71875,7.15523389 2.71875,8.15625 C2.71875,9.15726611 3.53023389,9.96875 4.53125,9.96875 L11.78125,9.96875 C12.7822661,9.96875 13.59375,9.15726611 13.59375,8.15625 C13.59375,7.15523389 12.7822661,6.34375 11.78125,6.34375 L4.53125,6.34375 Z M4.53125,5.4375 L11.78125,5.4375 C13.2827742,5.4375 14.5,6.65472584 14.5,8.15625 C14.5,9.65777416 13.2827742,10.875 11.78125,10.875 L4.53125,10.875 C3.02972584,10.875 1.8125,9.65777416 1.8125,8.15625 C1.8125,6.65472584 3.02972584,5.4375 4.53125,5.4375 Z" id="Rectangle-8-Copy-12" fill-rule="nonzero"></path>
                        <g id="Group-3-Copy-20" transform="translate(4.685664, 7.241481)">
                            <circle id="Oval-18-Copy-6" transform="translate(5.736211, 0.914769) scale(-1, 1) translate(-5.736211, -0.914769) " cx="5.73621108" cy="0.914769389" r="1"></circle>
                            <circle id="Oval-18-Copy-7" transform="translate(1.204961, 0.914769) scale(-1, 1) translate(-1.204961, -0.914769) " cx="1.20496108" cy="0.914769389" r="1"></circle>
                        </g>
                        <path d="M4.75956204,13.5340477 L4.36613937,13.3092347 L4.81576528,12.5223894 L5.20918796,12.7472023 C6.20036038,13.3135866 7.18093239,13.59375 8.15625,13.59375 C9.13156761,13.59375 10.1121396,13.3135866 11.103312,12.7472023 L11.4967347,12.5223894 L11.9463606,13.3092347 L11.552938,13.5340477 C10.429527,14.1759968 9.29551573,14.5 8.15625,14.5 C7.01698427,14.5 5.88297296,14.1759968 4.75956204,13.5340477 Z" id="Line-10-Copy-14" fill-rule="nonzero"></path>
                    </g>
                </g>
            </g>
        </g>
    </g>
</svg>