<?xml version="1.0" encoding="UTF-8"?>
<svg width="70px" height="70px" viewBox="0 0 70 70" version="1.1" xmlns="http://www.w3.org/2000/svg" xmlns:xlink="http://www.w3.org/1999/xlink">
    <title>exchange</title>
    <g id="exchange" stroke="none" stroke-width="1" fill="none" fill-rule="evenodd">
        <g id="Group-26" transform="translate(10.000000, 10.000000)" fill-rule="nonzero">
            <g id="Group" transform="translate(0.200001, 0.336001)">
                <g id="microsoft-exchange-logo" transform="translate(0.856552, 4.282759)">
                    <path d="M45.503425,-1.91215168e-08 L34.7198337,-1.91215168e-08 C33.9021041,-1.91215168e-08 33.1178676,0.324838109 32.5398203,0.903235094 L7.08699354,26.3560619 C6.50860521,26.9341005 6.18375843,27.7183225 6.18375843,28.5360399 L6.18375843,39.3196312 C6.18375843,40.1373779 6.50853362,40.9216464 7.08676453,41.499884 C7.66499543,42.0781215 8.44926024,42.4029151 9.2670069,42.4029151 L20.0505982,42.4029151 C20.8683279,42.4029151 21.6525643,42.0780769 22.2306116,41.4996799 L47.6838447,16.0468532 C48.2619532,15.4686605 48.5866735,14.6845035 48.5866735,13.8668751 L48.5866735,3.0832838 C48.5866735,2.26553785 48.2618952,1.48127068 47.6836648,0.903033657 C47.1054344,0.324796637 46.321171,-1.91215168e-08 45.503425,-1.91215168e-08 Z" id="Path" fill="#28A8EA"></path>
                    <path d="M45.5036282,42.402915 L34.719816,42.402915 C33.902142,42.402915 33.1179583,42.0780931 32.5397761,41.4999096 L27.385216,36.3453583 L27.385216,26.7138365 C27.385216,23.6694336 29.8531921,21.2014575 32.8975949,21.2014575 L42.5291167,21.2014575 L47.6836681,26.3560619 C48.2618407,26.9342332 48.5866735,27.7183989 48.5866735,28.5360576 L48.5866735,39.3198698 C48.5866735,41.0225886 47.2063471,42.402915 45.5036282,42.402915 Z" id="Path" fill="#0078D4"></path>
                    <path d="M9.26680372,0 L20.0506159,0 C20.8682899,0 21.6524736,0.324821978 22.2306558,0.903005411 L27.385216,6.05755677 L27.385216,15.6890786 C27.385216,18.7334814 24.9172398,21.2014575 21.872837,21.2014575 L12.2413152,21.2014575 L7.08676385,16.0468973 C6.50858042,15.4687151 6.18375844,14.6845314 6.18375844,13.8668575 L6.18375844,3.08304528 C6.18375844,1.38032639 7.56408483,0 9.26680372,0 Z" id="Path" fill="#50D9FF"></path>
                    <path d="M25.6184278,10.8923195 L25.6184278,34.1607778 C25.6203781,34.2795056 25.6085199,34.3980577 25.5830921,34.514047 C25.4171647,35.5010687 24.560914,36.2227545 23.560049,36.21917 L6.18375844,36.21917 L6.18375844,8.83393746 L23.560049,8.83393746 C24.1062584,8.83298169 24.6303725,9.04953803 25.0166015,9.43576701 C25.4028304,9.82199599 25.6193868,10.34611 25.6184278,10.8923195 Z" id="Path" fill="#000000" opacity="0.2"></path>
                    <path d="M26.5018219,10.8923195 L26.5018219,32.3939896 C26.4866651,34.0123662 25.1784256,35.3206057 23.560049,35.3357625 L6.18375844,35.3357625 L6.18375844,7.95054657 L23.560049,7.95054657 C25.1823929,7.95621191 26.4961566,9.26997561 26.5018219,10.8923195 Z" id="Path" fill="#000000" opacity="0.1"></path>
                    <path d="M25.618431,10.8923195 L25.618431,32.3939896 C25.6193868,32.940199 25.4028304,33.4643131 25.0166015,33.8505421 C24.6303725,34.2367711 24.1062584,34.4533274 23.560049,34.4523716 L6.18375844,34.4523716 L6.18375844,8.83393746 L23.560049,8.83393746 C24.1062584,8.83298169 24.6303725,9.04953803 25.0166015,9.43576701 C25.4028304,9.82199599 25.6193868,10.34611 25.618431,10.8923195 Z" id="Path" fill="#000000" opacity="0.2"></path>
                    <path d="M24.7350369,10.8923195 L24.7350369,32.3939896 C24.7359927,32.940199 24.5194364,33.4643131 24.1332074,33.8505421 C23.7469784,34.2367711 23.2228644,34.4533274 22.6766549,34.4523716 L6.18375844,34.4523716 L6.18375844,8.83393746 L22.6766549,8.83393746 C23.2228644,8.83298169 23.7469784,9.04953803 24.1332074,9.43576701 C24.5194364,9.82199599 24.7359927,10.34611 24.7350369,10.8923195 Z" id="Path" fill="#000000" opacity="0.1"></path>
                    <rect id="Rectangle" fill="#0078D4" x="0.000194346694" y="8.83394063" width="24.7350338" height="24.7350338" rx="2.07917366"></rect>
                    <polygon id="Path" fill="#FFFFFF" points="16.4181702 16.6795488 10.6344126 16.6795488 10.6344126 20.0617025 16.0631783 20.0617025 16.0631783 22.2293307 10.6344126 22.2293307 10.6344126 25.7421913 16.7263775 25.7421913 16.7263775 27.9006764 8.00904492 27.9006764 8.00904492 14.5022386 16.4181614 14.5022386"></polygon>
                </g>
            </g>
        </g>
    </g>
</svg>