<?xml version="1.0" encoding="UTF-8"?>
<svg width="70px" height="70px" viewBox="0 0 70 70" version="1.1" xmlns="http://www.w3.org/2000/svg" xmlns:xlink="http://www.w3.org/1999/xlink">
    <title>gcalendar</title>
    <g id="gcalendar" stroke="none" stroke-width="1" fill="none" fill-rule="evenodd">
        <g id="Group-44" transform="translate(6.000000, 6.000000)">
            <g id="Group" transform="translate(0.200001, 0.200001)">
                <g id="Group-14" transform="translate(8.093793, 7.082069)">
                    <path d="M0.0893903755,44.7940877 L0.0893903755,34.2234721 L7.57202123,34.2234721 C9.27791833,34.2234721 10.6608212,35.6063749 10.6608212,37.312272 L10.6608212,44.7940877 L10.6608212,44.7940877 L0.0893903755,44.7940877 Z" id="Rectangle" fill="#0A68D4" transform="translate(5.375106, 39.508780) rotate(-180.000000) translate(-5.375106, -39.508780) "></path>
                    <rect id="Rectangle" fill="#EFB808" x="10.661908" y="34.2215701" width="23.3708284" height="10.5725176"></rect>
                    <rect id="Rectangle" fill="#0FC44A" x="34.0327364" y="10.5725176" width="10.8507417" height="23.6490525"></rect>
                    <polygon id="Rectangle" fill="#D73035" points="34.0327364 34.2215701 44.8834781 34.2215701 34.0327364 44.7940877"></polygon>
                    <path d="M34.0297476,9.88450734e-16 L41.7946782,9.88450734e-16 C43.5005753,1.11917173e-15 44.8834781,1.38290284 44.8834781,3.08879994 L44.8834781,10.5638231 L44.8834781,10.5638231 L34.0297476,10.5638231 L34.0297476,9.88450734e-16 Z" id="Rectangle" fill="#0A68D4"></path>
                    <path d="M0.0249967007,0.0893903755 L31.1327702,0.0893903755 C32.8386673,0.0893903755 34.2215701,1.47229321 34.2215701,3.17819031 L34.2215701,34.1321798 L34.2215701,34.1321798 L23.6490525,34.1321798 L23.6490525,10.661908 L0,10.661908 L0.0249967007,0.0893903755 Z" id="Rectangle" fill="#3086F6" transform="translate(17.110785, 17.110785) rotate(-90.000000) translate(-17.110785, -17.110785) "></path>
                    <path d="M18.2961788,29.8423221 C18.8804495,29.8423221 19.4582283,29.7546814 20.0295153,29.5794002 C20.6008022,29.404119 21.116908,29.1411972 21.5778326,28.7906348 C22.0387573,28.4400723 22.4087954,27.9986234 22.687947,27.4662878 C22.9670985,26.9339523 23.1066743,26.3107302 23.1066743,25.5966216 C23.1066743,24.7396912 22.8437525,24.0158447 22.3179089,23.4250821 C21.7920652,22.8343195 21.1071701,22.4545435 20.2632235,22.2857542 L20.2632235,22.2857542 L20.2632235,22.2468028 C21.0162836,22.0650297 21.616784,21.6852538 22.0647249,21.1074749 C22.5126658,20.5296961 22.7366362,19.8707686 22.7366362,19.1306924 C22.7366362,18.5074703 22.6197821,17.962151 22.3860738,17.4947344 C22.1523655,17.0273178 21.8310166,16.6345581 21.4220271,16.3164551 C21.0130376,15.9983522 20.5391292,15.758152 20.0003017,15.5958546 C19.4614743,15.4335572 18.8934333,15.3524085 18.2961788,15.3524085 C17.7508595,15.3524085 17.2315077,15.4303112 16.7381236,15.5861167 C16.2447394,15.7419223 15.8000445,15.9594008 15.4040388,16.2385524 C15.0080331,16.5177039 14.6704545,16.8487907 14.3913029,17.2318126 C14.1121513,17.6148345 13.9141485,18.0400537 13.7972944,18.5074703 L13.7972944,18.5074703 L15.9980474,19.0722653 C16.1408691,18.5399298 16.400545,18.1114646 16.777075,17.7868697 C17.153605,17.4622749 17.6275134,17.2999775 18.1988004,17.2999775 C18.4844438,17.2999775 18.7603494,17.3454208 19.0265172,17.4363073 C19.292685,17.5271939 19.5263933,17.6570318 19.7276421,17.8258211 C19.9288909,17.9946104 20.0879423,18.2023511 20.2047965,18.4490432 C20.3216506,18.6957353 20.3800777,18.9748869 20.3800777,19.2864979 C20.3800777,19.7149631 20.2924371,20.0622796 20.1171559,20.3284473 C19.9418746,20.5946151 19.7114123,20.8056017 19.4257689,20.9614073 C19.1401254,21.1172128 18.8252684,21.2243291 18.4811979,21.2827562 C18.1371273,21.3411832 17.7898109,21.3703968 17.4392484,21.3703968 L17.4392484,21.3703968 L16.8160264,21.3703968 L16.8160264,23.240063 L17.4002971,23.240063 C17.7638433,23.240063 18.1436192,23.2790144 18.5396249,23.3569172 C18.9356306,23.4348199 19.2959309,23.5614119 19.6205258,23.7366931 C19.9451206,23.9119743 20.2145343,24.1521745 20.4287669,24.4572937 C20.6429995,24.7624128 20.7501158,25.1356969 20.7501158,25.5771459 C20.7501158,25.9926273 20.675459,26.3431897 20.5261454,26.6288331 C20.3768317,26.9144766 20.1820748,27.1481849 19.9418746,27.329958 C19.7016745,27.5117311 19.4290148,27.644815 19.1238957,27.7292097 C18.8187765,27.8136043 18.5169033,27.8558016 18.2182761,27.8558016 C17.4781998,27.8558016 16.8776994,27.6675366 16.4167747,27.2910066 C15.95585,26.9144766 15.640993,26.4535519 15.4722037,25.9082326 L15.4722037,25.9082326 L13.2909264,26.5898818 C13.4726995,27.1611687 13.7291294,27.6545528 14.0602162,28.0700342 C14.3913029,28.4855156 14.7743248,28.8230943 15.2092819,29.0827701 C15.644239,29.342446 16.1213934,29.533957 16.6407451,29.657303 C17.1600969,29.780649 17.7119081,29.8423221 18.2961788,29.8423221 Z M30.3963468,29.4917596 L30.3963468,15.7029709 L28.2734965,15.7029709 L23.9693689,19.1696438 L25.3326673,20.7861261 L28.0592639,18.5464217 L28.0592639,29.4917596 L30.3963468,29.4917596 Z" id="31" fill="#3086F6" fill-rule="nonzero"></path>
                </g>
            </g>
        </g>
    </g>
</svg>