<?xml version="1.0" encoding="UTF-8"?>
<svg width="70px" height="70px" viewBox="0 0 70 70" version="1.1" xmlns="http://www.w3.org/2000/svg" xmlns:xlink="http://www.w3.org/1999/xlink">
    <title>googlemeet</title>
    <g id="googlemeet" stroke="none" stroke-width="1" fill="none" fill-rule="evenodd">
        <g id="Group" transform="translate(9.000000, 9.000000)" fill-rule="nonzero">
            <g id="google-meet" transform="translate(1.209302, 5.441860)">
                <path d="M38.1899243,28.9425297 L38.1899243,14.0901113 L39.7298784,10.8849274 L47.430075,4.78519219 C48.4565691,3.92402804 49.9965232,4.64755932 49.9965232,5.99150377 L49.9965232,35.1458092 C49.9965232,36.4897536 48.4224804,37.2132849 47.3955603,36.3516946 L38.1899243,28.9425297 Z" id="Path" fill="#00AC47"></path>
                <polygon id="Path" fill="#EA4335" points="12.7120782 0.372844449 0.284213997 12.8011348 12.7120782 12.8011348"></polygon>
                <polygon id="Path" fill="#2684FC" points="12.7120782 12.8011348 0.284213997 12.8011348 0.284213997 28.9574435 12.7120782 28.9574435"></polygon>
                <path d="M0.284213997,28.9574435 L0.284213997,37.2431125 C0.284213997,39.5215116 2.14843624,41.3857339 4.42683541,41.3857339 L12.7120782,41.3857339 L12.7120782,28.9574435 L0.284213997,28.9574435 Z" id="Path" fill="#0066DA"></path>
                <path d="M39.7435139,4.46816788 C39.7435139,2.2157613 37.9189197,0.372844449 35.6886707,0.372844449 L12.7125043,0.372844449 L12.7125043,12.8011348 L27.9364889,12.8011348 L27.9364889,20.8792892 L39.7435139,20.5072969 L39.7435139,4.46816788 L39.7435139,4.46816788 Z" id="Path" fill="#FFBA00"></path>
                <path d="M27.936915,28.9574435 L12.7120782,28.9574435 L12.7120782,41.3857339 L35.6886707,41.3857339 C37.9189197,41.3857339 39.7435139,39.5453737 39.7435139,37.296376 L39.7435139,20.8792892 L27.9364889,20.8792892 L27.9364889,28.9574435 L27.936915,28.9574435 Z" id="Path" fill="#00AC47"></path>
                <polygon id="Path" fill="#00832D" points="39.7435139 10.9369125 39.7435139 30.2004004 27.9364889 20.8792892"></polygon>
            </g>
        </g>
    </g>
</svg>