<?xml version="1.0" encoding="UTF-8"?>
<svg width="70px" height="70px" viewBox="0 0 70 70" version="1.1" xmlns="http://www.w3.org/2000/svg" xmlns:xlink="http://www.w3.org/1999/xlink">
    <title>gtm</title>
    <g id="gtm" stroke="none" stroke-width="1" fill="none" fill-rule="evenodd">
        <g id="Group-8" transform="translate(11.000000, 8.000000)" fill="#FF9800" fill-rule="nonzero">
            <path d="M45.118827,30.7818316 C42.6357894,29.2969876 39.6133333,29.5074462 37.4000049,31.0546879 C36.9483488,31.3698469 36.357557,31.4058047 35.8791443,31.1329488 L28.8848983,27.1426944 C28.767168,27.0760668 28.767168,26.9079114 28.8848983,26.8412838 L35.8395442,22.8732386 C36.3211679,22.5982675 36.9162405,22.637398 37.3678965,22.9567875 C39.5790843,24.5209503 42.6133135,24.7430424 45.1059835,23.2603134 C48.2761376,21.3735883 49.4266832,17.2120058 47.6660809,13.995901 C45.7716945,10.5344373 41.3750056,9.32139152 37.950126,11.2758018 C35.5056184,12.6707516 34.2298508,15.2946109 34.4567492,17.9015488 C34.503841,18.444088 34.2405536,18.964418 33.7642813,19.237274 L26.773246,23.2254132 C26.6555158,23.2920408 26.5088882,23.2084919 26.5088882,23.0752367 L26.5088882,15.094728 C26.5088882,14.549016 26.8363922,14.0604134 27.3383511,13.8319759 C29.993703,12.624218 31.757516,9.83114572 31.3893415,6.68061094 C31.0190263,3.51421245 28.408626,0.948520167 25.2031528,0.596345586 C20.9530915,0.12995222 17.3548275,3.40422401 17.3548275,7.50975471 C17.3548275,10.3134028 19.0340887,12.7299761 21.4518396,13.8309183 C21.9548687,14.0593559 22.2834431,14.5479584 22.2834431,15.094728 L22.2834431,23.0752367 C22.2834431,23.2095495 22.1368155,23.2930984 22.0190852,23.2254132 L15.02805,19.2362164 C14.5517777,18.964418 14.2874198,18.4451456 14.3355822,17.903664 C14.5870968,15.036561 13.0202145,12.1483064 10.0801695,10.8971877 C7.12300016,9.63866591 3.57717963,10.5894315 1.66780934,13.1519511 C-0.867671738,16.5552478 0.203673367,21.2731181 3.80193734,23.3258834 C6.27213165,24.7345818 9.24535515,24.496626 11.4233644,22.9567875 C11.8760907,22.6363404 12.4711635,22.5972099 12.9538574,22.872181 L19.9085033,26.8391686 C20.0262335,26.9057962 20.0262335,27.0739516 19.9085033,27.1405793 L12.9142573,31.1308335 C12.4358444,31.4036897 11.8439824,31.3677319 11.3933967,31.0525726 C9.18113865,29.5063886 6.15761226,29.29593 3.67457464,30.7797167 C0.514053068,32.6696143 -0.630070727,36.825909 1.12732055,40.0367261 C3.021707,43.4971321 7.418396,44.7101778 10.8432754,42.7557674 C13.3006265,41.3534146 14.5785346,38.7094614 14.3345119,36.0887749 C14.284209,35.5441204 14.5464264,35.0185025 15.0259095,34.7456465 L22.0201555,30.7553923 C22.1378858,30.6887647 22.2845134,30.7723135 22.2845134,30.9055688 L22.2845134,38.8860775 C22.2845134,39.4317894 21.9570093,39.9203921 21.4550504,40.1488294 C18.7996986,41.3565875 17.0358856,44.1496598 17.4040602,47.3001944 C17.7743753,50.4665931 20.3847756,53.0322854 23.5902487,53.3844598 C27.84031,53.8508533 31.438574,50.5765815 31.438574,46.4710507 C31.438574,43.6674026 29.7593129,41.2508294 27.341562,40.1498871 C26.8385328,39.9214495 26.5099584,39.432847 26.5099584,38.8860775 L26.5099584,30.9055688 C26.5099584,30.7712561 26.6565861,30.687707 26.7743163,30.7553923 L33.7685623,34.7456465 C34.2480454,35.0195601 34.5113331,35.5441204 34.4599599,36.0887749 C34.2159373,38.7094614 35.4938453,41.3534146 37.9511963,42.7557674 C41.376076,44.7101778 45.7727648,43.4971321 47.6671512,40.0367261 C49.4234722,36.8269667 48.2793486,32.6717296 45.118827,30.7818316 Z" id="Shape"></path>
        </g>
    </g>
</svg>