<?xml version="1.0" encoding="UTF-8"?>
<svg width="70px" height="70px" viewBox="0 0 70 70" version="1.1" xmlns="http://www.w3.org/2000/svg" xmlns:xlink="http://www.w3.org/1999/xlink">
    <title>icloud</title>
    <defs>
        <linearGradient x1="50%" y1="0%" x2="50%" y2="100%" id="linearGradient-1">
            <stop stop-color="#5C62E2" offset="0%"></stop>
            <stop stop-color="#5ECCFF" offset="99.9344406%"></stop>
        </linearGradient>
    </defs>
    <g id="icloud" stroke="none" stroke-width="1" fill="none" fill-rule="evenodd">
        <g id="Group-25" transform="translate(11.000000, 10.000000)">
            <g id="Group" transform="translate(0.064001, 0.761601)">
                <g id="icon-/-iCal" transform="translate(0.837931, 0.837931)">
                    <rect id="Rectangle-12" fill="url(#linearGradient-1)" x="0" y="0" width="46.8452922" height="46.8452922" rx="11.3614249"></rect>
                    <path d="M26.7398591,11.618566 C29.4321276,11.618566 31.8696168,12.7121332 33.6339749,14.480492 C35.3975547,16.2480709 36.4885353,18.6899077 36.4885353,21.387193 C38.1500116,21.7407792 39.5936306,22.4336114 40.6815362,23.442787 C42.0375976,24.7007123 42.8469534,26.4529664 42.8469534,28.3899026 C42.8469534,30.2550742 42.0951044,31.9488418 40.8698404,33.1941853 C39.6429834,34.4411478 37.9408322,35.2377621 36.0481405,35.3014563 L36.0481405,35.3014563 L12.9644384,35.3055738 C10.9247549,35.3055738 9.08150727,34.5509835 7.74598986,33.3417103 C6.37460646,32.0999614 5.53618009,30.3816956 5.53618009,28.4896563 C5.53618009,26.9877546 6.06453952,25.5966183 6.96761826,24.4650392 C7.68960039,23.5603784 8.65263077,22.8222289 9.77311355,22.3326472 C9.71454762,22.026255 9.68393105,21.7102255 9.68393105,21.387193 C9.68393105,19.9765522 10.2663967,18.6984977 11.211038,17.7737326 C12.1482865,16.8562047 13.4426282,16.2870391 14.8732765,16.2870391 C16.0069293,16.2870391 17.0548052,16.6443203 17.9074544,17.2489869 C18.5886725,15.7906743 19.6189545,14.5287824 20.8908011,13.5716 C22.5201336,12.3453764 24.5452864,11.618566 26.7398591,11.618566 Z" id="Oval-1" stroke="#FFFFFF" stroke-width="1.9008"></path>
                </g>
            </g>
        </g>
    </g>
</svg>