<?xml version="1.0" encoding="UTF-8"?>
<svg width="70px" height="70px" viewBox="0 0 70 70" version="1.1" xmlns="http://www.w3.org/2000/svg" xmlns:xlink="http://www.w3.org/1999/xlink">
    <title>mteams</title>
    <g id="mteams" stroke="none" stroke-width="1" fill="none" fill-rule="evenodd">
        <g id="Group" transform="translate(4.000000, 4.000000)">
            <g id="microsoft-teams-icon" transform="translate(4.325581, 4.325581)">
                <ellipse id="Oval" fill="#7B83EB" fill-rule="nonzero" cx="27.9786743" cy="9.87227298" rx="7.68096898" ry="7.67898297"></ellipse>
                <path d="M27.4306215,11.5176518 L20.4738064,11.5176518 L20.5083683,11.670672 L20.5116599,11.683835 L20.5478676,11.8253376 C21.5981372,15.8070469 25.600776,18.2537211 29.6244787,17.373555 L29.6244787,13.7109418 C29.6208636,12.5011214 28.6407548,11.5212659 27.4306215,11.5176518 Z" id="Path" fill="#000000" fill-rule="nonzero" opacity="0.1"></path>
                <path d="M25.7848171,13.1630306 L21.0383173,13.1630306 C22.3098183,15.8431315 25.0116267,17.5514218 27.9786743,17.5512559 L27.9786743,15.3563206 C27.9750593,14.1465001 26.9949505,13.1666447 25.7848171,13.1630306 Z" id="Path" fill="#000000" fill-rule="nonzero" opacity="0.2"></path>
                <ellipse id="Oval" fill="#5059C9" fill-rule="nonzero" cx="45.2596203" cy="12.3403412" rx="5.76031531" ry="5.75882589"></ellipse>
                <path d="M50.1970334,19.7445459 L37.2593652,19.7445459 C36.6776355,19.7445459 36.2060504,20.2160091 36.2060504,20.7975883 L36.2060504,34.1416107 C36.1325578,38.1217744 38.8553472,41.6103254 42.7349564,42.5067166 C45.1630495,43.016061 47.6914514,42.4044005 49.6180003,40.841599 C51.544549,39.2787976 52.664099,36.9312678 52.66574,34.4509418 L52.66574,22.2126141 C52.66574,20.8495377 51.5604623,19.7445459 50.1970334,19.7445459 L50.1970334,19.7445459 Z" id="Path" fill="#5059C9" fill-rule="nonzero"></path>
                <path d="M41.1451137,22.2126141 L41.1451137,37.843713 C41.1484288,43.7997035 37.1485685,49.0148243 31.3942466,50.5571391 C25.6399247,52.0994539 19.5670175,49.5841087 16.5897081,44.4252283 C16.2730055,43.8990082 15.9978693,43.348878 15.7668059,42.7798495 C15.5513901,42.2433347 15.3699925,41.693787 15.2236904,41.1344706 C14.9523593,40.0585172 14.8141754,38.9533321 14.812235,37.843713 L14.812235,22.2126141 C14.8113643,21.5577739 15.0711784,20.9295027 15.5343405,20.4664603 C15.9975026,20.0034179 16.6259364,19.743671 17.2809459,19.7445415 L38.6764028,19.7445415 C39.3314124,19.743671 39.9598461,20.0034179 40.4230082,20.4664603 C40.8861703,20.9295027 41.1459844,21.5577739 41.1451137,22.2126141 Z" id="Path" fill="#7B83EB" fill-rule="nonzero"></path>
                <path d="M25.7848171,13.1630306 L21.0383173,13.1630306 C22.3098183,15.8431315 25.0116267,17.5514218 27.9786743,17.5512559 L27.9786743,15.3563206 C27.9750593,14.1465001 26.9949505,13.1666447 25.7848171,13.1630306 Z" id="Path" fill="#000000" fill-rule="nonzero" opacity="0.2"></path>
                <path d="M29.6244787,19.7445415 L29.6244787,40.5914957 C29.6244787,41.6134931 28.9118407,42.497247 27.9128421,42.7140343 C27.758016,42.7600857 27.5970738,42.7822789 27.4355589,42.7801847 L15.7668059,42.7801847 C15.5513901,42.2433347 15.3699925,41.693787 15.2236904,41.1344706 C14.9523593,40.0585172 14.8141754,38.9533321 14.812235,37.843713 L14.812235,22.2126141 C14.8113643,21.5577739 15.0711784,20.9295027 15.5343405,20.4664603 C15.9975026,20.0034179 16.6259364,19.743671 17.2809459,19.7445415 L29.6244787,19.7445415 Z" id="Path" fill="#000000" fill-rule="nonzero" opacity="0.1"></path>
                <path d="M27.9786743,19.7445415 L27.9786743,42.2368744 C27.9810788,42.3983461 27.9588804,42.5592427 27.9128421,42.7140343 C27.6959987,43.7127746 26.8120164,44.4252283 25.7897545,44.4252283 L16.5897081,44.4252283 C16.2730055,43.8990082 15.9978693,43.348878 15.7668059,42.7798495 C15.5513901,42.2433347 15.3699925,41.693787 15.2236904,41.1344706 C14.9523593,40.0585172 14.8141754,38.9533321 14.812235,37.843713 L14.812235,22.2126141 C14.8113643,21.5577739 15.0711784,20.9295027 15.5343405,20.4664603 C15.9975026,20.0034179 16.6259364,19.743671 17.2809459,19.7445415 L27.9786743,19.7445415 Z" id="Path" fill="#000000" fill-rule="nonzero" opacity="0.2"></path>
                <path d="M27.9786743,19.7445415 L27.9786743,38.9461168 C27.9732673,40.1524651 26.9964148,41.129065 25.7897545,41.1344706 L15.2236904,41.1344706 C14.9523593,40.0585172 14.8141754,38.9533321 14.812235,37.843713 L14.812235,22.2126141 C14.8113643,21.5577739 15.0711784,20.9295027 15.5343405,20.4664603 C15.9975026,20.0034179 16.6259364,19.743671 17.2809459,19.7445415 L27.9786743,19.7445415 L27.9786743,19.7445415 Z" id="Path" fill="#000000" fill-rule="nonzero" opacity="0.2"></path>
                <path d="M17.2809459,19.7445415 C16.6259364,19.743671 15.9975026,20.0034179 15.5343405,20.4664603 C15.0711784,20.9295027 14.8113643,21.5577739 14.812235,22.2126141 L14.812235,37.843713 C14.8141754,38.9533321 14.9523593,40.0585172 15.2236904,41.1344706 L24.1439502,41.1344706 C25.3506104,41.129065 26.3274629,40.1524651 26.33287,38.9461168 L26.33287,19.7445415 L17.2809459,19.7445415 Z" id="Path" fill="#000000" fill-rule="nonzero" opacity="0.2"></path>
                <path d="M2.19385723,13.1630306 L24.1390127,13.1630306 C25.3506467,13.1630306 26.33287,14.1449999 26.33287,15.3563206 L26.33287,37.2958018 C26.33287,38.5071224 25.3506467,39.4890918 24.1390127,39.4890918 L2.19385723,39.4890918 C0.982223335,39.4890918 0,38.5071224 0,37.2958018 L0,15.3563206 C0,14.1449999 0.982223335,13.1630306 2.19385723,13.1630306 Z" id="Path" fill="#4B53BC" fill-rule="nonzero"></path>
                <polygon id="Path" fill="#FFFFFF" fill-rule="nonzero" points="19.7167364 21.3487903 14.7957813 21.3487903 14.7957813 34.5447285 11.5667132 34.5447285 11.5667132 21.3487903 6.61613358 21.3487903 6.61613358 18.107394 19.7167364 18.107394"></polygon>
                <polygon id="Path" points="0 0 52.66574 0 52.66574 52.6521224 0 52.6521224"></polygon>
            </g>
        </g>
    </g>
</svg>