<?xml version="1.0" encoding="UTF-8"?>
<svg width="70px" height="70px" viewBox="0 0 70 70" version="1.1" xmlns="http://www.w3.org/2000/svg" xmlns:xlink="http://www.w3.org/1999/xlink">
    <title>office365</title>
    <defs>
        <linearGradient x1="49.9768398%" y1="-5.7%" x2="49.9768398%" y2="93%" id="linearGradient-1">
            <stop stop-color="#FFB900" offset="0%"></stop>
            <stop stop-color="#EF8400" offset="17%"></stop>
            <stop stop-color="#E25C01" offset="31%"></stop>
            <stop stop-color="#DB4401" offset="43%"></stop>
            <stop stop-color="#D83B01" offset="50%"></stop>
        </linearGradient>
        <linearGradient x1="65.309396%" y1="-2.30735625%" x2="21.7429318%" y2="92.4889251%" id="linearGradient-2">
            <stop stop-color="#800600" offset="0%"></stop>
            <stop stop-color="#C72127" offset="60%"></stop>
            <stop stop-color="#C13959" offset="73%"></stop>
            <stop stop-color="#BC4B81" offset="85%"></stop>
            <stop stop-color="#B95799" offset="94%"></stop>
            <stop stop-color="#B85BA2" offset="100%"></stop>
        </linearGradient>
        <linearGradient x1="7.88912504%" y1="50.0377248%" x2="191.841076%" y2="50.0377248%" id="linearGradient-3">
            <stop stop-color="#F32B44" offset="0%"></stop>
            <stop stop-color="#A4070A" offset="60%"></stop>
        </linearGradient>
        <linearGradient x1="66.1985075%" y1="-4.23376572%" x2="56.9739756%" y2="15.8347637%" id="linearGradient-4">
            <stop stop-color="#000000" stop-opacity="0.4" offset="0%"></stop>
            <stop stop-color="#000000" stop-opacity="0" offset="100%"></stop>
        </linearGradient>
        <linearGradient x1="132.890182%" y1="52.4744013%" x2="50.5296726%" y2="48.194349%" id="linearGradient-5">
            <stop stop-color="#000000" stop-opacity="0.4" offset="0%"></stop>
            <stop stop-color="#000000" stop-opacity="0" offset="100%"></stop>
        </linearGradient>
    </defs>
    <g id="office365" stroke="none" stroke-width="1" fill="none" fill-rule="evenodd">
        <g id="Group-43-Copy" transform="translate(9.000000, 9.000000)" fill-rule="nonzero">
            <g id="Group" transform="translate(0.580001, 0.380000)">
                <g id="Microsoft_Office_logo_(2019–present)-(1)-Copy" transform="translate(5.400000, 0.000000)">
                    <g id="Group" opacity="0.2" style="mix-blend-mode: multiply;" transform="translate(7.955999, 39.265199)" fill="#FFFFFF">
                        <path d="M2.98303181,0.842399974 C1.76341561,0.855464843 0.70249611,1.68094472 0.390063449,2.85993589 C0.0776307872,4.03892707 0.590524892,5.28146755 1.64361585,5.89679982 L11.2132796,11.3218556 C12.0014966,11.7699219 12.8927784,12.005081 13.7994475,12.0042021 C14.2872624,12.0038811 14.7724621,11.9329455 15.2399514,11.7935996 L29.636567,7.69111176 C31.8425637,7.05729911 33.3638851,5.04146241 33.3683989,2.74622391 L33.3683989,0.842399974 L2.98303181,0.842399974 Z" id="Path"></path>
                    </g>
                    <g id="Group" opacity="0.12" style="mix-blend-mode: multiply;" transform="translate(7.628399, 39.265199)" fill="#FFFFFF">
                        <path d="M3.3106319,0.842399974 C2.0910157,0.855464843 1.0300962,1.68094472 0.717663539,2.85993589 C0.405230878,4.03892707 0.918124982,5.28146755 1.97121594,5.89679982 L11.5408796,11.3218556 C12.3290967,11.7699219 13.2203785,12.005081 14.1270476,12.0042021 C14.6148625,12.0038811 15.1000622,11.9329455 15.5675515,11.7935996 L29.9641671,7.69111176 C32.1701638,7.05729911 33.6914852,5.04146241 33.695999,2.74622391 L33.695999,0.842399974 L3.3106319,0.842399974 Z" id="Path"></path>
                    </g>
                    <path d="M23.1369828,0.514799883 L27.0035987,9.35999961 L27.0035987,40.1075987 L23.1959508,51.0587983 L37.5925663,46.9563104 C39.7985631,46.3224978 41.3198845,44.3066611 41.3243987,42.0114226 L41.3243987,9.5621756 C41.3253978,7.26050845 39.798168,5.23796084 37.5841423,4.60886376 L23.1369828,0.514799883 Z" id="Path" fill="url(#linearGradient-1)"></path>
                    <path d="M4.88217534,39.7790627 L9.09417521,37.5045827 C10.2707804,36.8579212 11.0007868,35.6207866 10.9979992,34.2781908 L10.9979992,17.7250313 C10.999589,16.1805773 11.9650664,14.8013239 13.4156871,14.2711915 L27.0035987,9.35999961 L27.0035987,5.62816772 C27.0003606,3.25178471 25.4226035,1.16529553 23.1369828,0.514799883 C22.6632194,0.378756356 22.1725363,0.310684715 21.6796308,0.3125836 L21.6796308,0.3125836 C20.7525155,0.314744425 19.8415622,0.5555378 19.0344949,1.01181587 L3.48379139,9.88228759 C1.87965518,10.7963491 0.889190842,12.5007243 0.889190842,14.3470075 L0.889190842,37.3950707 C0.886793815,38.3494462 1.38765174,39.2344138 2.20709041,39.7236567 C3.02652908,40.2128996 4.04318187,40.2339564 4.88217534,39.7790627 Z" id="Path" fill="url(#linearGradient-2)"></path>
                    <path d="M27.003618,40.1075987 L10.9390312,40.1075987 C9.71941496,40.1206635 8.65849546,40.9461434 8.3460628,42.1251346 C8.03363014,43.3041257 8.54652424,44.5466662 9.5996152,45.1619985 L19.1692789,50.5870543 C19.957496,51.0351206 20.8487777,51.2702797 21.7554468,51.2694008 L21.7554468,51.2694008 C22.2432618,51.2690798 22.7284615,51.1981441 23.1959508,51.0587983 C25.4541154,50.4171952 27.0099458,48.3519337 27.003618,46.0043985 L27.003618,40.1075987 Z" id="Path" fill="url(#linearGradient-3)"></path>
                    <path d="M4.88217534,39.7790627 L9.09417521,37.5045827 C10.2707804,36.8579212 11.0007868,35.6207866 10.9979992,34.2781908 L10.9979992,17.7250313 C10.999589,16.1805773 11.9650664,14.8013239 13.4156871,14.2711915 L27.0035987,9.35999961 L27.0035987,5.62816772 C27.0003606,3.25178471 25.4226035,1.16529553 23.1369828,0.514799883 C22.6632194,0.378756356 22.1725363,0.310684715 21.6796308,0.3125836 L21.6796308,0.3125836 C20.7525155,0.314744425 19.8415622,0.5555378 19.0344949,1.01181587 L3.48379139,9.88228759 C1.87965518,10.7963491 0.889190842,12.5007243 0.889190842,14.3470075 L0.889190842,37.3950707 C0.886793815,38.3494462 1.38765174,39.2344138 2.20709041,39.7236567 C3.02652908,40.2128996 4.04318187,40.2339564 4.88217534,39.7790627 Z" id="Path" fill="url(#linearGradient-4)"></path>
                    <path d="M27.003618,40.1075987 L10.9390312,40.1075987 C9.71941496,40.1206635 8.65849546,40.9461434 8.3460628,42.1251346 C8.03363014,43.3041257 8.54652424,44.5466662 9.5996152,45.1619985 L19.1692789,50.5870543 C19.957496,51.0351206 20.8487777,51.2702797 21.7554468,51.2694008 L21.7554468,51.2694008 C22.2432618,51.2690798 22.7284615,51.1981441 23.1959508,51.0587983 C25.4541154,50.4171952 27.0099458,48.3519337 27.003618,46.0043985 L27.003618,40.1075987 Z" id="Path" fill="url(#linearGradient-5)"></path>
                </g>
            </g>
        </g>
    </g>
</svg>