<svg width="504" height="432" xmlns="http://www.w3.org/2000/svg"><defs><filter id="a"><feColorMatrix in="SourceGraphic" values="0 0 0 0 0.853629 0 0 0 0 0.853629 0 0 0 0 0.853629 0 0 0 1.000000 0"/></filter></defs><g fill="none" fill-rule="evenodd"><path fill="#C5C5C5" d="M184.942 113.065l-11.245-13.98 2.73-10.452-2.73-5.889v-4.213l5.622-8.228-2.892-9.341 2.892-7.545 3.83-13.242 9.512-9.471 12.671-4.655 13.31 4.655 7.58 6.56 4.05 10.525 1.484 4.262 3.797 8.91-1.393 12.46-2.404 5.11 1.74 5.994-4.274 7.095-3.97 1.957-8.72-2.331-2.06-4.67 4.17-5.538 1.348-7.196 3.974.029 5.258-3.885-3.415-3.336-2.794-2.828-6.482-13.27-8.871 7.12-12.93 4.081-9.788 1.905-1.794 1.092 4.449 12.671 6.991 11.212-4.654 4.973v7.353l2.051 7.382z"/><g filter="url(#a)"><g stroke="#9A9A9A" stroke-width="3"><path stroke-linecap="square" stroke-linejoin="round" d="M494.189 313.609l-.563-95.809M454.426 190.5h-50.92m-153.326 0h-2.132m-91.177 0h-16.8m-3.026 26.6h17.798m89.995 0h5.361m35.203 0h-.396m35.69 0h17.075m67.208 0H439.9m22.925.7h39.2v-28h-35.652"/><g transform="matrix(-1 0 0 1 467.62 147.72)"><path d="M61.188 88.48c-4.578-.465-9.917-.533-15.803-.316C14.795 69.317 9.948 32.92 0 0c2.436 56.097 6.707 75.566 8.953 84.302 4.927 19.172 30.935 20.359 53.028 16.228M46.793 104.481l.646 59.408M16.88 160.617l30.559-9.76 14.37 4.637" stroke-linecap="square" stroke-linejoin="round"/><circle cx="17.193" cy="166.081" r="5.5"/><circle cx="48.193" cy="170.281" r="5.5"/></g><g transform="translate(117.62 222.72)"><path d="M12.09 25.937c10.173 2.47 22.798 1.706 34.311-.486m-5.57-12.287c-3.5-.164-7.34-.151-11.446 0A65.795 65.795 0 0114.635.788M30.793 29.481l.646 59.408M.88 85.617l30.559-9.76 26.09 8.42M1.693 96.08c3.314 0 6-2.238 6-5 0-2.76-2.686-5-6-5" stroke-linecap="square" stroke-linejoin="round"/><circle cx="32.193" cy="95.281" r="5.5"/><path d="M58.293 83.68a6 6 0 100 12" stroke-linecap="square" stroke-linejoin="round"/></g><path d="M433.065 180.638c-5.98 0-12.592 2.565-19.851 8.03h36.548c-4.949-5.31-10.507-8.03-16.697-8.03zM439.73 182.925l16.61-61.772M460.026 130.799L415.523 117M405.426 111.847c.984-.378 1.942-.69 2.86-.894 3.051-.677 5.655-.16 7.237 3.083l-3.633 15.334c4.938 3.082 8.422 6.921 11.036 11.215l-10.743-3.007M158.99 110h-23.213" stroke-linecap="square" stroke-linejoin="round"/></g></g><g transform="translate(.974 .49)"><path d="M371.756 422.138c122.86 23.95 47.653-105.995-146.02-47.953-41.736 12.508-111.544-1.893-139.677 0l-8.253.555c-3.177.214-13.087.868-29.73 1.964C16.415 380.576.391 389.386 0 403.132c-.345 12.275 33.374 5.251 72.515 8.76 37.856 3.392 95.872 8.491 124.693 14.477 93.75 19.472 134.644-23.922 174.548-4.23z" fill="#F5F5F5"/><path d="M269.017 64.456l-25.531 5.886-9.47 25.257 10.757 9.38 8.595 35.22c.97 13.734 2.197 20.78 3.683 21.137 19.37 4.655 40.066 1.883 60.71-.594l-2.153-58.38 12.523 33.845-11.613 21.548 23.485 10.505 1.432-54.297-10.834-30.395c-5.18-10.381-10.04-15.315-15.709-16.175l-19.872-2.791c-8.05 11.453-12.415 17.861-13.095 19.225-.534 1.072-.493 3.601.125 7.588-7.81-15.473-6.482-12.8-13.033-26.959z" fill="#E2FDEC"/><path fill="#FFF" d="M258.492 340.219h15.04v11.28h-15.04z"/><path d="M298.85 37.748c.22 3.72-.145 6.821-1.095 9.302-1.424 3.72-5.72 12.127-16.528 12.127-10.807 0-14.918-6.903-16.457-10.714-1.538-3.811-.894-5.86-.894-7.56 0-1.701-.878-6.644-.644-8.434.233-1.79.967-2.513 2.303-3.354 1.336-.84 1.968-3.649 2.227-4.388.172-.493 1.398-1.062 3.677-1.706l2.04-2.872 2.278.755 4.089.636 5.157-2.17 3.9 2.17 4.126-.636 1.325 1.566 1.088 4.343 3.408 3.275v7.66z" fill="#E6E6E6"/><path d="M271.28 67.02l9.853 17.016 11.81-18.593-.756-9.617c-3.171 2.574-6.57 3.86-10.197 3.86-3.627 0-7.643-1.286-12.05-3.86.907 3.716 1.3 6.272 1.178 7.667-.12 1.394-.067 2.57.163 3.528z" fill="#E6E6E6"/><circle fill="#333" cx="274.514" cy="34.714" r="2.061"/><circle fill="#333" cx="289.933" cy="34.714" r="2.061"/><path d="M279.347 47.196l1.078 1.043c2.207 2.133 3.85 2.263 5.764.25l.165-.177 1.006-1.113 2.225 2.01-1.005 1.114c-3.137 3.471-6.678 3.384-10.038.264l-.202-.191-1.078-1.043 2.085-2.157zM283.767 40.652c-.189.987-.232 1.69-.178 2.078l.018.101.123-.014.103-.017.556 2.948c-3.211.605-4.272-1.66-3.612-5.419l.044-.242 2.946.565z" fill="#333" fill-rule="nonzero"/><path d="M317.517 198.849c-.505 33.172-1.262 84.887-2.273 151.23l-.086 4.84h-17.869l-11.74-149.921c-.11-.391-.422-.587-.935-.587-.514 0-.79.196-.83.587-6.26 52.893-5.624 96.069-5.132 149.885h-18.75l-10.6-186.017c14.66 2.291 29.347 2.78 44.057 1.85" fill="#969696"/><path d="M247.805 168.952a1.5 1.5 0 011.73-1.568c13.665 2.136 27.693 2.747 42.225 1.924l1.505-.09.19 2.994c-14.296.905-28.12.45-41.6-1.45l-.95-.138 10.413 182.758h15.819l-.185-21.734-.053-8.035-.041-9.685-.006-4.1.003-4.405.016-4.427.029-4.217.042-4.066.041-2.986.043-2.603.085-4.339.074-3.221.083-3.29c.662-24.922 2.214-47.688 5.024-71.426.125-1.245 1.103-1.937 2.322-1.937 1.139 0 2.07.585 2.379 1.681l.032.143.019.146 11.632 148.538h15.007l.062-3.362 2.273-151.23 3 .045-2.274 151.235-.086 4.84a1.5 1.5 0 01-1.358 1.466l-.142.006h-17.869a1.5 1.5 0 01-1.478-1.247l-.017-.136-11.241-143.538-.082.75c-2.214 20.369-3.512 40.228-4.135 61.63l-.098 3.594-.081 3.297-.071 3.239-.061 3.212-.052 3.219-.029 2.165-.036 3.3-.027 3.394-.018 3.517-.011 4.94.018 9.896.07 12.463.212 24.755a1.5 1.5 0 01-1.363 1.507l-.137.007h-18.75a1.5 1.5 0 01-1.484-1.277l-.014-.138-10.599-186.016zM298.355 41.831l2.994.198c-.292 4.426-1.176 7.766-2.715 10.035-3.944 5.813-8.478 9.226-15.783 9.226-7.55 0-13.954-4.274-16.763-9.34-1.537-2.772-2.439-6.656-2.511-9.153l-.005-.318h3c0 1.996.802 5.604 2.14 8.016 2.308 4.163 7.75 7.795 14.14 7.795 6.09 0 9.857-2.835 13.299-7.91 1.141-1.683 1.883-4.38 2.17-8.08l.034-.469z" fill="#353535" fill-rule="nonzero"/><path d="M305.717 33.295c.853.766 1.192 2.168 1.261 4.433l.013.64.001.336c0 4.234-2.977 7.417-6.899 7.542l-.24.004v-3c2.355 0 4.14-1.856 4.14-4.546l-.003-.327-.014-.611a12.1 12.1 0 00-.154-1.665 3.642 3.642 0 00-.123-.505l-.032-.086c-.011-.027-.014-.034-.001-.025l.045.04 2.006-2.23zM258.53 33.877l2.803 1.067c-.257.675-.4 1.764-.4 3.239 0 2.447 1.838 5.189 3.76 5.056l.155-.017.448 2.966c-4.24.64-7.364-3.908-7.364-8.005 0-1.668.16-3.01.507-4.052l.09-.254z" fill="#353535" fill-rule="nonzero"/><path d="M299.708 42.33c1.69-1.752 2.536-3.143 2.536-4.172 0-1.545 1.137-3.15 1.836-4.086.7-.935 2.352-2.457 2.352-4.604 0-2.147-.992-3.331-.992-4.827s1.36-5.597 0-7.974c-1.36-2.378-3.812-2.392-3.812-3.381 0-.989.308-3.049-1.216-4.423-1.524-1.375-3.894.048-4.835-.664-.941-.71-.472-4.505-4.413-5.626-3.942-1.12-5.043 1.006-6.342 1.006-1.3 0-3.675-2.782-7.538-1.894-3.863.888-4.99 3.764-5.656 4.557-.666.793-1.898.704-2.864.704-.965 0-4.478.587-5.896 2.59-1.418 2.001-.6 5.345-1.418 6.238-.819.893-2.962 1.882-3.67 4.014-.707 2.132.415 4.9.874 6.225.46 1.325-.438 1.758-.438 3.956 0 2.199 1.49 3.971 2.88 6.08s3.567 6.96 3.93 6.96c.362 0-.316-4.983-.548-6.96-.233-1.977-.798-3.335 0-4.708.797-1.372 2.496-1.274 3.391-2.407.895-1.134.184-3.578 1.144-4.293.96-.715 3.2-.3 3.744-1.376.544-1.075.73-2.468 1.69-2.468.961 0 2.333 1.935 5.66 1.935 3.328 0 4.301-2.714 5.815-2.714 1.513 0 2.138 1.63 3.883 2.172 1.744.542 3.938-1.075 4.855 0 .917 1.075.067 3.816 1.655 5.28 1.587 1.464 2.688 1.35 3.393 3.019.704 1.67 0 6.268 0 7.93v3.911z" fill="#C5C5C5"/><path d="M270.48 5.277c-.055.064-.24.129-.636.157l-.241.011-.178.003-.66-.002c-2.29 0-5.64 1.13-7.121 3.222-.616.87-.94 1.888-1.1 3.135l-.032.262-.026.253-.034.425-.078 1.3-.03.356-.024.182-.022.137c-.011.064-.015.092.009.077l-.176.153-.675.543-.762.604c-1.137.959-1.914 1.945-2.337 3.22-.272.82-.353 1.708-.28 2.662.078 1.01.316 2.029.691 3.178l.122.363.347.986a.596.596 0 01.045.287l-.023.126-.035.134-.162.54a7.89 7.89 0 00-.346 2.378c0 1.427.452 2.716 1.33 4.188.173.29.36.583.585.923l1.09 1.61.215.327.197.317.213.362.232.408.387.708.44.83 1.332 2.562.33.607.187.33.166.274.077.12c.103.155.2.286.305.402.32.354.626.573 1.223.573.922 0 1.326-.537 1.508-1.174.054-.185.078-.367.09-.578a9.497 9.497 0 00-.02-1.051l-.035-.492-.048-.557-.062-.626-.075-.696-.416-3.462a17.65 17.65 0 00-.057-.439l-.072-.47-.148-.9-.073-.505-.032-.275c-.048-.505-.014-.76.1-1.015l.076-.151.013-.024c.124-.213.3-.353.769-.58l.377-.174c1.075-.484 1.587-.794 2.126-1.478.538-.68.727-1.39.824-2.512l.073-1.025.02-.214.023-.166.028-.147.101-.028.165-.036.222-.042.905-.146c1.5-.254 2.159-.558 2.689-1.604.085-.17.163-.342.245-.539l.31-.785.046-.114.517.312.453.262c1.353.745 2.73 1.153 4.44 1.153 1.705 0 2.987-.515 4.282-1.496l.299-.235.826-.685.2-.153c.029-.02.056-.04.082-.056l.138-.085-.012-.004c.152 0 .303.064.597.292l.238.194.4.338c.763.637 1.376 1.024 2.202 1.28.653.203 1.323.226 2.07.125.1-.014.197-.029.296-.046l.307-.058.352-.077.852-.191.163-.031.128-.02.041-.004.03.16.048.353.052.51.062.653.034.282c.184 1.404.59 2.451 1.504 3.295.398.367.791.671 1.224.959l.918.574c.518.326.692.507.886.966.088.21.147.578.175 1.086l.015.406c.003.144.004.296.003.456l-.008.505-.021.55-.029.516-.049.722-.195 2.607-.01.341v7.784l2.58-2.673c1.856-1.924 2.867-3.537 2.95-5.014l.007-.2c0-.772.47-1.72 1.355-2.94l.213-.286.846-1.039.136-.173c1.048-1.37 1.638-2.687 1.638-4.252 0-.99-.144-1.766-.46-2.78l-.335-1.03-.095-.33a2.999 2.999 0 01-.098-.564l-.003-.284.037-.298.244-1.501c.168-1.017.264-1.774.305-2.55.086-1.665-.125-3.056-.785-4.21a6.605 6.605 0 00-1.882-2.088l-.086-.06a11.3 11.3 0 00-.587-.372l-.44-.257-.606-.338v.045c.037-1.067.006-1.734-.201-2.542-.253-.99-.744-1.858-1.523-2.56-.827-.746-1.81-1.028-2.958-1.013a7.591 7.591 0 00-.311.01l-.321.024-.372.039-.637.074-.184.018-.1.006-.33-1.06a10.21 10.21 0 00-.46-1.192c-.8-1.72-2.113-2.94-4.17-3.525-2.286-.65-3.93-.463-5.572.334l-.302.154-.653.35-.08.04-.119.053-.026.008-.32-.152-1.302-.703c-2.102-1.094-3.983-1.513-6.252-.99-1.98.454-3.514 1.385-4.727 2.687l-.091.1-.194.227-.203.253-.207.27-.304.414-.361.513-.313.466-.061.099-.017.034.01-.01zm11.335-1.402l1.247.674.089.046c.63.318 1.116.484 1.67.484.184 0 .366-.018.545-.054.353-.07.669-.194 1.039-.381l.746-.4c1.076-.56 1.987-.687 3.602-.228 1.17.333 1.82.937 2.272 1.905.086.186.165.384.245.612l.106.32.254.827c.267.83.507 1.311 1.043 1.716.632.478 1.084.583 2.04.51l.41-.039.803-.092.257-.024.214-.013.1-.002c.458-.006.72.07.91.24.316.285.513.634.626 1.076.104.403.131.798.117 1.44l-.021.697v.097c0 .854.418 1.417 1.095 1.876l.17.109 1.005.56.403.237.211.134.078.054c.436.318.777.684 1.047 1.155.322.562.452 1.422.393 2.564-.017.32-.046.646-.09 1.006l-.078.57-.311 1.92a7.862 7.862 0 00-.112 1.17c0 .478.068.938.197 1.437.034.131.072.263.115.406l.26.796c.301.915.42 1.471.42 2.188 0 .784-.336 1.534-1.02 2.429l-1.033 1.277-.225.304a15.158 15.158 0 00-1.072 1.662l-.174.337.062-.942c.121-2.16.052-3.605-.38-4.63-.43-1.015-.972-1.621-1.846-2.205l-1.06-.665a6.689 6.689 0 01-.852-.668c-.267-.245-.43-.627-.534-1.276l-.048-.355-.064-.66a27.343 27.343 0 00-.048-.498l-.054-.435c-.124-.88-.315-1.378-.783-1.926-.71-.834-1.318-1.045-2.428-.905l-.369.056-.198.036-.426.087-.788.178-.252.053-.214.037-.1.015c-.35.047-.599.039-.776-.016-.324-.101-.604-.265-.995-.576l-.726-.606c-.86-.698-1.605-1.058-2.607-1.058-.56 0-1.07.163-1.567.453-.226.132-.437.28-.682.475l-.915.758c-.893.714-1.613 1.028-2.65 1.028a5.774 5.774 0 01-2.74-.647l-.327-.175-1.024-.61c-.576-.332-1.015-.503-1.57-.503-1.384 0-1.969.701-2.562 2.158l-.248.636-.116.278-.04.089-.085.026-.143.039-.184.038a8.088 8.088 0 01-.112.02l-.916.146-.205.036-.367.074c-.567.129-.935.29-1.351.6-.71.529-.97 1.051-1.103 2.053l-.045.4-.02.218-.066.947-.032.31-.036.244c-.037.214-.08.34-.124.395a1.143 1.143 0 01-.355.284l-.207.11-.274.13-.225.103c-1.17.526-1.804.938-2.338 1.771l-.16.268-.026.049c-.586 1.088-.671 1.778-.443 3.393l.077.513.168 1.027.056.387.029.244-.073-.128a21.142 21.142 0 00-.436-.722l-.268-.408-.921-1.357-.305-.46-.255-.4-.113-.187c-.625-1.049-.907-1.852-.907-2.652 0-.493.049-.864.154-1.276l.09-.324.117-.381c.061-.208.105-.379.14-.558a3.553 3.553 0 00-.145-1.909l-.343-.971-.109-.327c-.308-.94-.495-1.744-.551-2.475-.045-.583 0-1.081.135-1.487.199-.6.585-1.123 1.208-1.684l.227-.197.816-.644.647-.533.22-.19c.099-.09.18-.167.233-.225.516-.562.684-1.057.781-2.15l.034-.438.073-1.217.039-.478.037-.317c.104-.804.287-1.383.573-1.786.797-1.126 3.257-1.956 4.672-1.956h.82l.223-.006c1.27-.051 2.237-.36 2.97-1.234l.696-1.012.305-.427.298-.4.182-.23c.056-.068.11-.13.156-.18.82-.88 1.834-1.495 3.206-1.81 1.46-.336 2.667-.067 4.195.728z" fill="#353535" fill-rule="nonzero"/><path d="M275.838 365.879l2.264-2.391-.376-3.25-.515-5.667c-.079-.868-2.526 1.982-4.579.78" stroke="#353535" stroke-width="2.538" fill="#FFF" stroke-linejoin="round"/><path d="M275.688 369.99c.192 2.227.673 4.2-.336 6.605-1.206 2.02-6.236 2.914-12.257 2.997-4.737.066-10.706-.108-11.697-2.425-.815-2.324-.192-4.045.393-5.83.505 1.07 1.383 1.22 2.998 1.375h14.414c4.572-.173 6.058-1.254 6.485-2.723z" fill="#FFF"/><path d="M275.697 370.134l-.148-2.474c.938-3.435-.591-5.589-1.926-8.03-.945-3.015-1.09-6.518-7.279-7.1-3.17.225-5.647 1.56-6.277 5.86-2.32 3.14-5.165 7.694-8.534 13.663.27.22 23.903 2.196 24.164-1.92zM299.166 365.879l-2.264-2.391.376-3.25.527-5.797c.075-.825 2.514 2.112 4.567.91M299.317 369.99c-.193 2.227-.674 4.2.336 6.605 1.205 2.02 6.236 2.914 12.257 2.997 4.737.066 10.706-.108 11.696-2.425.816-2.324.193-4.045-.393-5.83-.505 1.07-1.382 1.22-2.998 1.375h-14.413c-4.573-.173-6.058-1.254-6.485-2.723z" fill="#FFF"/><path d="M299.307 370.134l.148-2.474c-.937-3.435.591-5.589 1.927-8.03.945-3.015 1.09-6.518 7.278-7.1 3.17.225 5.647 1.56 6.277 5.86 2.321 3.14 5.166 7.694 8.534 13.663-.269.22-23.903 2.196-24.164-1.92z" fill="#FFF"/><path d="M276.563 352.922c-.427-.064-.75.02-1.127.186l-.15.073-.438.234-.52.288c-.627.333-1.079.475-1.399.444a.664.664 0 01-.19-.046l-.09-.045-1.517 2.59c.472.276.98.437 1.51.488.787.076 1.514-.072 2.293-.398l.216-.096.343 3.771.296 2.553-1.783 1.884 2.179 2.062 2.263-2.39a1.5 1.5 0 00.411-1.058l-.01-.147-.372-3.212-.515-5.668c-.068-.741-.576-1.392-1.4-1.513zM277.192 369.86l.084.837.11 1.022.041.454.009.114c.14 1.84-.025 3.303-.691 4.889l-.095.188c-1.071 1.795-3.826 2.868-7.881 3.377l-.73.083-.755.073c-.256.022-.516.042-.781.06l-.807.05c-.273.015-.55.028-.832.04l-.857.028-.881.017-.853.01h-1.223l-.777-.007-.747-.015a59.154 59.154 0 01-.362-.01l-.703-.027-.674-.036-.325-.021-.63-.05-.305-.028-.588-.065-.559-.075c-2.91-.428-4.63-1.325-5.351-3.011-.757-2.149-.652-3.712.069-6.03l.278-.858c.408-1.242 2.078-1.39 2.715-.298l.09.17c.08.152.19.242.51.315l.218.041.278.04.547.061.136.013h14.343c.213-.007.418-.017.615-.029l.568-.04c2.538-.207 3.56-.738 3.835-1.49l.026-.081c.464-1.595 2.792-1.366 2.935.29zm-2.712 3.41l-.08.035c-1.26.532-2.951.823-5.13.906H254.8l-.144-.006-.265-.027a11.749 11.749 0 01-1.53-.245l-.229-.062-.025.126c-.179.977-.112 1.737.217 2.674.15.348.766.645 1.788.876l.377.079.41.073.218.034.46.065.24.03.507.056.537.05.567.043.597.037.626.031.654.024.682.018.709.01.736.004 1.152-.009.785-.016.77-.026.749-.035.365-.022.712-.05.687-.058.66-.068.633-.075.306-.041.591-.088.562-.095.531-.102.5-.11c1.614-.375 2.694-.86 3.09-1.404l-.046.112c.353-.84.501-1.629.503-2.586l-.002-.159z" fill="#353535" fill-rule="nonzero"/><path d="M266.218 351.035a1.5 1.5 0 01.246.002c5.047.474 6.907 2.39 8.13 6.608l.304 1.083.092.312.662 1.186.18.334c1.409 2.638 1.857 4.59 1.228 7.169l-.02.076.134 2.24v.184c-.134 2.107-2.233 3.176-6.146 3.656l-.617.07-.644.06-.674.052-.347.022-.715.04-.744.032-.772.024-1.21.024-.84.008-1.194.001-.989-.008-1.334-.024-1.002-.028-1.322-.048-1.289-.06-1.533-.09-1.14-.085-.792-.069-.728-.074-.658-.078-.394-.054-.356-.056-.316-.057-.273-.058c-.292-.07-.492-.141-.581-.214a1.5 1.5 0 01-.357-1.899l.695-1.225.68-1.184.666-1.145.65-1.103.636-1.064.621-1.023.606-.983.592-.943.577-.902.562-.863.548-.822.268-.396.525-.762.511-.721.28-.388.041-.224c.818-4.225 3.44-6.242 7.553-6.533zm.09 3.001l-.372.037c-2.638.309-3.968 1.55-4.405 4.534a1.5 1.5 0 01-.278.674l-.238.324c-.25.343-.506.703-.768 1.08l-.533.775-.273.404-.558.841-.574.886c-.098.151-.195.304-.294.46l-.6.95-.615.997-.633 1.04-.322.536-.657 1.106-.673 1.15-.57.985.758.06.763.053c2.639.178 5.497.288 8.134.291 3.257.004 5.998-.155 7.974-.497 1.04-.18 1.832-.405 2.324-.654l.103-.055c.063-.035.114-.068.16-.102l-.13-2.162a1.5 1.5 0 01.05-.484c.51-1.867.241-3.168-.896-5.295l-.899-1.62a1.5 1.5 0 01-.117-.278l-.203-.687-.254-.91-.14-.465c-.823-2.616-1.82-3.56-4.855-3.929l-.41-.045zM297.825 352.796c.41-.028.709.068 1.066.245l.15.08.923.543c.621.352 1.076.506 1.39.477a.604.604 0 00.176-.043l.084-.042 1.516 2.59c-.47.274-.975.433-1.5.482-.826.076-1.587-.098-2.399-.47l-.117-.056-.346 3.81-.296 2.552 1.783 1.884-2.178 2.062-2.264-2.39a1.5 1.5 0 01-.41-1.058l.01-.147.371-3.212.527-5.798c.071-.78.644-1.449 1.514-1.509zM297.822 369.86l-.065.666-.151 1.427-.028.334c-.139 1.84.026 3.303.692 4.889l.095.188c1.07 1.795 3.826 2.868 7.88 3.377l.73.083.755.073c.256.022.517.042.782.06l.807.05c.273.015.55.028.832.04l.857.028.88.017.854.01h1.222l.777-.007.747-.015.363-.01.702-.027.674-.036.326-.021.63-.05.305-.028.587-.065.56-.075c2.909-.428 4.63-1.325 5.35-3.011.758-2.149.652-3.712-.069-6.03l-.278-.858c-.407-1.242-2.077-1.39-2.715-.298l-.089.17c-.08.152-.19.242-.51.315l-.218.041-.278.04-.547.061-.136.013h-14.343c-3.414-.13-4.703-.7-5.018-1.559l-.027-.081c-.463-1.595-2.792-1.366-2.935.29zm2.712 3.41l.08.035c1.26.532 2.952.823 5.13.906h14.471l.144-.006.264-.027c.592-.063 1.096-.139 1.53-.245l.229-.062.025.126c.18.977.112 1.737-.216 2.674-.106.246-.445.466-.994.655l-.292.093a8.78 8.78 0 01-.503.128l-.377.079-.41.073-.218.034-.459.065-.49.059-.522.053-.552.046-.583.04-.61.035-.317.014-.654.024-.682.018-.71.01-.735.004-1.153-.009-.784-.016-.771-.026-.749-.035a49.896 49.896 0 01-.365-.022l-.712-.05-.686-.058-.66-.068-.634-.075-.605-.084-.292-.045-.561-.095-.532-.102-.5-.11c-1.614-.375-2.693-.86-3.089-1.404l.046.112c-.353-.84-.502-1.629-.503-2.586l.001-.159z" fill="#353535" fill-rule="nonzero"/><path d="M308.766 351.035a1.5 1.5 0 00-.246.002c-4.899.46-6.918 2.431-8.063 6.367l-.465 1.64-.66 1.182-.18.334c-1.409 2.638-1.857 4.59-1.228 7.169l.019.076-.133 2.24v.184c.134 2.107 2.233 3.176 6.146 3.656l.616.07.645.06.674.052.347.022.715.04.744.032.772.024 1.21.024.84.008.869.002c.432 0 .871-.004 1.314-.01l.666-.01 1.322-.03 1.298-.044 1.583-.07 1.212-.07 1.143-.079.54-.043.517-.045.49-.047.461-.049.634-.077.38-.053.343-.054.304-.057.263-.057c.282-.068.475-.138.562-.21a1.5 1.5 0 00.357-1.898l-.35-.617c-.23-.409-.46-.81-.687-1.205l-.673-1.165-.658-1.124-.643-1.083-.629-1.044-.613-1.003-.302-.486-.591-.943a127.55 127.55 0 00-.29-.456l-.57-.883-.555-.842-.54-.802-.525-.762a71.93 71.93 0 00-.258-.366l-.533-.742-.041-.225c-.818-4.225-3.44-6.242-7.553-6.533zm-.25 3.018l.16-.017.372.037c2.638.309 3.968 1.55 4.405 4.534a1.5 1.5 0 00.278.674l.237.324c.167.229.336.465.509.709l.524.753c.09.129.179.26.27.393l.549.82.566.863.29.448.59.93.302.48.616.997.633 1.04.648 1.084.666 1.127.681 1.172.227.394-.758.06-.763.053c-2.639.178-5.497.288-8.134.291-3.257.004-5.998-.155-7.974-.497-1.04-.18-1.832-.405-2.325-.654l-.102-.055a1.657 1.657 0 01-.16-.1l.13-2.164a1.5 1.5 0 00-.05-.484c-.51-1.867-.241-3.168.896-5.295l.335-.61.564-1.01a1.5 1.5 0 00.115-.27l.134-.446c.023-.079.047-.161.071-.249l.23-.827.092-.324c.8-2.75 1.839-3.817 5.177-4.181z" fill="#353535" fill-rule="nonzero"/><path d="M316.212 100.024l13.16 35.07a1.41 1.41 0 01-.073 1.155l-10.79 20.39c-.666 1.258-2.564.849-2.653-.572l-.775-12.326-1.598-43.17c-.059-1.598 2.167-2.045 2.73-.547zm10.297 35.467l-9.886-26.346 1.274 34.455.46 7.298 8.152-15.407zM293.424 56.16l-3 .006.014 8.655a1.5 1.5 0 001.076 1.437l.139.033 23.942 4.642.274.095c5.569 1.986 9.743 6.626 12.529 14.031l.176.476 2.715 7.834 1.89 5.521 1.472 4.368 1.059 3.18 2.847-.947-1.234-3.703-1.66-4.91-2.122-6.179-2.14-6.168c-3.082-8.502-7.939-13.994-14.558-16.341l-.384-.132-.189-.05-22.833-4.428-.013-7.42z" fill="#333" fill-rule="nonzero"/><path stroke="#333" stroke-width="3.102" stroke-linecap="round" stroke-linejoin="round" d="M249.162 101.426l-.16 18.332M249.128 101.797l-1.23 12.912"/><path d="M281.589 83.571a1.5 1.5 0 00-1.498 1.351l-.007.144-.031 9.686a1.5 1.5 0 002.993.154l.007-.144.031-9.686a1.5 1.5 0 00-1.495-1.505z" fill="#333" fill-rule="nonzero"/><path d="M292.41 62.915l-11.483 20c-.661 1.152.39 2.532 1.677 2.199l9.697-2.51.137-.043a1.5 1.5 0 00.943-1.771l-.524-2.106 3.204-1.016a1.5 1.5 0 001.036-1.247l1.418-11.556a1.5 1.5 0 00-1.047-1.617l-3.317-1.02a1.5 1.5 0 00-1.742.687zm2.004 2.532l.97.3-1.149 9.352-3.626 1.152-.13.047a1.5 1.5 0 00-.872 1.744l.504 2.03-4.807 1.243 9.11-15.868z" fill="#333" fill-rule="nonzero"/><path d="M271.333 62.989l10.03 20c.59 1.175-.51 2.485-1.769 2.11l-8.245-2.457-.132-.046a1.5 1.5 0 01-.896-1.749l.53-2.155-3.215-1.032a1.5 1.5 0 01-1.03-1.245l-1.419-11.538a1.5 1.5 0 011.043-1.615l3.316-1.033a1.5 1.5 0 011.787.76zm-2.11 2.483l-.905.281 1.15 9.344 3.63 1.166.13.048a1.5 1.5 0 01.868 1.738l-.52 2.125 3.551 1.058-7.905-15.76z" fill="#333" fill-rule="nonzero"/><path d="M272.578 55.25l-2.99.243.628 7.7-8.453 1.76-4.679.955-3.18.637-1.734.341-2.368.453-1.869.34c-5.484 1.028-9.415 5.697-11.909 13.9l-.24.819-.232.841c-.227.852-.44 1.739-.639 2.66l-.195.932-.185.954-.176.977-.168 1c-.081.506-.16 1.02-.234 1.542l-.145 1.057-.069.536-.13 1.09-.123 1.113-.114 1.135-.188 2.07 2.988.27.187-2.055.11-1.103.118-1.08.127-1.054.135-1.031.143-1.006.075-.495.156-.97c1.968-11.817 5.798-18.13 11.243-19.15l1.363-.246 2.571-.488 4.002-.791 6.46-1.318 5.554-1.154 3.708-.777a1.5 1.5 0 001.191-1.45l-.005-.14-.734-9.018zM290.403 165.518l.298 2.985-5.527.55-.298-2.984zM274.556 163.95l.493 7.967-2.994.186-.493-7.968z" fill="#333" fill-rule="nonzero"/><path fill="#333" fill-rule="nonzero" d="M284.238 162.694l2.999.09-.267 8.926-2.999-.09z"/><path fill="#333" fill-rule="nonzero" d="M285.476 171.398l.74 16.517-2.998.134-.739-16.517z"/><path d="M256.954 161.63c10.75 2.267 22.887 2.747 36.411 1.44" stroke="#353535" stroke-width="3.102" fill="#969696" stroke-linejoin="round"/><path d="M83.252 79.007l1.888 1.678 1.51 1.317.82.695.265.218c2.84 2.303 5.424 3.87 7.966 4.584.946.266 1.87.405 2.771.405 3.595 0 6.283-1.389 10.046-4.571l.837-.72 1.478-1.293.505-.435.46-.39.427-.354.41-.331.204-.16c2.059-1.614 3.656-4.572 4.85-8.895l.213-.801.103-.412.2-.847c.195-.86.377-1.767.546-2.72l.165-.966.08-.495.152-1.013c.099-.685.192-1.39.28-2.115l.065-.548-2.98-.346-.062.526-.13 1.028-.068.502-.142.98-.15.948-.155.918-.164.885-.17.854-.089.415-.18.806c-1.078 4.61-2.508 7.597-4.215 8.935l-.435.346-.672.553-.74.629-2.213 1.928c-3.457 2.975-5.653 4.159-8.456 4.159a7.257 7.257 0 01-1.959-.293c-2.066-.58-4.338-1.959-6.89-4.026l-.652-.546-1.342-1.16-2.435-2.159c-3.118-2.647-6.117-8.21-6.117-12.81 0-.82.096-1.632.289-2.438l.105-.402-2.889-.81a13.466 13.466 0 00-.505 3.65c0 5.556 3.429 11.917 7.175 15.097z" fill="#353535" fill-rule="nonzero"/><path d="M98.622 20.31c-7.24 0-13.2 4.8-13.2 10.865 0 1.365.305 2.695.89 3.937l.166.336 2.13-1.104c-.518-1-.786-2.07-.786-3.169 0-4.61 4.785-8.465 10.8-8.465 6.014 0 10.8 3.854 10.8 8.465 0 1.003-.224 1.98-.656 2.904l-.152.306 2.124 1.117a9.246 9.246 0 001.084-4.327c0-6.064-5.96-10.865-13.2-10.865z" fill="#333" fill-rule="nonzero"/><path d="M120.04 60.857l-.6 1.357-1.325-.666c-4.459-2.238-6.89-5.921-8.485-11.443-.107-.37-.21-.748-.315-1.147l-.21-.83-.35-1.473-.169.164c-2.082 1.977-4.682 3.288-8.705 4.608l-.853.274c-.291.091-.59.183-.896.275l-.94.278-1.743.495-2.31.65-.434.127c-6.488 1.903-10.338 3.927-13.455 7.724l-1.576 1.918-.845-2.334C71.206 45.303 78.95 31.037 97.9 30.246c19.83-.826 29.362 14.287 22.14 30.611zM98.019 33.07c-8.912.371-14.913 3.736-17.928 9.291l-.186.354C77.78 46.87 77.4 52.074 78.68 57.23l.094.361.237-.228c3.095-2.925 6.883-4.74 12.346-6.385l2.193-.633 2.29-.642.86-.25.82-.245.78-.242.744-.24.358-.12.69-.238.656-.24c3.732-1.399 5.814-2.872 7.592-5.327l1.766-2.439.803 3.135.174.708.66 2.817.205.83c.033.13.066.26.1.386l.196.732.1.35.125.423c1.181 3.897 2.796 6.587 5.412 8.394l.174.115.098-.265c5.03-13.742-3.161-25.625-20.136-24.917z" fill="#333" fill-rule="nonzero"/><path d="M76.306 59.677l2.143-1.215.466 12.036h-1.559c-3.328 0-5.06-2.709-5.06-6.52 0-1.919.868-2.836 2.704-3.688l.776-.347.288-.138c.088-.044.167-.086.242-.128zm-.67 3.655l-.053.037c-.244.174-.287.331-.287.61l.002.248c.021.893.156 1.602.393 2.127l.067.136-.122-3.158zM118.905 59.677l-2.143-1.215-.466 12.036h1.559c3.328 0 5.06-2.709 5.06-6.52 0-1.919-.868-2.836-2.704-3.688l-.776-.347-.288-.138a5.433 5.433 0 01-.242-.128zm.67 3.655l.053.037c.244.174.287.331.287.61l-.002.248c-.021.893-.156 1.602-.394 2.127l-.066.136.122-3.158zM103.955 72.934c.248.012.46.054.702.195.6.35.812 1.09.508 1.702l.023-.048c-.398.892-.956 1.631-1.945 2.572-1.347 1.282-3.155 2.076-4.843 2.076-2.09 0-3.566-.643-4.975-1.863l-.382-.342-.207-.192c-.886-.827-1.397-1.432-1.817-2.075-.376-.575-.272-1.387.383-1.803.258-.164.476-.207.74-.218.164-.008.347.003.579.029l.302.038.591.089 1.545.247.767.11.238.031c.752.096 1.38.146 1.89.146.53 0 1.19-.056 1.986-.161l.666-.095.752-.118 1.331-.215.39-.055c.326-.041.566-.06.776-.05zm-2.811 2.936l.052-.044-.366.055-.454.063c-.903.12-1.663.184-2.323.184-.54 0-1.15-.043-1.848-.122l-.61-.077-.275-.038.132.104c.848.635 1.705.936 2.948.936.879 0 1.9-.397 2.744-1.061zM101.082 63.149l-2.714-1.277-3.193 6.785 4.058 1.656 1.134-2.778-1.13-.462z" fill="#333" fill-rule="nonzero"/><path d="M110.126 380.554c1.04 2.02 1.78 4.373 2.22 7.059.662 4.028.518 7.814-1.11 9.441-1.628 1.627-3.77 2.248-6.547 2.248-2.777 0-6.674-1.788-7.638-2.968-.964-1.18-1.305-3.398-1.305-4.592 0-1.194.712-9.552.712-11.727 0-2.176-1.552-9.116-1.552-11.399 0-1.521.393-3.131 1.18-4.83M27.597 386.86c-1.54 2.556-2.548 4.257-3.023 5.106-.712 1.273-.718 2.368-.718 3.11 0 .74.26 4.002 6.102 4.002 5.843 0 9.56-2.258 11.366-3.405 1.805-1.147 3.737-3.331 3.737-6.337s-.155-7.743.33-9.68c.486-1.936 1.824-5.163 2.855-6.773 1.031-1.61 1.683-4.364 1.683-5.645 0-.854-.222-2.228-.666-4.123" fill="#C8EEFF"/><path d="M108.855 364.226v9.581c0 3.445 1.312 6.695 1.828 9.346.516 2.65 0 4.454 0 5.289s-1.906 1.975-4.834 1.975c-2.927 0-8.093-1.54-8.576-3.26-.483-1.722 0-5.513 0-8.76 0-3.249-1.186-7.306-1.186-9.271 0-1.31.223-3.143.67-5.498M35.377 360.264a47.06 47.06 0 01-1.583 8.714c-1.217 4.361-3.158 10.155-3.986 12.566-.828 2.41-1.467 4.148-2.21 5.317.773 1.201 1.964 2.474 4.872 2.474 2.907 0 4.897.055 7.089-.88s3.78-1.665 3.78-3.34c0-1.675-.002-5.87.664-8.092.666-2.223 1.722-4.327 2.662-6.186.939-1.859 1.358-3.186 1.358-4.28v-3.088" fill="#FFF"/><path d="M94.718 363.155c-.874 1.887-1.32 3.71-1.32 5.461l.003.227.01.24.025.391.042.439.081.678.115.81.15.97.784 4.732.126.818.113.818.047.397.032.34.018.289.006.25-.005.353-.039.986-.078 1.38-.14 2.134-.432 6.22-.017.394v.26c0 1.911.555 4.21 1.643 5.541 1.38 1.69 5.817 3.52 8.8 3.52 3.273 0 5.73-.812 7.607-2.688 1.964-1.963 2.334-5.857 1.53-10.745-.432-2.631-1.141-4.977-2.133-7.033l-.233-.469-2.668 1.372c.964 1.875 1.657 4.079 2.074 6.616.657 3.997.364 7.083-.69 8.137-1.25 1.249-2.947 1.81-5.488 1.81-2.131 0-5.705-1.474-6.476-2.418-.528-.646-.916-2.154-.962-3.398v-.548l.12-1.858.422-6.07.092-1.522.055-1.154.016-.582v-.442l-.013-.322-.026-.355-.056-.543-.06-.475-.107-.745-.269-1.69-.62-3.73-.112-.712-.118-.806-.085-.661-.055-.537-.022-.334-.007-.285c0-1.183.287-2.457.875-3.824l.167-.375-2.722-1.262zM50.724 362.773l-2.921.683.147.648.127.599.108.55.046.256.078.475.059.423c.04.332.06.61.06.831 0 1.206-.673 3.63-1.445 4.836-1.1 1.718-2.511 5.085-3.046 7.218-.11.44-.194.972-.255 1.613l-.042.502-.034.545-.014.289-.023.613-.016.66-.01.71-.005.762.022 4.053v.297c0 2.078-1.221 3.915-3.04 5.071-3.246 2.062-6.2 3.171-10.562 3.171-2.195 0-3.472-.479-4.114-1.211a1.917 1.917 0 01-.488-1.292c0-.95.083-1.512.427-2.189l.164-.301.51-.884 1.173-1.982 1.252-2.083-2.57-1.55-1.855 3.099-.891 1.52-.301.529c-.732 1.308-.91 2.338-.91 3.841 0 1.088.323 2.23 1.232 3.268 1.266 1.445 3.372 2.235 6.371 2.235 5.028 0 8.487-1.298 12.17-3.639 2.536-1.61 4.315-4.215 4.427-7.294l.006-.31-.023-3.61.004-1.431.01-.676.016-.625.02-.575.028-.524.033-.473.019-.219.043-.399.049-.35c.026-.162.055-.306.087-.431.434-1.732 1.61-4.576 2.515-6.09l.148-.24c1.089-1.701 1.919-4.688 1.919-6.454 0-.624-.093-1.431-.277-2.437l-.12-.627-.143-.676-.165-.725z" fill="#353535" fill-rule="nonzero"/><path d="M98.225 363.908l-2.947-.56-.163.89a57.6 57.6 0 00-.074.428l-.13.817c-.2 1.322-.31 2.443-.327 3.37v.59l.015.364.04.409.04.298.126.796.503 2.868.137.83.11.747c.14 1.014.212 1.881.212 2.641l-.001.3-.011.635-.022.698-.13 2.926-.032.828-.014.49-.01.654.002.387.008.354.015.324.022.3.014.141.034.27.041.255.05.245.058.24c.01.04.02.079.032.119.693 2.469 6.093 4.355 10.02 4.355 3.292 0 6.182-1.297 6.329-3.315l.01-.254.03-.3.07-.585c.188-1.608.188-2.95-.132-4.597l-.05-.25-.116-.522-.066-.278-.231-.905-.372-1.383a51.14 51.14 0 01-.477-1.902l-.143-.665c-.216-1.07-.325-1.968-.343-2.88l-.003-.274v-9.58h-3v9.58c0 1.652.227 3.143.732 5.194l.216.852.565 2.114.138.546.113.486c.034.153.065.3.092.44.225 1.154.25 2.112.143 3.242l-.063.578-.073.616-.02.237-.043.032a2.378 2.378 0 01-.295.176l-.125.061c-.714.33-1.729.536-2.885.536-.872 0-1.908-.156-2.917-.39l-.501-.124-.492-.134-.24-.07-.467-.147a18.14 18.14 0 01-.225-.076l-.43-.153c-1.038-.388-1.783-.797-1.86-1.072l-.041-.162-.034-.178-.029-.198-.022-.22-.017-.247-.011-.276-.006-.476.005-.562.026-.9.045-1.1.088-1.901.028-.775.017-.704c.004-.226.006-.443.006-.656 0-.914-.083-1.91-.24-3.049l-.117-.795-.143-.873-.512-2.926-.093-.588-.059-.486-.017-.252-.005-.301c0-.45.03-.977.09-1.58l.07-.628c.08-.653.191-1.38.333-2.183l.15-.827zM34.163 360.138a45.561 45.561 0 01-1.533 8.437c-.163.587-.343 1.21-.536 1.862l-.402 1.337-.43 1.393-.452 1.432-.468 1.454-.477 1.457-.48 1.444-.478 1.413-.46 1.336-.402 1.132-.268.72-.244.624-.153.369-.147.334-.141.303-.139.276a9.076 9.076 0 01-.068.13l-.136.241-.136.223-.516.81.52.808c1.276 1.98 2.99 3.082 5.815 3.158l.319.004 1.524-.003.639-.007.576-.014.523-.02.478-.029.441-.037c.213-.021.416-.046.612-.075l.387-.065.19-.036.378-.084c.063-.015.127-.03.19-.047l.39-.105c.456-.13.903-.288 1.35-.478l.59-.256c.19-.084.371-.166.545-.247l.5-.24c2.154-1.07 2.995-2 3.053-3.776l.003-.2.006-1.321.012-.795c.002-.127.005-.252.009-.376l.026-.728c.005-.12.01-.24.017-.359l.043-.725c.097-1.441.26-2.6.488-3.359l.072-.234.149-.462.16-.458.173-.461.189-.473.208-.491.23-.517.255-.55.435-.904.329-.665.364-.725c.973-1.926 1.46-3.396 1.515-4.71l.005-.246v-3.088h-3v3.088c0 .767-.316 1.808-1.055 3.315l-.706 1.414-.486.999-.286.608-.26.573-.235.544a28.74 28.74 0 00-.11.264l-.206.518c-.131.341-.252.677-.366 1.018l-.167.518-.08.264c-.307 1.02-.497 2.371-.608 4.017l-.043.701-.031.69-.022.701-.014.735-.01 1.217v.462c0 .26-.115.487-.473.754l-.182.127a4.569 4.569 0 01-.105.066l-.239.14-.28.148-.157.078-.347.167-.396.18-.446.196-.243.105c-.33.14-.658.256-.993.351l-.29.078a9.184 9.184 0 01-.143.035l-.288.063a8.46 8.46 0 01-.147.028l-.3.05-.319.04-.341.034-.37.027-.408.02-.449.015-.498.01-.554.006-1.401.002c-1.491 0-2.357-.325-3.042-1.046l-.04-.045.074-.149.179-.376.182-.408.092-.218.19-.467.2-.512.21-.563.34-.95.372-1.07.48-1.408.486-1.447.485-1.47.479-1.475.466-1.463.448-1.434.422-1.387.2-.67.374-1.286.172-.61c.76-2.724 1.28-5.45 1.557-8.174l.076-.817-2.99-.252z" fill="#353535" fill-rule="nonzero"/><path d="M129.417 191.328c1.387 7.569 1.91 14.62 1.566 21.154-.642 12.214-7.083 61.3-9.873 82.383-1.86 14.055-4.675 36.58-8.445 67.576-3.549 1.752-6.455 2.627-8.717 2.627-2.262 0-5.048-.555-8.357-1.667.777-16.487 1.165-29.17 1.165-38.051 0-13.32 1.209-52.683 1.209-65.763 0-8.72.238-18.437.716-29.152-1.423-6.157-2.453-9.236-3.09-9.236-.956 0-6.49 19.25-11.466 35.594-3.317 10.896-14.51 46.112-33.58 105.648l-11.061.96-5.001-4.344 21.606-106.484 7.703-58.887" fill="#969696"/><path d="M88.38 237.964l-5.036 16.713-1.066 3.495-1.64 5.278-2.914 9.272-8.607 27.125-14.373 45.008-5.18 16.177-9.432.82-3.86-3.354 21.43-105.626.018-.104 7.703-58.887-2.974-.39-7.696 58.833-21.77 107.292 6.14 5.335 12.69-1.102 14.472-45.247 10.153-31.878 5.3-16.756 2.272-7.252 1.137-3.667 1.425-4.68 4.853-16.106 1.113-3.641.83-2.677.676-2.143.55-1.706.612-1.84.43-1.242.136-.382.205.687.27.956.187.702.195.754.305 1.227.384 1.616-.114 2.641-.113 2.867-.052 1.415-.096 2.793-.083 2.742-.072 2.693-.031 1.328-.054 2.618-.041 2.568-.017 1.265-.023 2.493-.036 7.534-.08 5.47-.215 10.641-.702 31.619-.136 7.698-.04 3.38-.012 2.448-.004 2.093-.017 2.168-.03 2.297-.043 2.428-.056 2.558-.09 3.38-.109 3.585-.159 4.57-.189 4.862-.219 5.155-.205 4.52-.097 2.06 1.074.36c3.451 1.16 6.39 1.745 8.835 1.745 2.427 0 5.385-.86 8.917-2.556l.464-.226.727-.359 2.91-23.79 2.032-16.395 1.829-14.512 1.252-9.721 2.298-17.468 1.916-14.765 1.199-9.396 1.2-9.594.955-7.833.657-5.543.578-5.043.364-3.286.26-2.434.286-2.794.197-2.033.205-2.282.13-1.614.08-1.085.06-.977.017-.301c.334-6.367-.136-13.201-1.41-20.504l-.179-.999-2.95.54c1.307 7.134 1.834 13.79 1.582 19.966l-.056 1.137-.06.966-.078 1.076-.13 1.603-.16 1.792-.295 3.036-.232 2.25-.4 3.706-.46 4.094-.612 5.25-.794 6.602-.773 6.283-.97 7.735-1.058 8.3-1.895 14.62-2.794 21.278-1.913 15.013-2.64 21.209-2.928 23.93-.101.049c-2.844 1.328-5.18 2.012-6.974 2.071l-.253.004c-1.733 0-3.85-.364-6.34-1.102l-.464-.14.312-7.033.208-5.121.15-4.035.127-3.823.106-3.61.085-3.4.062-3.188.041-2.975.017-2.229.022-5 .085-6.106.334-16.047.621-28.133.09-5.155.058-5.596.004-2.428.01-2.314.022-2.359.033-2.405.043-2.45.026-1.241.06-2.518.07-2.563.08-2.609.093-2.654.102-2.699.056-1.366.128-2.972-.414-1.772-.342-1.42-.242-.968-.156-.602-.152-.566-.222-.787-.144-.484-.142-.451-.21-.62-.14-.375-.138-.345c-.023-.056-.046-.11-.07-.163l-.138-.303a7.66 7.66 0 00-.07-.142l-.14-.262c-.544-.957-1.125-1.338-1.878-1.338l-.202.005-.128.01-.061.008-.12.02-.116.03a1.331 1.331 0 00-.056.019l-.11.044-.108.055a1.28 1.28 0 00-.053.033l-.104.075a1.557 1.557 0 00-.103.089l-.101.104a2.16 2.16 0 00-.051.058l-.102.13a3.057 3.057 0 00-.051.07l-.103.158-.105.177-.107.198-.109.22-.112.243-.177.411-.187.47-.269.724-.295.845-.415 1.239-1.015 3.155-1.002 3.182-1.003 3.247-.99 3.246z" fill="#353535" fill-rule="nonzero"/><path stroke="#353535" stroke-width="3" fill="#C8EEFF" stroke-linejoin="round" d="M119.635 143.01l.917-12 1 12"/><path fill="#FFF6DB" d="M105.363 163.879l8.509-18.99-37.305-16.078-20.464 46.244 36.173 18.03 5.436-12.13"/><path stroke="#353535" stroke-width="3" d="M69.709 145.911l7.32-15.68 37.625 15.957-17.005 35.638-5.373 11.26-36.173-18.031 6.057-12.975"/><path d="M83.25 162.726c3.13 1.29 5.278 2.027 6.444 2.212 1.75.277 5.239-.029 6.326-.759 1.088-.73 5.094-2.116 6.817-1.261 1.724.854 3.959 1.475 4.62 2.155.662.68 1.026 2.875 1.465 3.684.44.808.114 1.5.076 1.736-.037.236-1.392-.206-1.44.1-.05.308-.084 2.025-.409 2.576-.325.55-1.386.391-1.457.845-.072.454-.147 1.97-.643 2.452-.497.481-1.27.103-1.656.634-.385.53-.4 1.994-.845 2.23-.446.236-1.396-.174-1.699.18-.303.353-.595 1.383-1.3 1.567-.704.185-4.171-.322-6.653-1.995-2.482-1.673-5.839-4.271-7.38-5.112-1.54-.841-3.49-1.9-6.438-2.863" fill="#FFF"/><path d="M139.115 188.806c.226 2.372.75 4.505 1.57 6.397 1.232 2.84 2.367 4.456 2.367 6.251v8.611c0 1.461.08 2.45-2.367 3.87-2.446 1.42-5.659 3.152-6.911 3.777-1.252.624-2.894.736-3.162.368-.267-.368-.418-1.688.875-2.917.862-.819 3.01-2.439 6.442-4.86v-6.334h-3.616c-.188 3.452-.282 5.484-.282 6.096 0 .92-.185 3.055-1.566 3.325-1.38.27-1.615-1.474-1.615-2.635 0-1.161-.57-6.39-.57-7.46 0-.714.402-5.277 1.207-13.69" stroke="#353535" stroke-width="3" fill="#FFF" stroke-linejoin="round"/><circle fill="#333" transform="matrix(-1 0 0 1 181.104 0)" cx="90.552" cy="59.681" r="2.5"/><circle fill="#333" transform="matrix(-1 0 0 1 211.104 0)" cx="105.552" cy="59.681" r="2.5"/><path d="M81.013 94.95c-12.005-.758-17.77 4.733-20.233 18.44L54.2 151.533c5.842 10.572 16.167 15.15 25.653 20.85l4.342-10.842L67.88 145.5l8.631-17.304 38.269 16.637-9.229 19.06 2.5 5.618-2.5 3v2.998l-2.5 2.012-2.705 2.139-1.618 3.511-2.271 3.663-4.406 6.009-28.327-13.55-4.199 13.55c21.932 7.666 49.662 13.476 70.753-3.284l10.888-1.46c-6.872-12.394-2.025-82.636-10.082-89.182-3.116-1.885-8.173-3.005-15.172-3.359l-17.923 9.635c-7.16-3.163-12.82-6.577-16.977-10.242z" fill="#C8EEFF"/><path d="M110.223 170.648l.023-.075c.22-.815.24-1.56-.137-2.385l-.177-.352-.034-.086-.115-.35-.293-.95c-.399-1.3-.678-1.972-1.212-2.521-.328-.338-.725-.597-1.326-.883l-.386-.176-.214-.092-1.938-.784-.515-.218c-.239-.104-.452-.203-.65-.3-2.042-1.014-6.354.04-8.319 1.359-.65.436-3.709.768-5.256.523l-.263-.05a7.599 7.599 0 01-.147-.032l-.324-.08-.363-.102-.403-.123-.216-.069-.462-.154-.5-.175-.539-.196-.576-.216-.936-.363-.67-.269-.707-.288-1.144 2.773.788.322 1.104.438.685.262.643.24.307.11.582.203.543.18.504.157.464.134c.445.122.831.209 1.161.26 2.144.34 5.732-.028 7.238-.896l.159-.098c1.164-.781 4.46-1.588 5.314-1.163.32.158.662.313 1.053.479l.496.205 1.288.515.515.217.397.18.199.098.145.08c.06.035.099.063.118.083.01.01.023.03.038.058l.054.112.07.165.081.216.145.42.423 1.366.109.319c.018.05.035.098.053.144l.042.102c-.063.013-.12.028-.177.046l-.175.064c-.484.206-.874.63-.969 1.228l-.02.163-.063.816-.03.316-.03.261-.041.276-.095.027c-.28.08-.478.151-.702.285-.453.269-.793.697-.884 1.277l-.103.834-.042.277a6.148 6.148 0 01-.022.127l-.027.13-.03.129-.129.015a2.838 2.838 0 00-.438.084l-.147.045a2.193 2.193 0 00-1.092.797c-.253.347-.374.648-.51 1.182l-.11.465a3.107 3.107 0 00-.348-.005l-.117.007c-.526.041-1.005.223-1.385.666a2.949 2.949 0 00-.327.477l-.308.556-.049.078-.02.001c-.828.022-3.444-.661-5.08-1.682l-.192-.125-.723-.495-.839-.59-3.44-2.467-.761-.534-.697-.472-.376-.24-.337-.203-.326-.183-.973-.525c-1.865-.986-3.29-1.626-5.224-2.283l-.495-.165-.932 2.852a29.502 29.502 0 014.845 2.037l.874.463.606.33.451.272.361.234.563.384.734.515 3.628 2.599 1.017.71.367.249c2.401 1.619 6.36 2.598 7.872 2.203.746-.195 1.226-.641 1.644-1.299l.136-.225.064-.113.046.004c.551.042.88.02 1.29-.17l.14-.07c.529-.28.797-.695.994-1.24l.07-.207.062-.223.181-.755.098-.012c.506-.075.904-.216 1.293-.544l.146-.132c.5-.485.734-1.113.896-1.962l.032-.178.066-.438.138-.047c.465-.172.82-.406 1.11-.822l.105-.164c.241-.408.365-.887.454-1.532l.042-.338c.1-.006.198-.018.299-.04l.155-.042c.481-.153.905-.51 1.055-1.089l.032-.144zM127.27 180.439l.99 12.357-2.99.24-.991-12.357zM119.183 117.13c-.153-1.912 2.618-2.227 2.964-.434l.022.15 1.905 17.259-2.982.329-.017-.146-.513.042-1.379-17.2z" fill="#353535" fill-rule="nonzero"/><path fill="#353535" fill-rule="nonzero" d="M129.204 180.603l1.028 9.323-2.981.329-1.029-9.323z"/><path d="M108.652 82.254l1.823 10.542.59.01.684.014 1.401.041c3.31.116 6.845.366 9.486.734l.522.076c8.08 1.23 13.482 6.197 13.481 13.714l.78 29.057-2.999.072-.78-29.087c0-5.906-4.196-9.765-10.933-10.79-1.547-.236-3.504-.427-5.569-.568l-1.25-.078c-.628-.036-1.26-.068-1.89-.095l-1.249-.047-.616-.018-1.206-.027a99.238 99.238 0 00-1.715-.016 1.5 1.5 0 01-1.45-1.112l-.028-.132-2.038-11.778 2.956-.512z" fill="#333" fill-rule="nonzero"/><path d="M140.368 182.535c.17 1.194.436 3.048.8 5.563l-11.231 2.093c-21.224 18.089-51.346 10.434-70.41 2.443l4.11-13.625 28.665 14.144 5.651-12.148c1.764-1.13 2.983-2.118 3.659-2.966.714-.897 2.746-1.123 3.328-2.457.363-.832 1.532-2.107 1.971-3.284.303-.81.667-1.89 1.093-3.239.246-.78-2.941-4.967-2.018-5.628.082-.06 3.014-6.259 8.795-18.599" stroke="#333" stroke-width="3" stroke-linejoin="round"/><path d="M88.447 82.254l-1.823 10.542-.59.01-1.38.032c-3.505.103-7.362.363-10.191.757l-.522.076c-6.617 1.007-11.876 6.735-13.374 13.112l-.057.253-.098.345-.223.881-.237 1.003-.4 1.763-.464 2.12-.515 2.405-.793 3.793-.819 4.032-.655 3.32-.58 3.018-.523 2.797-.385 2.115-.438 2.489-.316 1.866-.284 1.755-.252 1.643-.219 1.531-.142 1.074-.122 1.01-.072.638-.09.904-.07.838-.05.775-.023.48-.013.451-.004.423.006.393.006.186.02.35.013.163.034.306c.058.436.149.774.273 1.012 3.7 7.068 11.713 13.22 21.432 18.435l1.151.609c.966.504 1.947.999 2.94 1.485l2.046.989 5.31-13.261-16.391-16.12 8.426-29.712-2.886-.819-8.913 31.425 16.238 15.964-3.37 8.413-.284-.14c-.38-.192-.76-.384-1.135-.578l-1.123-.587-1.107-.595c-8.8-4.797-16.1-10.413-19.47-16.517l-.206-.382a1.006 1.006 0 01-.077-.34l-.014-.208a5.49 5.49 0 01-.004-.118v-.267l.008-.304.028-.524.03-.394.037-.426.07-.7.119-1.038.187-1.455.178-1.277.31-2.08.418-2.642.47-2.821.51-2.95.463-2.59.832-4.498.708-3.692.525-2.666.429-2.121.575-2.77.386-1.801.43-1.931.325-1.39.234-.949.16-.61.143-.517.087-.29.08-.245.046-.17c1.149-5.37 5.576-10.283 10.966-11.104 1.701-.259 3.9-.464 6.191-.608l1.257-.072 1.26-.06c.42-.017.837-.033 1.25-.047l1.224-.034 1.184-.02.572-.005 1.82-.002 2.253-13.022-2.956-.512z" fill="#333" fill-rule="nonzero"/><path d="M114.976 93.087l1.616 2.528-18.776 12a1.5 1.5 0 01-1.538.046l-.127-.08-17.225-12 1.715-2.46 16.403 11.426 17.932-11.46z" fill="#333" fill-rule="nonzero"/><path fill="#FFF" d="M201.073 389.145l.056 9.378v10.987h14.923l-5.762-10.987v-9.264M194.218 389.145l-.055 9.378v10.987H179.24L185 398.523v-9.264"/><path d="M178.35 410.32c-3.113 5.802 3.16 9.402 6.704 9.682 4.55-.061 7.461.866 9.592-9.861l-16.295.179z" fill="#C8EEFF"/><path d="M166.476 248.164l8.383 7.426c4.402-22.378 6.564-43.84 10.787-64.88l9 1.196c-.656 2.951-.228 4.69 1.284 5.218 4.926 1.72 14.251.687 14.454 1.317 7.631 23.682 10.22 41.684 13.03 55.602l9.109-11.972c-3.965 31.35-11.376 80.413-22.233 147.188l-10.038-.348 1.5-145.027h-2.33l-5.204 145.69-11.023-.839c-10.693-59.188-8.56-107.852-16.72-140.571z" fill="#CECECE"/><path d="M188.652 98.37c1.41 4.758-.284 11.251-4.333 16.79-4.049 5.54-1.188 18.485-.828 27.022l5.161 2.435 3.035 22.742 10.458 3.161 17.496-3.161 2.398-53.273c-2.894-9.824-5.359-12.408-6.592-15.716-9.782 5.423-18.716 5.44-26.795 0z" fill="#E3E3E3"/><path fill="#CECECE" d="M191.687 168.777l2.531 10.137 15.12 1.382 7.596-4.945 2.707-.269v-8.781l-16.531 4.22z"/><path d="M171.223 97.666l-11.28 5.819-7.184 34.796 31.216 4.812.551-30.316c-2.019-3.793-4.085-6.89-6.2-9.292-2.114-2.402-4.482-4.342-7.103-5.82zM155.842 191.735c-2.888 35.823 4.93 54.776 19.017 63.855l10.18-65.335-9.6-2.162-4.216 2.965-8.471.27-6.91.407z" fill="#FFD3FB"/><path d="M186.521 190.185l-2.965-.452-9.61 63.387-.155-.099c-10.087-6.694-15.07-17.75-16.45-32.938l-.052-.602-.079-.984-.035-.49-.064-.98-.054-.978c-.009-.163-.017-.326-.024-.49l-.04-.985-.033-.993-.012-.5-.018-1.013-.01-1.029-.001-1.049.014-1.619.02-1.114.028-1.146.035-1.182.044-1.22.08-1.911.132-2.714.404-7.342.031-.63-2.996-.145-.125 2.389-.273 4.868-.074 1.428-.098 2.045-.08 1.94-.045 1.238-.051 1.788-.013.579-.02 1.134-.011 1.105-.003 1.08.006 1.06c.001.175.003.349.006.522l.019 1.034.028 1.02.037 1.011.047 1.005.056 1.002.065 1.004.037.503.08 1.01c1.445 17.193 7.306 29.693 19.63 36.91l.437.252 2.07 1.176.17-2.397.338-2.351 2.889-19.175 6.688-43.962zm-3.42-77.61c-.992 7.298-1.342 15.091-1.213 24.71l.032 1.949.045 2 .026.99 3-.083-.05-1.944-.037-1.894a311.6 311.6 0 01-.014-.929l-.02-1.824c-.014-1.801-.01-3.537.015-5.215l.03-1.66.043-1.626c.034-1.072.076-2.121.128-3.151l.084-1.531a126.6 126.6 0 01.811-8.693l.092-.695-2.972-.404zM173.279 98.8l-1.068-2.803-.957.367-1.367.535-1.285.517-.812.334-.777.326-.74.318-.706.31-.67.303-.634.294-.304.145-.581.284-.547.276c-.176.09-.347.18-.511.268l-.477.262-.443.254c-.283.167-.543.33-.78.487l-.34.233-.304.227a4.652 4.652 0 00-.927.925l-.185.253a8.446 8.446 0 00-.276.422l-.183.31-.091.164-.181.345-.18.368-.18.391-.179.414-.178.438-.176.46-.177.485-.175.508-.175.53-.174.555-.26.876-.172.614-.171.637-.171.66-.256 1.037-.17.72-.253 1.126-.253 1.18-.252 1.233-.25 1.288-.167.89-.333 1.85-.332 1.948-.165 1.011-.248 1.562-.33 2.17-.33 2.268-.33 2.367-.247 1.84-.248 1.897-.33 2.617 2.977.37.237-1.886.317-2.436.238-1.766.318-2.276.318-2.183.238-1.578.318-2.021.317-1.93.237-1.385.237-1.332.315-1.695.157-.812.235-1.173.234-1.12.233-1.066.232-1.013.23-.958.23-.904.153-.573.152-.549.15-.524.151-.5.225-.704.148-.44.148-.414.074-.198.147-.378.146-.353.145-.328.144-.304.143-.279.142-.254c.236-.402.469-.702.696-.896.138-.117.3-.241.49-.372l.3-.201.34-.212.185-.109.396-.226.435-.236.472-.245.509-.255.547-.265.584-.273.62-.284 1.002-.441.713-.306 1.139-.475.804-.328 1.275-.508 1.357-.527.458-.175z" fill="#333" fill-rule="nonzero"/><path d="M245.232 173.192c4.438 34.518-3.031 61.468-22.408 80.851l-10.7-55.502c11.722-8.345 22.757-16.795 33.108-25.35zm-33.125 6.924l2.142-88.842c16.513 3.431 26.374 7.372 29.58 11.823 3.208 4.452 7.616 24.03 13.223 58.736l-15.334-.777-20.426 20.517-9.185-1.457z" fill="#FFD3FB"/><path d="M246.234 170.303l.347 2.697c4.449 34.602-2.954 61.818-22.247 81.51l-.589.594-1.998 1.999-11.417-59.224.785-.56c11.005-7.834 21.403-15.76 31.194-23.779l1.828-1.504 2.097-1.733zm-2.304 5.785l-1.573 1.283c-8.68 7.044-17.825 14.015-27.435 20.915l-1.282.915 9.97 51.72.24-.257c16.655-18.07 23.404-42.465 20.218-73.298l-.1-.936-.038-.342zm-33.493 5.303l2.217-91.951 2.433.506 1.322.283 1.928.429 1.25.289 1.22.29 1.192.294 1.163.296 1.134.299 1.106.3.542.152 1.062.305 1.034.308 1.005.31.491.156.962.314.934.317.904.32.442.161.862.324c.282.108.56.217.833.327l.805.33c4.742 1.987 7.946 4.133 9.63 6.47.102.143.206.298.31.467l.21.356.212.391c.107.205.214.423.323.654l.218.48.11.254.222.534.224.57.227.606.23.642.115.334.233.696.236.731.238.768.24.803.244.84.246.875.248.912.251.948.381 1.49.258 1.038.26 1.075.263 1.111.266 1.148.403 1.789.41 1.871.416 1.954.28 1.348.426 2.09.288 1.44.583 2.99.595 3.135.454 2.45.46 2.53.781 4.405.478 2.753.647 3.8.66 3.95.84 5.146.296 1.831-16.52-.838-20.494 20.587-11.24-1.783zm5.129-88.275l-2.067 85.723 7.133 1.131 20.356-20.446 14.147.717-.983-5.952-.773-4.555-.606-3.493-.448-2.532-.733-4.053-.432-2.33-.425-2.255-.558-2.888-.41-2.078-.539-2.651-.265-1.275-.392-1.848-.385-1.773-.254-1.139-.375-1.644-.368-1.568-.242-1.002-.357-1.44-.35-1.362-.23-.865-.228-.831-.224-.797-.221-.762-.218-.728-.215-.694-.212-.659-.21-.624-.205-.59-.203-.555a34.21 34.21 0 00-.1-.265l-.198-.504-.098-.238-.194-.452a18.125 18.125 0 00-.19-.416l-.187-.382-.093-.178-.182-.33a7.745 7.745 0 00-.18-.295l-.088-.134-.09-.13c-1.156-1.604-3.373-3.178-6.64-4.703l-.692-.315c-.235-.105-.476-.21-.72-.313l-.752-.312a56.673 56.673 0 00-.78-.31l-.811-.31-.84-.307-.871-.306-.9-.304-.93-.302-.476-.15-.975-.3-1.004-.299-1.034-.296-1.064-.294-1.093-.293-1.123-.29-1.152-.289-.588-.143-1.197-.286-1.226-.283-1.256-.281-.784-.172z" fill="#333" fill-rule="nonzero"/><path fill="#333" fill-rule="nonzero" d="M191.934 167.028l-.493 2.96 10.776 1.795 10.328-1.72-.493-2.96-9.834 1.638zM232.487 240.37l-22.43 147.011h-8.277l1.524-142.71-.253-.384c-.737-1.115-1.417-1.762-2.441-1.887-1.256-.152-2.206.618-2.992 2.044l-.111.208-.158.304-4.16 142.385-8.514.003-16.71-139.359-2.978.357 17.027 142.005 14.087-.007 4.17-142.634-1.523 142.676h13.886l22.819-149.56-2.966-.452z"/><g transform="translate(169.252 24.51)"><path d="M8.035 27.785l-.138.158c-4.479 5.218-4.645 10.947-.72 16.833l.22.325-.247.195c-.39.311-.765.623-1.123.935l-.525.469c-5.808 5.319-6.833 10.835-2.007 16.757l.263.316-.139.39c-.24.678-.455 1.322-.645 1.935l-.216.72c-1.601 5.524-1.018 8.36 1.646 11.007l.262.252.556.504 1.77 1.576.076.07c1.027.95 1.868 1.859 2.674 2.94 1.388 1.86 2.58 4.132 3.601 7.04l.612 1.745 1.581-.959c6.28-3.809 7.802-7.39 6.381-12.201l-.155-.498-.257-.748-.619-1.694-.086-.246c-1.373-3.99-.924-6.386 3.107-9.662l.28-.225.087.05c2.435 1.32 5.35 1.973 8.726 1.973l.418-.005c3.208-.08 6.442-1.085 9.693-2.992l.136-.081 1.245 3.085 10.096 2.537.419-.142.333-.116c7.582-2.695 10.056-7.9 8.311-16.693l-.104-.503.163-.237c4.84-7.227 4.682-20.295-1.504-25.875l.07.606C58.61-8.456 11.601-8.394 8.084 27.215l-.049.57zm51.257-.153l.064.627.493.393c5.496 4.382 5.545 16.926.9 22.924l-.435.563.246 1.072c1.717 7.74.084 11.641-5.922 13.88l-.185.067-7.75-1.947-2.044-5.07-1.54 1.049c-3.493 2.381-6.86 3.552-10.12 3.552-3.302 0-5.988-.703-8.088-2.087l-.877-.577-.842.626c-6.24 4.63-7.146 8.507-5.128 14.165l.699 1.92.112.328.101.315.063.206c.91 3.069.272 5.142-3.417 7.726l-.118.081-.21-.505c-.922-2.16-1.967-3.985-3.147-5.567-.926-1.241-1.888-2.28-3.042-3.348l-.502-.451-1.62-1.443-.329-.303-.241-.239c-1.436-1.477-1.927-3.014-1.29-6.02l.114-.5c.042-.172.086-.348.134-.528l.153-.557.085-.289.184-.601c.065-.206.133-.417.205-.633l.225-.666.247-.701.268-.737.464-1.244-.624-.678c-4.942-5.371-3.925-9.832 2.597-14.92l.581-.443.609-.447 1.267-.915-.965-1.228c-4.342-5.53-4.402-10.366-.077-15.051l.355-.386.038-.524C13.373-4.5 55.961-4.88 59.292 27.632z" fill="#333" fill-rule="nonzero"/><path d="M13.924 37.422l-1.384.156c-.233.025-.466.05-.701.073l.528 2.54.379 1.764.25 1.11.175.76.185.772.296 1.18.317 1.199.112.403.23.811.243.816.255.818.132.41.273.819c.14.41.286.818.436 1.226l.309.813c3.102 7.976 8.339 15.206 17.918 14.934 9.309-.263 15.665-7.667 19.07-22.21l.233-1.026.223-1.05.108-.533.209-1.084.199-1.107.096-.562.185-1.142.175-1.166c-3.024-3.82-5.242-7.859-6.653-12.116l-.169-.532-.127-.426-.14-.485-.318-1.141-.177-.657c-5.679 7.824-16.634 12.702-32.867 14.633zm31.573-8.714l.083.22c1.349 3.449 3.198 6.752 5.541 9.905l.098.128-.066.413c-.06.366-.12.729-.182 1.087l-.19 1.062c-.064.35-.13.696-.197 1.038l-.207 1.013-.106.498-.22.977c-.11.483-.226.956-.343 1.42l-.24.917-.249.893a52.17 52.17 0 01-.794 2.535l-.281.797c-3.187 8.772-7.914 13.111-14.078 13.406l-.274.01c-7.58.215-12.539-5.235-15.937-15.535l-.259-.792-.235-.744c-.038-.12-.074-.24-.11-.359l-.119-.394a52.754 52.754 0 01-.17-.589l-.18-.652-.14-.524-.138-.546-.213-.877-.225-.968-.328-1.476-.283-1.317.148-.018c13.337-1.747 23.298-5.528 29.813-11.454l.08-.074z" fill="#333" fill-rule="nonzero"/><circle fill="#333" cx="22.035" cy="40.555" r="2.327"/><circle fill="#333" cx="37.434" cy="40.555" r="2.327"/><path d="M33.971 54.972l1.945 2.285-1.143.972c-1.98 1.686-4.239 2.163-6.825 1.243l-.278-.104-1.397-.546 1.092-2.794 1.397.546c1.57.614 2.723.437 3.891-.486l.176-.144 1.142-.972zM31.18 47.201l-1.45 2.522.57 2.164-2.9.765-.886-3.355 2.066-3.592zM44.805 69.586a1.5 1.5 0 011.5 1.5c0 4.334-4.794 7.505-14 7.5-9.209-.006-14.934-3.171-14.934-7.5a1.5 1.5 0 113 0c0 2.347 4.185 4.495 11.935 4.5 7.747.005 11-2.147 11-4.5a1.5 1.5 0 011.5-1.5zM54.822 38.994l-1.705-.967-3.353 13.06h1.934c3.64 0 7.298-2.49 7.298-6 0-2.388-1.928-4.82-4.174-6.093zm.132 3.941l.104.12c.566.681.938 1.426.938 2.031l-.006.15c-.083.948-.939 1.84-2.09 2.365l-.162.07 1.216-4.736z" fill="#333" fill-rule="nonzero"/><path d="M43.624 61.406l2 6" stroke="#333" stroke-width="3.462"/></g><path d="M257.1 159.983l.14.014c1.376.191 1.925 1.944.841 2.881l-33.506 28.986-.321.333c-3.956 4.036-8.2 6.425-12.716 7.112l-.17.023-.295.125c-2.86 1.146-7.435 1.18-11.987.337-2.17-.401-4.11-.976-5.475-1.64-2.038-.993-3.204-2.357-2.277-4.133l.076-.132a1.65 1.65 0 01.813-.652l8.6-3.188-.035-.064a2.756 2.756 0 01-.23-.73c-.212-1.231.312-2.078 1.554-3.235l.22-.201 1.814-1.561 1.157-1.01.53-.47.056-.14c.907-2.142 3.563-3.043 7.954-2.971l.689.018.355.016.73.04c.248.017.5.036.758.057l.785.07.812.086.416.048.854.106.937.128 20.407-20.666a1.65 1.65 0 011.271-.488l15.242.901zm-4.246 3.054l-10.444-.618-20.47 20.73a1.65 1.65 0 01-1.423.473l-1-.146c-3.587-.5-6.346-.625-8.241-.385-1.64.207-2.306.6-2.394.978a1.65 1.65 0 01-.488.84l-.665.6-1.976 1.722-1.226 1.052-.264.245-.207.205-.028.032.05.042c.174.137.403.298.692.484l.117.083c1.01.775.791 2.395-.438 2.85l-8.747 3.243.06.026c1.033.402 2.404.775 3.925 1.057 4.216.78 8.468.694 10.474-.296a1.65 1.65 0 01.522-.157c4.016-.512 7.863-2.679 11.56-6.569l.117-.111 30.494-26.38z" fill="#333" fill-rule="nonzero"/><path d="M210.855 193.502a1.65 1.65 0 00-2.239-.658c-3.002 1.639-7.541 2.374-13.559 2.189a1.65 1.65 0 00-.101 3.298c6.551.202 11.634-.622 15.241-2.59a1.65 1.65 0 00.658-2.239zM215.662 185.543a1.65 1.65 0 00-1.921-1.324c-1.887.347-3.246 1.07-4.996 2.434l-1.296 1.039c-1.416 1.114-2.256 1.47-3.448 1.345a1.65 1.65 0 00-.346 3.282c2.12.224 3.663-.38 5.561-1.822l.597-.47.664-.536c1.526-1.224 2.51-1.779 3.86-2.027a1.65 1.65 0 001.325-1.92zM194.953 177.438a1.5 1.5 0 00-.544 2.946l.142.027 17.952 2.429a1.5 1.5 0 00.544-2.947l-.142-.026-17.952-2.43z" fill="#333" fill-rule="nonzero"/><path fill="#FFF" d="M194.778 192.064l-4.913-47.97-70.925-10.084 5.691 46.129z"/><path d="M119.15 132.525l70.927 10.084a1.5 1.5 0 011.28 1.332l4.914 47.97a1.5 1.5 0 01-1.744 1.632l-70.147-11.925a1.5 1.5 0 01-1.238-1.295l-5.691-46.13a1.5 1.5 0 011.7-1.668zm1.519 3.246l5.314 43.075 67.103 11.408-4.592-44.84-67.825-9.643z" fill="#333" fill-rule="nonzero"/><path d="M144.769 184.478a1.5 1.5 0 00-2.645 1.416c.889 1.659 2.104 2.323 4.311 2.536l.507.04c.175.012.355.02.542.027l.577.015.615.004.419-.004 2.442.737.106.084c1.748 1.333 3.79 2.286 6.194 2.851l.485.108a1.5 1.5 0 00.354.031l.444-.01.455.001.963.023.246.008c.297.01.577.017.843.023l.759.008c1.21.001 2.168-.067 3.344-.254l.115-.019.008.007c.807.483 1.756.504 2.744.14l.179-.069.057.02a2.95 2.95 0 001.732.008l.17-.056.015.006c1.376.521 2.442.523 3.782-.247l.214-.128a1.5 1.5 0 00-1.585-2.548c-.612.381-.862.357-1.842-.09a1.5 1.5 0 00-1.432.101l-.108.068c-.037.022-.057.025-.082.012l-.067-.044a1.5 1.5 0 00-1.628-.063c-.28.166-.492.249-.622.27l-.026.002-.101-.1a1.5 1.5 0 00-1.12-.377l-.154.02c-1.49.276-2.47.357-3.966.339l-.73-.015-1.327-.039-.543-.007-.493.003-.146.003-.267-.059c-1.98-.467-3.625-1.234-5.026-2.298l-.297-.233a1.5 1.5 0 00-.373-.22l-.137-.05-2.933-.885a1.5 1.5 0 00-.456-.064l-.592.005-.54-.003c-.085-.002-.169-.003-.25-.006l-.467-.017-.42-.028c-1.329-.112-1.937-.404-2.247-.983z" fill="#333" fill-rule="nonzero"/><path d="M164.862 187.504a1.5 1.5 0 00-1.656 1.326c-.17 1.542.864 2.613 2.633 3.122a1.5 1.5 0 00.829-2.884 3.268 3.268 0 01-.414-.145l-.06-.029-.001-.02a1.5 1.5 0 00-1.188-1.347l-.143-.023zM154.996 185.722a1.5 1.5 0 00-.392 2.085c1.87 2.737 3.587 2.881 5.77 1.475l.394-.262a1.5 1.5 0 00-1.65-2.505l-.569.382-.174.11c-.345.207-.496.195-.75-.117l-.125-.165-.419-.61a1.5 1.5 0 00-2.085-.393z" fill="#333" fill-rule="nonzero"/><path d="M216.941 410.32c3.113 5.802-4.4 9.468-7.944 9.749-4.549-.062-6.22.8-8.351-9.928l16.295.179z" fill="#C8EEFF"/><path d="M202.736 389.135l-3.33.02.055 9.368v10.987c0 .871.67 1.586 1.522 1.659l.143.006h14.924a1.665 1.665 0 001.531-2.319l-.057-.12-5.57-10.625-.001-8.852h-3.33v9.264c0 .215.042.428.123.627l.067.146 4.484 8.548h-10.505v-9.33l-.056-9.38zM192.553 389.135l3.33.02-.055 9.368v10.987c0 .871-.669 1.586-1.521 1.659l-.144.006H179.24a1.665 1.665 0 01-1.532-2.319l.057-.12 5.571-10.625v-8.852h3.33v9.264c0 .215-.041.428-.122.627l-.068.146-4.483 8.548h10.505v-9.33l.055-9.38z" fill="#333" fill-rule="nonzero"/><path d="M194.63 408.64l-16.296.18a1.5 1.5 0 00-1.305.79c-3.263 6.08 1.95 11.416 7.907 11.888l.138.004.427-.003 1.257.002c4.198-.02 6.498-1.428 8.135-6.266l.19-.585c.187-.601.365-1.251.537-1.953l.17-.719.082-.373.164-.772.081-.4a1.5 1.5 0 00-1.488-1.792zm-15.301 3.168l13.462-.147-.128.558-.148.598-.149.56-.15.523c-.025.084-.05.167-.076.248l-.153.47c-.958 2.791-2.1 3.644-4.159 3.836l-.342.025a11.54 11.54 0 01-.177.01l-.367.01-.19.002h-1.639l-.157-.014c-3.659-.389-6.655-3.238-5.686-6.491l.059-.188zM200.656 408.64l16.295.18a1.5 1.5 0 011.306.79c1.77 3.299.904 6.428-1.814 8.788-2.016 1.749-5.022 2.983-7.333 3.166l-.139.005-.455-.004h-.877l-.436-.005a15.692 15.692 0 01-.212-.007l-.411-.022-.394-.035c-2.833-.295-4.376-1.62-5.632-5.437l-.17-.536-.166-.568a34.385 34.385 0 01-.083-.296l-.163-.617a45.177 45.177 0 01-.08-.322l-.162-.668-.16-.703-.16-.739-.16-.775a106.07 106.07 0 01-.082-.402 1.5 1.5 0 011.488-1.792zm15.302 3.168l-13.476-.148.122.57.206.91.201.82.132.499.131.461.066.217.132.41.134.374.136.344c.595 1.42 1.276 1.979 2.334 2.186l.25.042.265.031.28.021.296.013.475.007 1.29.002-.06.006c1.68-.133 4.08-1.118 5.604-2.441l.18-.162c1.348-1.243 1.828-2.585 1.316-4.121l-.014-.04z" fill="#333" fill-rule="nonzero"/><path stroke="#333" stroke-width="3.3" stroke-linecap="round" stroke-linejoin="round" d="M256.954 161.63l-18.82-1.456-2.525-11.17"/><path d="M401.962 176.694l-.51 12.182c-29.043 20.154-60.336 14.343-62.137 11.205" stroke="#333" stroke-width="3.15" fill="#EFF5FF"/><path d="M315.542 197.765c.73.997 1.542 1.056 2.356 1.099.341.479.793.723 1.395.65.578.759 1.183 1.07 1.82.849 2.296 1.567 3.637 1.88 5.42 2.771 2.1.545 3.897.58 5.493.283l2.386.423c1.76.849 4.42-1.11 5.694-1.963M320.398 198.415c-.173.512-.678.766-1.722.601M331.803 200.218c.622 1.01 1.12 2.197 3.408.842M324.453 199.168c.622 1.01 1.12 2.197 3.408.842" stroke="#333" stroke-width="2.52" stroke-linecap="round" stroke-linejoin="round"/><path d="M343.173 374.796l6.769 2.331 12.942-2.331c1.067 6.96 4.546 14.332 2.332 20.73l-18.393 2.934c-15.065 7.338-28.278 13.898-32.022 3.165-4.355-9.982 21.713-17.676 28.372-26.83z" fill="#FFF"/><path d="M361.031 184.014l-8.305-1.038m3.406 21.57l12.88-10.957" stroke="#333" stroke-width="3.15" fill="#FFF" stroke-linejoin="round"/><path d="M363.56 193.41l45.493-19.647a6 6 0 003.613-5.812c-2.012-39.718-6.601-63.378-13.768-70.978-4.484-4.756-9.624-5.044-16.405-6.162-.513 5.17-7.64 11.851-21.383 20.046-7.845-5.113-12.008-8.955-12.488-11.528-.871.29 11.847-4.737-2.483.898-14.33 5.636-14.656 14.383-13.89 24.885l.101 32.269" fill="#EFF5FF"/><path d="M353.452 98.973l.193-.084.145-.082.235-.186.203-.242.151-1.382-.775-.82-1.034-.083h-.074l-.013.004c0 .001 0 .003.002.004l.025.017-.936.36-5.998 2.354c-7.106 2.795-11.36 6.51-13.439 11.43-1.396 3.303-1.793 6.7-1.58 11.86l.048.989c.009.168.018.338.029.51l.067 1.056.036.494.1 32.215 3-.01-.101-32.268-.004-.105-.071-1.035-.059-.988-.045-.942a67.905 67.905 0 01-.017-.455l-.025-.879c-.08-4.008.31-6.732 1.386-9.275 1.697-4.017 5.2-7.136 11.32-9.624l1.498-.593.005.01c.623 1.179 1.688 2.468 3.201 3.886l.521.478c.18.16.364.323.554.488l.588.497c.402.335.827.677 1.274 1.025l.687.528.721.54.754.549.788.56.406.285.838.577.432.293.888.594.457.301 1.228.802 1.385-.827 1.139-.69 1.108-.685 1.077-.676.527-.336 1.03-.667c.17-.11.338-.221.504-.331l.985-.657.48-.326.938-.647.908-.64.876-.634c.574-.42 1.127-.837 1.66-1.25l.784-.614a58.593 58.593 0 002.166-1.808l.66-.59c3.33-3.036 5.424-5.83 6.279-8.42l.095-.308 2.284.36.877.145.831.148.4.076.768.155.73.16c3.789.878 6.005 2.068 8.241 4.44 2.999 3.18 5.56 9.506 7.657 18.943l.284 1.307.277 1.344.272 1.384.265 1.421.26 1.46.255 1.5.125.763.245 1.557.12.792.237 1.614.231 1.653.113.84.222 1.71.11.87.212 1.767.104.898.205 1.825.198 1.864.192 1.901.186 1.94.091.984.178 1.997.17 2.036.166 2.073.16 2.112.152 2.15.147 2.187.141 2.226.135 2.264.129 2.302.123 2.34a4.5 4.5 0 01-2.514 4.27l-.197.09-45.493 19.647 1.19 2.754 45.493-19.647a7.5 7.5 0 004.517-7.265l-.125-2.388-.132-2.348-.137-2.31-.144-2.27-.15-2.232a540.74 540.74 0 00-.077-1.1l-.16-2.174-.166-2.134-.172-2.095-.179-2.056-.184-2.018-.192-1.978-.197-1.94-.204-1.9-.21-1.863c-.108-.921-.217-1.828-.329-2.72l-.226-1.765-.116-.868-.236-1.708-.243-1.668c-.04-.275-.082-.548-.124-.82l-.252-1.61-.26-1.572-.131-.771-.269-1.514-.275-1.475-.14-.723-.286-1.417c-2.309-11.185-5.25-18.668-8.86-22.495-3.035-3.22-6.04-4.617-11.38-5.647l-.84-.156-.879-.15-4.153-.66-1.579-.26-.158 1.592c-.214 2.163-1.91 4.772-5.088 7.78l-.56.52c-.095.087-.192.175-.29.262l-.603.532-.632.538-.327.273-.676.55-.704.558c-.24.187-.485.375-.734.565l-.763.573-.392.289-.807.583-.414.295-.85.595-.436.3-.894.605-.922.612-.952.62-.487.312-.996.63-1.024.637-1.054.644-.249.15-.899-.601-.42-.286-.814-.56a94.693 94.693 0 01-.394-.277l-.761-.542c-.248-.178-.49-.355-.726-.529l-.691-.516-.332-.253-.639-.496a52.324 52.324 0 01-.602-.483l-.568-.469-.532-.454-.496-.441-.461-.426c-.96-.908-1.67-1.712-2.126-2.404l-.128-.204 2.909-1.173z" fill="#333" fill-rule="nonzero"/><path stroke="#333" stroke-width="3.15" fill="#FFF" stroke-linejoin="round" d="M354.756 204.81l-3.89-42.604-58.527-12.215 3.703 41.202z"/><path d="M368.934 194.29l-.699-3.561-14.32 2.81.698 3.56 14.32-2.81zm20.23-66.924l-3.574.626 5.38 30.75-35.806 24.443-2.801 1.913 2.046 2.997 40.539-27.676-5.784-33.053zM341.441 130.323l3.098-.573 5.016 27.14-.799 4.136-3.093-.597.686-3.552z" fill="#333" fill-rule="nonzero"/><g stroke="#333" stroke-linecap="round" stroke-linejoin="round" stroke-width="3.15"><path d="M382.321 90.922c-4.36-3.046-6.76-8.435-7.197-16.166M353.63 90.756l-.08 6.425"/></g><path d="M401.381 188.897c-21.086 10.97-40.897 17.954-63.608 13.284l.628 8.978c22.064 3.82 43.864-.126 65.374-12.546l-2.394-9.716z" fill="#FFF"/><path d="M401.784 198.455c5.141 56.696.869 118.612 3.269 174.916l-16.93 1.592-20.772-109.531-5.05 109.782-19.651 2.24-4.203-149.698.317-18.264 10.158 2.457c15.341.691 33.426-2.079 52.862-13.494z" fill="#E3E3E3"/><path fill="#333" fill-rule="nonzero" d="M363.263 206.067l-5.147.508.295 2.986 5.147-.508zM369.953 201.601l-2.985.299.889 8.886 2.985-.299zM374.408 200.04l-2.982.324 1.071 9.832 2.982-.325zM351.892 203.963l-2.985.299.889 8.886 2.985-.299z"/><path fill="#333" fill-rule="nonzero" d="M349.176 204.145l-2.983.315.794 7.528 2.983-.315z"/><path stroke="#333" stroke-width="3" stroke-linejoin="round" d="M364.973 212.465l.579 19.545"/><path d="M336.996 202.564l5.438 175.048a1.5 1.5 0 001.543 1.453l.137-.01 17.566-2.133a1.5 1.5 0 001.306-1.296l.012-.136 5.05-132.166-2.997-.115-5.002 130.888-14.666 1.78-5.388-173.406-2.999.093z" fill="#333" fill-rule="nonzero"/><path d="M403.167 189.195l-2.956.515.14.816.133.817.127.818.18 1.233.112.827.107.832.1.839.142 1.273.129 1.293.117 1.318.072.894.098 1.366.059.93.054.946.05.964.065 1.48.056 1.526.045 1.574.036 1.627.027 1.683.018 1.744.01 1.807v1.874l-.011 2.61-.025 2.745-.038 2.889-.05 3.041-.206 11.17-.045 3.415-.02 2.977-.002 1.856.293 53.558.172 21.024.106 10.024.094 7.683.13 9.312.117 7.61.263 15.106-14.02.677-20.665-133.711-2.965.458 20.872 135.047a1.5 1.5 0 001.412 1.269h.143l16.822-.813a1.5 1.5 0 001.427-1.526L405.72 365l-.199-12.12-.127-8.813-.16-13.072-.24-27.13-.3-54.211.001-3.245.03-3.396.07-4.521.195-10.527.045-2.993.025-2.146.021-2.738.008-2.605-.007-2.48-.01-1.197-.03-2.31-.021-1.116-.026-1.092-.03-1.069-.053-1.562-.064-1.515-.074-1.473-.056-.96-.093-1.411-.068-.922-.073-.909-.12-1.34-.132-1.318-.144-1.297-.104-.855-.109-.85-.115-.844-.121-.84-.127-.838-.134-.836-.14-.835-.071-.418z" fill="#333" fill-rule="nonzero"/><path stroke="#333" stroke-width="3" d="M357.464 184.614l5.995 8.324"/><path d="M401.054 186.9c-14.672 8.883-29.206 13.847-43.611 14.912-.35.025-.716.047-1.096.065l-.779.029-.818.018-.857.007-.896-.004-.935-.016-.973-.027-.502-.018-1.031-.044-1.07-.055-1.11-.066-1.148-.078-1.186-.089-1.226-.1-1.263-.112-1.302-.123-2.026-.205-1.398-.152-.33 2.982 1.425.154 1.387.143 1.349.131 1.31.12 1.272.108 1.233.096 1.195.085 1.157.073c.379.023.752.043 1.118.062l1.08.05 1.042.039 1.004.027.965.015.928.004c.151 0 .3-.002.45-.003l.87-.014.832-.025c.542-.02 1.058-.05 1.55-.086 14.628-1.08 29.339-6.034 44.122-14.844l.822-.493-1.554-2.566z" fill="#333" fill-rule="nonzero"/><path d="M401.45 196.446c-11.693 9.855-36.812 16.178-52.356 14.313l-10.104-1.824-.533 2.952 10.191 1.837c16.235 1.951 41.798-4.417 54.323-14.642l.413-.342-1.933-2.294z" fill="#333" fill-rule="nonzero"/><path fill="#333" fill-rule="nonzero" d="M364.57 202.66l-2.984.298.888 8.886 2.985-.298z"/><g><path d="M403.272 371.372l4.21 33.86c-2.743 16.501-20.345 10.723-20.422 2.41-.326-1.56.08-13.359 1.218-35.399l14.994-.87z" fill="#FFF"/><path d="M403.182 369.958l-14.994.87a1.418 1.418 0 00-1.333 1.343l-.49 9.769-.356 7.71-.115 2.7-.194 5.104-.083 2.64-.06 2.517-.023 1.839.002 1.135.017.927.02.503.027.412.025.25.014.096-.004-.118c.045 4.844 4.924 9.005 10.503 9.5 6.305.558 11.382-3.55 12.736-11.69.022-.134.025-.271.008-.407l-4.21-33.86a1.417 1.417 0 00-1.49-1.24zm-13.562 3.627l12.4-.72 4.022 32.334-.095.506c-1.255 6.212-4.929 9.036-9.558 8.626-4.249-.377-7.89-3.481-7.919-6.702l-.008-.14-.045-.285-.031-.37-.02-.52-.011-.674.003-1.392.042-2.278.081-2.872.151-4.22.17-4.155.332-7.306.486-9.832z" fill="#333" fill-rule="nonzero"/><path d="M389.475 377.553a1.417 1.417 0 00-1.06 2.629c5.55 2.237 10.786 1.894 15.562-1.114a1.417 1.417 0 10-1.51-2.399c-3.984 2.51-8.264 2.79-12.992.884zM407.834 401.963c-8.007-2.924-15.223-2.555-21.758 1.567a1.417 1.417 0 101.513 2.398c5.738-3.62 12.043-3.942 19.272-1.302a1.417 1.417 0 00.973-2.663z" fill="#333" fill-rule="nonzero"/><path d="M391.433 373.95a1.418 1.418 0 00-1.279 1.078l-.025.13-.516 3.51a1.417 1.417 0 002.779.547l.026-.135.35-2.382 5.933-.415.12 1.732c.052.735.655 1.3 1.377 1.318l.137-.003a1.418 1.418 0 001.318-1.376l-.003-.137-.22-3.145a1.418 1.418 0 00-1.376-1.319l-.137.003-8.484.594z" fill="#333" fill-rule="nonzero"/></g><g><path d="M339.016 378.884c-1.667-.332.885.975 7.656 3.92 10.157 4.419 13.324-9.565 16.047-8.486 3.2 11.937 3.809 19.116 1.827 21.537-.92 1.123-14.933.076-23.756 5.309-5.772 3.423-15.501 8.049-22.11 5.114m.159.149l-4.05-2.843c-3.197-3.464.692-8.184 3.008-10.66 13.637-8.92 22.226-15.088 25.769-18.503 2.078 1.464 4.331 2.285 6.573 3.145-.146.985-1.76 4.019-2.97 5.071" stroke="#333" stroke-width="2.807" fill="#FFF" stroke-linejoin="round"/><path d="M344.43 373.194l.186.13.37.247c.061.04.123.079.185.117l.375.228c.127.074.256.147.388.219l.406.214.433.213c.149.071.303.143.464.216l.504.221.55.231.603.244.662.26 1.12.432a1.5 1.5 0 01.947 1.62c-.149 1.003-1.072 2.868-2.08 4.332 2.812.43 5.02-.98 7.42-4.038l.366-.48 1.523-2.088.366-.493.298-.391.144-.181c1.168-1.408 2.233-2.07 3.612-1.523a1.5 1.5 0 01.896 1.006l.296 1.12.282 1.092.394 1.587.243 1.024.229.996.213.97.198.94.183.916.085.447.16.874.143.848.128.82c.06.404.115.798.163 1.182l.089.754.073.728c.38 4.17-.049 7-1.34 8.577-.414.506-.91.718-1.842.873l-.428.063-.487.061-.761.08-1.185.104-1.904.155-1.28.113-1.212.118c-3.153.325-5.682.734-8.213 1.384-2.642.68-4.933 1.567-6.84 2.698-8.898 5.276-17.09 7.825-23.177 5.327l-.307-.132.154-.35-.248.356-4.05-2.843a1.5 1.5 0 01-.24-.21c-1.912-2.072-2.04-4.633-.83-7.332.81-1.807 2.088-3.493 3.845-5.37a1.5 1.5 0 01.274-.23l2.994-1.969 2.272-1.507 2.683-1.798 2.51-1.703 2.336-1.61 1.319-.919 1.256-.885 1.194-.852 1.493-1.081 1.048-.771.663-.495.943-.713.88-.68.817-.644.754-.61.691-.575.217-.184.411-.356.384-.341.356-.326.327-.31a1.5 1.5 0 011.906-.147zm17.34 3.422l-.32.426-1.877 2.567c-3.84 5.031-7.875 7.018-13.5 4.57l-1.23-.537-1.83-.81-1.555-.704-.802-.372-.704-.334-.606-.295-.526-.268-.316-.167a12.428 12.428 0 01-.142-.078l-1.2.89-1.282.934-1.364.978-1.947 1.375-1.556 1.082-1.084.747-1.694 1.158-1.776 1.202-2.497 1.673-1.97 1.307-3.222 2.12-.107.117c-.152.165-.298.328-.44.49l-.414.478-.387.47-.359.458c-1.954 2.574-2.552 4.663-1.394 6.207l.127.159 3.491 2.45c4.56 2.022 11.443.156 19.013-4.045l.86-.486c.287-.165.576-.333.865-.505 2.175-1.29 4.725-2.277 7.623-3.022 2.523-.649 5.012-1.067 8.011-1.395l1.229-.127c.21-.02.422-.041.637-.06l4.368-.372.547-.056.348-.041.33-.046.27-.045.158-.034.04-.067c.381-.67.587-1.752.61-3.234v-.508l-.013-.538-.026-.568-.04-.596-.055-.626-.068-.654-.082-.683-.096-.713a55.732 55.732 0 00-.053-.366l-.117-.755c-.02-.129-.042-.258-.064-.389l-.139-.797-.153-.826-.167-.854-.181-.882-.197-.91-.21-.938-.226-.966-.24-.993-.3-1.196zm-18.05-.296l-.025.023a47.14 47.14 0 01-.91.788l-.674.563-.73.592-.386.308.701.336.822.383 1.282.584 2.32 1.03.434.19c.36-.429.79-1.066 1.193-1.78.11-.194.215-.388.31-.575l.164-.328-.531-.21-.694-.283a37.81 37.81 0 01-.931-.4l-.56-.257a18.83 18.83 0 01-1.488-.785l-.296-.18zm-3.808 3.121l-1.167.887.032-.003c.456-.058.903-.277 1.135-.884z" fill="#333" fill-rule="nonzero"/><path d="M365.58 388.044a1.5 1.5 0 01-1.045 1.847l-1.716.48-2.695.76-2.006.575-2.759.806-2.069.62-1.504.461-1.692.535-1.203.393-.814.276-.968.34-.637.235-3.94 1.478-2.58.952-1.933.7-1.82.649-1.715.596-.819.279-1.183.395-1.495.483-.714.223-1.03.313-.986.286-.632.176-.614.164-.595.154-.86.209-.554.125-.537.115-.523.104-.508.093-.494.082-.482.073-.469.062-.458.052-.446.042-.22.017-.431.027-.212.01-.418.013-.41.003-.401-.006a16.761 16.761 0 01-.199-.007l-.392-.02-.386-.028-.38-.038-.377-.047a15.747 15.747 0 01-.187-.026l-.37-.06-.369-.067-.366-.077-.364-.084-.364-.093-.363-.1a1.5 1.5 0 01.826-2.884l.31.085.31.078.314.07.316.063.32.055.324.048.33.04.334.032.34.023.348.016.355.007.363-.001.371-.01.19-.009.384-.023.396-.032.406-.041.417-.051.43-.06.442-.07.455-.078.469-.089.483-.099.754-.167.789-.19.547-.139.565-.15 1.184-.332.938-.278.984-.303 1.387-.444 1.475-.49 1.169-.4 1.644-.573 2.201-.788 2.868-1.049 3.129-1.167 2.099-.788.96-.343 1.389-.47 1.26-.41 1.392-.438 1.525-.469 1.66-.498 2.26-.666 1.458-.421 2.595-.74 3.391-.95a1.5 1.5 0 011.847 1.043z" fill="#333" fill-rule="nonzero"/><path d="M325.625 389.723a1.5 1.5 0 00-2.579 1.533c1.15 1.934 1.135 4.334-.035 7.338a1.5 1.5 0 002.796 1.089c1.477-3.795 1.498-7.134-.182-9.96z" fill="#333" fill-rule="nonzero"/></g><path d="M396.871 379.7a1.417 1.417 0 012.127 1.87l-.096.108-3.237 3.325 3.083 2.36c.602.461.73 1.305.314 1.919l-.09.12-2.217 2.636 4.463 4.113a1.418 1.418 0 01-.076 2.15l-.117.084-4.684 3.014a1.417 1.417 0 01-1.652-2.3l.118-.084 3.142-2.022-4.11-3.787a1.418 1.418 0 01-.215-1.835l.09-.12 2.133-2.539-3.173-2.428a1.418 1.418 0 01-.252-2.003l.098-.111 4.351-4.47zM342.216 381.172a1.418 1.418 0 01-.457 2.794l-.143-.024-4.536-.984-.367 3.866a1.418 1.418 0 01-1.46 1.283l-.15-.013-3.41-.483-1.123 5.964a1.418 1.418 0 01-1.864 1.075l-.134-.055-5.038-2.374a1.418 1.418 0 011.075-2.62l.134.055 3.38 1.593 1.034-5.493c.13-.695.75-1.18 1.442-1.154l.149.013 3.283.463.378-3.977a1.418 1.418 0 011.566-1.275l.146.024 6.095 1.322z" fill="#333" fill-rule="nonzero"/><path d="M396.922 379.7a1.417 1.417 0 00-2.127 1.87l.096.108 3.237 3.325-3.083 2.36a1.418 1.418 0 00-.314 1.919l.09.12 2.217 2.636-4.463 4.113a1.418 1.418 0 00.076 2.15l.118.084 4.683 3.014a1.417 1.417 0 001.652-2.3l-.118-.084-3.142-2.022 4.111-3.787c.52-.48.603-1.262.215-1.835l-.09-.12-2.134-2.539 3.173-2.428a1.418 1.418 0 00.252-2.003l-.098-.111-4.35-4.47zM342.244 381.215a1.418 1.418 0 00-2.712-.814l-.042.14-1.103 4.507-3.637-1.364a1.418 1.418 0 00-1.793.75l-.053.14-1.062 3.277-5.853-1.605a1.418 1.418 0 00-1.783 1.204l-.009.144-.074 5.569a1.418 1.418 0 002.825.182l.01-.144.05-3.736 5.39 1.478a1.418 1.418 0 001.67-.79l.053-.14 1.023-3.153 3.74 1.403c.749.28 1.57-.113 1.833-.848l.042-.142 1.485-6.058z" fill="#333" fill-rule="nonzero"/><path d="M338.42 66.585c-1.818-20.363 6.227-21.153 9.566-21.441 3.34-.288 14.817 2.385 21.873-1.875 1.55 5.555-.313 6.552 2.526 9.05 1.412 1.242 1.102 5.041.82 8.492-.807-4.752 4.867-4.973 5.723-.796.571 2.785-.662 6.09-3.7 9.912-.795 5.349-1.045 7.914-.75 7.696 11.04-8.176 12.034-22.072 2.982-41.687-.681-2.21-.904-3.885-.668-5.022l-2.223.05c-.05-1.032-.567-2.095-1.55-3.188-.718 2.06-2.019 2.68-3.903 1.86-2.017-.876-6.043-1.411-12.076-1.605-22.96 1.413-22.557 23.644-18.62 38.554z" stroke="#333" stroke-width="3" fill="#DDD" stroke-linecap="round" stroke-linejoin="round"/><path d="M340.992 62.648c-.55 14.948 8.019 25.974 12.9 26.361 2.846.226 8.069-1.479 15.67-5.113.73-.348 2.786-3.23 6.167-8.644" stroke="#333" stroke-width="3"/><path d="M362.227 55.622l-5.77.282a3 3 0 00-2.853 3.072l.086 3.424a3 3 0 003.145 2.921l5.771-.282a3 3 0 002.852-3.071l-.085-3.424a3 3 0 00-3.146-2.922z" stroke="#333" stroke-width="3" fill="#D8D8D8"/><circle fill="#333" transform="scale(-1 1) rotate(2 0 -20508.9)" cx="359.054" cy="61.264" r="1.992"/><path d="M346.221 56.605l-5.732.244a3 3 0 00-2.871 3.083l.1 3.504a3 3 0 003.126 2.911l5.732-.243a3 3 0 002.872-3.083l-.101-3.505a3 3 0 00-3.126-2.91z" stroke="#333" stroke-width="3" fill="#D8D8D8"/><path stroke="#333" stroke-width="3" d="M352.396 59.218l-1.999.07M373.896 55.253l-8 3"/><circle fill="#333" transform="scale(-1 1) rotate(6 0 -6485.921)" cx="343.166" cy="62.071" r="1.992"/><path d="M355.998 78.643c-1.315 1.951-2.622 2.21-4.997.446" stroke="#333" stroke-width="3" stroke-linecap="square" stroke-linejoin="round"/><path d="M352.066 66.355c-1.002 2.466-1.45 4.16-1.346 5.081.147 1.288 1.413 1.406 3.798.354" stroke="#333" stroke-width="3"/></g></g></svg>