<?xml version="1.0" encoding="UTF-8"?>
<svg width="70px" height="70px" viewBox="0 0 70 70" version="1.1" xmlns="http://www.w3.org/2000/svg" xmlns:xlink="http://www.w3.org/1999/xlink">
    <title>outlook</title>
    <defs>
        <linearGradient x1="50.000064%" y1="1.23596286e-05%" x2="50.000064%" y2="99.9999262%" id="linearGradient-1">
            <stop stop-color="#35B8F1" offset="0%"></stop>
            <stop stop-color="#28A8EA" offset="100%"></stop>
        </linearGradient>
        <linearGradient x1="17.372029%" y1="-6.51030653%" x2="82.6280031%" y2="106.51036%" id="linearGradient-2">
            <stop stop-color="#1784D9" offset="0%"></stop>
            <stop stop-color="#107AD5" offset="50%"></stop>
            <stop stop-color="#0A63C9" offset="100%"></stop>
        </linearGradient>
    </defs>
    <g id="outlook" stroke="none" stroke-width="1" fill="none" fill-rule="evenodd">
        <g id="Group-40" transform="translate(7.000000, 6.000000)">
            <g id="Group-8" transform="translate(6.000000, 5.000000)">
                <polygon id="Path" points="0.280000687 0.00800075531 54.4120066 0.00800075531 54.4120066 54.12601 0.280000687 54.12601"></polygon>
            </g>
            <g id="Group" transform="translate(0.016000, 0.256001)" fill-rule="nonzero">
                <g id="Office_Outlook-Copy" transform="translate(0.000000, 1.862069)">
                    <path d="M53.8828719,26.3148669 C53.8857556,25.8935348 53.6680566,25.501394 53.3089031,25.2810759 L53.3026353,25.2810759 L53.2800649,25.2685402 L34.6090305,14.216296 C34.5284012,14.1618271 34.444741,14.1120371 34.3584029,14.0671907 C33.6375065,13.6952661 32.7811588,13.6952661 32.060233,14.0671907 C31.9738949,14.1120665 31.8902346,14.1618271 31.8096054,14.216296 L13.1386298,25.2685402 L13.1160889,25.2810759 C12.5454454,25.6359331 12.3705034,26.3862268 12.7253606,26.9568702 C12.8299138,27.1250147 12.9739283,27.265086 13.1448977,27.3649603 L31.8159321,38.4172045 C31.8968262,38.4712025 31.9804865,38.5209926 32.0665597,38.5663392 C32.7874561,38.9382638 33.6438038,38.9382638 34.3647297,38.5663392 C34.4508029,38.5209926 34.5344337,38.471232 34.6153572,38.4172045 L53.2863917,27.3649603 C53.6593757,27.1474967 53.8870798,26.7466456 53.8828719,26.3148669 Z" id="Path" fill="#0A2767"></path>
                    <path d="M15.3152378,18.9354337 L27.567946,18.9354337 L27.567946,30.1668573 L15.3152378,30.1668573 L15.3152378,18.9354337 Z M51.3766548,7.51853341 L51.3766548,2.3808591 C51.4060815,1.09632282 50.3893286,0.0307803755 49.1048218,0 L17.3089293,0 C16.024393,0.0307803755 15.0076401,1.09632282 15.0370668,2.3808591 L15.0370668,7.51853341 L33.8334003,12.5308792 L51.3766548,7.51853341 Z" id="Shape" fill="#0364B8"></path>
                    <polygon id="Path" fill="#0078D4" points="15.0370668 7.51853341 27.567946 7.51853341 27.567946 18.7963335 15.0370668 18.7963335"></polygon>
                    <polygon id="Path" fill="#28A8EA" points="40.0988547 7.51853341 27.567946 7.51853341 27.567946 18.7963335 40.0988547 30.0741336 51.3766548 30.0741336 51.3766548 18.7963335"></polygon>
                    <polygon id="Path" fill="#0078D4" points="27.567946 18.7963335 40.0988252 18.7963335 40.0988252 30.0741336 27.567946 30.0741336"></polygon>
                    <polygon id="Path" fill="#0364B8" points="27.567946 30.0741336 40.0988252 30.0741336 40.0988252 41.3519338 27.567946 41.3519338"></polygon>
                    <polygon id="Path" fill="#14447D" points="15.3152378 30.1668573 27.567946 30.1668573 27.567946 40.3770257 15.3152378 40.3770257"></polygon>
                    <polygon id="Path" fill="#0078D4" points="40.0988547 30.0741336 51.3766548 30.0741336 51.3766548 41.3519338 40.0988547 41.3519338"></polygon>
                    <path d="M53.3089031,27.2960429 L53.2850969,27.3085787 L34.6140625,37.8094539 C34.5326092,37.8595676 34.4499201,37.9071801 34.3634349,37.94979 C34.0463028,38.1008081 33.7018922,38.1860574 33.3509489,38.2004176 L32.3309296,37.6039375 C32.2447386,37.5606802 32.161049,37.5125674 32.080302,37.4598347 L13.1586694,26.6607195 L13.1499002,26.6607195 L12.5308792,26.3148669 L12.5308792,47.5722769 C12.5405312,48.9905283 13.6977379,50.1325803 15.1159894,50.1236286 L51.337782,50.1236286 C51.359087,50.1236286 51.3778907,50.1135412 51.4004316,50.1135412 C51.6999959,50.0943844 51.9953227,50.0327647 52.277584,49.9305951 C52.3995579,49.8789217 52.5172943,49.8177435 52.6297044,49.747649 C52.7136589,49.7000365 52.8577617,49.5960424 52.8577617,49.5960424 C53.4996767,49.1210359 53.8796349,48.3708599 53.8827835,47.5723063 L53.8827835,26.3148669 C53.8827835,26.7214563 53.6630835,27.096353 53.3089031,27.2960429 Z" id="Path" fill="url(#linearGradient-1)"></path>
                    <path d="M52.8803615,26.2309124 L52.8803615,27.5341347 L33.3572462,40.9760071 L13.1448977,26.6694886 C13.1448977,26.6625734 13.1392772,26.6569528 13.1323619,26.6569528 L13.1323619,26.6569528 L11.2778001,25.5417086 L11.2778001,24.6018772 L12.0421892,24.5893414 L13.6586592,25.516637 L13.6962372,25.5291728 L13.834072,25.616894 C13.834072,25.616894 32.83089,36.4561179 32.8810332,36.48116 L33.6078149,36.9072004 C33.6704645,36.8821289 33.733114,36.8570867 33.8082993,36.8320151 C33.8459067,36.8069435 52.6672824,26.2183472 52.6672824,26.2183472 L52.8803615,26.2309124 Z" id="Path" fill="#0A2767" opacity="0.5"></path>
                    <path d="M53.3089031,27.2960429 L53.2850969,27.3098146 L34.6140625,37.8106898 C34.5326092,37.8608036 34.4499201,37.908416 34.3634349,37.951026 C33.6383304,38.3052651 32.7903694,38.3052651 32.0652649,37.951026 C31.9793977,37.9085043 31.8957669,37.8616569 31.8146373,37.8106898 L13.1436618,27.3098146 L13.1211209,27.2960429 C12.7606432,27.1005905 12.5346458,26.7248992 12.5309086,26.3148669 L12.5309086,47.5722769 C12.5398838,48.9902929 13.6966786,50.1325214 15.1146651,50.1236289 C15.1146946,50.1236289 15.114724,50.1236289 15.1147829,50.1236289 L51.2989682,50.1236289 C52.7169842,50.1326097 53.8738084,48.9903812 53.8828424,47.5723946 C53.8828424,47.5723652 53.8828424,47.5723357 53.8828424,47.5722769 L53.8828424,26.3148669 C53.8823716,26.7214563 53.6630835,27.096353 53.3089031,27.2960429 Z" id="Path" fill="#1490DF"></path>
                    <path d="M34.885995,37.6553166 L34.6065586,37.8119552 C34.5255762,37.8635108 34.441916,37.9107996 34.3559311,37.9535567 C34.0480685,38.104663 33.7133098,38.1932669 33.3710179,38.2141893 L40.4747813,46.6149071 L52.8665897,49.6010155 C53.206145,49.344532 53.4762236,49.0072427 53.6522838,48.6198396 L34.885995,37.6553166 Z" id="Path" fill="#000000" opacity="0.1"></path>
                    <path d="M36.1516099,36.9435719 L34.6065586,37.8119552 C34.5255762,37.8635108 34.441916,37.9107996 34.3559311,37.9535567 C34.0480685,38.104663 33.7133098,38.1932669 33.3710179,38.2141893 L36.6992122,47.3905667 L52.8703269,49.5972489 C53.5073865,49.1189466 53.8824304,48.3688883 53.882813,47.5722474 L53.882813,47.2978136 L36.1516099,36.9435719 Z" id="Path" fill="#000000" opacity="0.05"></path>
                    <path d="M15.1498595,50.1235798 L51.2952015,50.1235798 C51.8513965,50.1263712 52.3938491,49.9506936 52.8427541,49.6223205 L32.3296937,37.6064682 C32.2435027,37.5632109 32.1598131,37.5150981 32.0790661,37.4623654 L13.1574335,26.6632207 L13.1486643,26.6632207 L12.5309074,26.3148669 L12.5309074,47.4995928 C12.5294962,48.9473887 13.7020342,50.1221632 15.1498595,50.1235798 C15.1498301,50.1235798 15.1498301,50.1235798 15.1498595,50.1235798 Z" id="Path" fill="#28A8EA"></path>
                    <path d="M30.0741336,12.3216256 L30.0741336,39.0500266 C30.0718972,39.9871507 29.5020777,40.8294913 28.6330765,41.1802875 C28.3638806,41.2959641 28.0739683,41.3557298 27.7809662,41.3557298 L12.5308792,41.3557298 L12.5308792,11.2778001 L15.0370668,11.2778001 L15.0370668,10.024721 L27.7809957,10.024721 C29.0469048,10.0295176 30.071397,11.055687 30.0741336,12.3216256 Z" id="Path" fill="#000000" opacity="0.1"></path>
                    <path d="M28.821165,13.5747047 L28.821165,40.3030763 C28.8242032,40.6057892 28.7600235,40.9054123 28.6330765,41.1802287 C28.2850758,42.0379889 27.4535643,42.600746 26.5278871,42.6049834 L12.5308792,42.6049834 L12.5308792,11.2776942 L26.5278871,11.2776942 C26.891484,11.2741512 27.2498135,11.3648444 27.567946,11.5409635 C28.3361018,11.9279546 28.8207603,12.7145904 28.821165,13.5747047 Z" id="Path" fill="#000000" opacity="0.2"></path>
                    <path d="M28.8210545,13.5747047 L28.8210545,37.7969181 C28.8149338,39.0622681 27.7932372,40.0878785 26.5279166,40.0988252 L12.5308792,40.0988252 L12.5308792,11.2776942 L26.5278871,11.2776942 C26.891484,11.2741512 27.2498135,11.3648444 27.567946,11.5409635 C28.3361018,11.9279546 28.8207603,12.7145904 28.8210545,13.5747047 Z" id="Path" fill="#000000" opacity="0.2"></path>
                    <path d="M27.567946,13.5747047 L27.567946,37.7969181 C27.5665924,39.0642397 26.5421003,40.0926456 25.2748081,40.0988252 L12.5308792,40.0988252 L12.5308792,11.2778001 L25.2747786,11.2778001 C26.5419531,11.2784769 27.5686228,12.3062943 27.567946,13.5734688 C27.567946,13.5738808 27.567946,13.5742927 27.567946,13.5747047 Z" id="Path" fill="#000000" opacity="0.2"></path>
                    <path d="M2.2969046,11.2778001 L25.2710414,11.2778001 C26.539599,11.2778001 27.567946,12.3061766 27.567946,13.5747047 L27.567946,36.5488415 C27.567946,37.8173991 26.539599,38.8457461 25.2710414,38.8457461 L2.2969046,38.8457461 C1.02834704,38.8457461 0,37.8173697 0,36.5488415 L0,13.5747047 C0,12.3061766 1.02837647,11.2778001 2.2969046,11.2778001 Z" id="Path" fill="url(#linearGradient-2)"></path>
                    <path d="M7.17894877,20.9115574 C7.74506049,19.705414 8.65881979,18.6960472 9.80293164,18.0131701 C11.069959,17.2877714 12.5125758,16.9261462 13.9719658,16.9680793 C15.3245661,16.9387408 16.6592456,17.2816212 17.8302241,17.9592603 C18.9311963,18.6158299 19.8179124,19.577849 20.3827588,20.7285819 C20.9978955,21.9965803 21.3044633,23.3920555 21.277479,24.8011257 C21.3072883,26.2737283 20.991863,27.7328535 20.3564513,29.0616182 C19.7781569,30.2534897 18.8633088,31.249791 17.7249646,31.9274301 C16.5088455,32.6258444 15.1246114,32.9777294 13.7226035,32.9449481 C12.3411061,32.9782886 10.9769999,32.6315238 9.77912541,31.9424671 C8.66861889,31.2850442 7.77077947,30.3219363 7.19274991,29.1681136 C6.57396431,27.918448 6.26374757,26.5386868 6.28802463,25.1444476 C6.2622468,23.6843808 6.56681362,22.2373794 7.17894877,20.9115574 Z M9.9758432,27.7158154 C10.2776733,28.4783212 10.7895221,29.1396285 11.451977,29.6230216 C12.1267323,30.0946147 12.9347024,30.337915 13.7576508,30.317228 C14.6340675,30.3518927 15.4979485,30.100294 16.2187272,29.6004513 C16.8727955,29.1185884 17.3711963,28.4554861 17.6522511,27.6932451 C17.9664405,26.8419882 18.12149,25.940235 18.109631,25.0329496 C18.1193418,24.1169833 17.9735912,23.2060196 17.6785586,22.3388134 C17.4179848,21.555856 16.935651,20.8654457 16.2901459,20.3514193 C15.5874352,19.8279175 14.725879,19.5624 13.8503745,19.599566 C13.0095935,19.5777902 12.1835259,19.8230032 11.4908203,20.3000402 C10.8171538,20.7854638 10.2955942,21.452627 9.98711364,22.2235194 C9.30279468,23.990566 9.29923404,25.9487982 9.97707912,27.7183167 L9.9758432,27.7158154 Z" id="Shape" fill="#FFFFFF"></path>
                    <polygon id="Path" fill="#50D9FF" points="40.0988547 7.51853341 51.3766548 7.51853341 51.3766548 18.7963335 40.0988547 18.7963335"></polygon>
                </g>
            </g>
        </g>
    </g>
</svg>