<?xml version="1.0" encoding="UTF-8"?>
<svg width="70px" height="70px" viewBox="0 0 70 70" version="1.1" xmlns="http://www.w3.org/2000/svg" xmlns:xlink="http://www.w3.org/1999/xlink">
    <title>paypal</title>
    <g id="paypal" stroke="none" stroke-width="1" fill="none" fill-rule="evenodd">
        <g id="Group-48-Copy" transform="translate(14.000000, 11.000000)">
            <g id="Group" transform="translate(0.220001, 0.396001)">
                <g id="icon-/-paypal" transform="translate(2.750000, 0.000000)">
                    <path d="M16.5916527,46.9338368 C16.0196312,46.9338368 10.2758859,46.9275501 9.91172822,46.9338368 C9.54757052,46.9401236 9.21624922,46.8160832 9.0302375,46.5344492 C8.84422578,46.2528153 8.81628535,45.8078661 8.87577558,45.3749607 C8.93526582,44.9420554 10.276052,35.4953799 10.276052,35.4953799 L11.7439397,25.5468915 L13.6532024,12.3503238 C13.6532024,12.3503238 13.7176556,11.4952853 14.2355364,10.9972517 C14.7534173,10.499218 15.3937269,10.498441 15.699847,10.498441 C16.0059671,10.498441 26.0240777,10.5109439 26.0240777,10.5109439 C26.0240777,10.5109439 28.056736,10.5455212 29.6328405,10.8601079 C31.208945,11.1746945 33.2924245,12.0152874 34.4722068,13.433947 C35.6519891,14.8526065 36.297616,16.7999214 36.297616,19.3116343 C36.297616,21.8233473 35.3414217,24.9566046 35.2324959,25.3163995 C35.1235701,25.6761945 34.1889031,28.2393673 32.8976814,29.6753332 C31.6064597,31.1112991 30.0424723,32.5395301 27.3883893,33.2712345 C24.7343062,34.0029388 22.5765122,33.927674 22.5765122,33.927674 C22.5765122,33.927674 21.8400182,33.9328306 21.4913369,33.927674 C21.1426557,33.9225174 20.6182973,34.0170311 20.2598735,34.4986061 C19.9014497,34.9801811 19.8025463,35.3563995 19.7097338,36.0582946 C19.6169213,36.7601897 18.3486127,45.5337551 18.3486127,45.5337551 C18.3486127,45.5337551 18.2472602,46.1750074 17.8103324,46.5210986 C17.3734047,46.8671898 17.1636742,46.9338368 16.5916527,46.9338368 Z" id="Path-4" fill="#009BE1"></path>
                    <path d="M9.40951192,41.7393255 L1.07504235,41.7393255 C1.07504235,41.7393255 0.640083998,41.7402438 0.329677742,41.3325209 C0.0192714848,40.924798 0.0381884774,40.4348171 0.079019533,40.1640967 C0.119850589,39.8933763 2.43851958,23.6986466 2.43851958,23.6986466 L5.59240442,1.86774105 C5.59240442,1.86774105 5.69217786,1.06041861 6.14792591,0.655662509 C6.60367397,0.250906403 7.0413107,0.06639978 7.50389079,0.06639978 C7.96647088,0.06639978 21.3556103,0.0424534764 21.6846267,0.06639978 C22.0136431,0.0903460837 24.6688541,0.331292519 25.6136724,0.570119813 C26.5584908,0.808947107 28.5530573,1.43501227 29.6928463,2.43892043 C30.8326354,3.44282859 31.7026882,4.4603699 32.2690378,5.93190205 C32.8353874,7.4034342 33.0776023,9.81424068 32.7234968,12.0639217 C32.3693913,14.3136028 31.3160339,18.1936104 29.7333229,20.3940567 C28.1506119,22.594503 25.8378404,24.4732636 23.2474693,25.2187777 C20.6570981,25.9642919 18.9635278,26.1480921 16.3115394,26.1480921 C13.6595511,26.1480921 13.3273919,26.1364015 13.0625218,26.1364015 C12.7976516,26.1364015 12.2196038,26.2891563 11.873426,26.8001521 C11.5272483,27.3111478 11.402467,27.7044252 11.2304739,28.7789361 C11.0584807,29.8534471 9.40951192,41.7393255 9.40951192,41.7393255 Z" id="Path-3" fill="#002C8A" style="mix-blend-mode: multiply;"></path>
                </g>
            </g>
        </g>
    </g>
</svg>