<?xml version="1.0" encoding="UTF-8"?>
<svg width="70px" height="70px" viewBox="0 0 70 70" version="1.1" xmlns="http://www.w3.org/2000/svg" xmlns:xlink="http://www.w3.org/1999/xlink">
    <title>salesforce</title>
    <g id="salesforce" stroke="none" stroke-width="1" fill="none" fill-rule="evenodd">
        <g id="Group-47" transform="translate(0.000000, 10.000000)">
            <g id="Page-1" transform="translate(0.480000, 0.000001)">
                <path d="M29.2069945,5.40283513 C31.4702363,3.02502008 34.6215238,1.55001606 38.1071271,1.55001606 C42.7407995,1.55001606 46.7823364,4.15464492 48.9352415,8.02206641 C50.8064021,7.17956977 52.8766725,6.71038738 55.055391,6.71038738 C63.4117097,6.71038738 70.1869544,13.6017814 70.1869544,22.1022996 C70.1869544,30.6040875 63.4117097,37.4953228 55.055391,37.4953228 C54.03513,37.4953228 53.0386362,37.3913599 52.0740945,37.1958143 C50.1791666,40.6045291 46.5666997,42.9086971 42.4200201,42.9086971 C40.6848523,42.9086971 39.0438092,42.5050669 37.5810993,41.7852624 C35.660358,46.3434423 31.1823533,49.5399456 25.9648876,49.5399456 C20.5306834,49.5399456 15.8990572,46.0729799 14.1218638,41.2100537 C13.3450992,41.3754421 12.5393732,41.4627392 11.7141297,41.4627392 C5.24439667,41.4627392 1.57399109e-05,36.1192026 1.57399109e-05,29.5274758 C1.57399109e-05,25.1086539 2.35502121,21.2515494 5.856994,19.1876865 C5.13610608,17.5139625 4.73584014,15.6686599 4.73584014,13.727648 C4.73584014,6.14660666 10.8394628,-6.34888204e-05 18.3675474,-6.34888204e-05 C22.7877866,-6.34888204e-05 26.7158388,2.11903461 29.2069945,5.40283513" id="Fill-1" fill="#129CD7"></path>
                <path d="M10.1653067,25.6899576 C10.1209201,25.8064596 10.1807318,25.8304266 10.1952125,25.8502668 C10.3272704,25.9469286 10.46043,26.0166076 10.5954784,26.0946988 C11.3113296,26.4773777 11.9879884,26.5888005 12.694553,26.5888005 C14.1345974,26.5888005 15.0289392,25.8169352 15.0289392,24.5738241 L15.0289392,24.5500158 C15.0289392,23.4005507 14.0190665,22.9823181 13.0732552,22.6807462 L12.9493821,22.6412244 C12.2355772,22.4071094 11.6198319,22.2052149 11.6198319,21.7309535 L11.6198319,21.7069864 C11.6198319,21.3012929 11.9798036,21.0027367 12.5377835,21.0027367 C13.1577785,21.0027367 13.8933046,21.2108213 14.3667611,21.4750935 C14.3667611,21.4750935 14.5070037,21.5655651 14.5575288,21.4293816 C14.5855459,21.3554171 14.8247925,20.7052916 14.850606,20.6345015 C14.8773638,20.5586324 14.8299867,20.5014924 14.780406,20.4713353 C14.2387956,20.1394474 13.4909925,19.9127924 12.7173758,19.9127924 L12.5739853,19.9137447 C11.2556103,19.9137447 10.3356125,20.7167195 10.3356125,21.8672957 L10.3356125,21.891104 C10.3356125,23.1029469 11.350522,23.4972124 12.3016848,23.7708493 L12.4542045,23.8186246 C13.1475476,24.0330581 13.7447198,24.218128 13.7447198,24.7090553 L13.7447198,24.7341334 C13.7447198,25.1834755 13.355944,25.518379 12.7307548,25.518379 C12.4872583,25.518379 11.7126973,25.5142523 10.8761211,24.9806287 C10.7749134,24.9201556 10.717148,24.8776181 10.6387632,24.8298428 C10.5975246,24.8038124 10.4944282,24.7590527 10.4489399,24.8952363 L10.1653067,25.6899576 Z" id="Fill-4" fill="#FEFEFE"></path>
                <path d="M31.2423381,25.6899576 C31.1979516,25.8064596 31.2577632,25.8304266 31.2722439,25.8502668 C31.4043018,25.9469286 31.5374614,26.0166076 31.6725099,26.0946988 C32.388361,26.4773777 33.0650198,26.5888005 33.7715844,26.5888005 C35.2116288,26.5888005 36.1059706,25.8169352 36.1059706,24.5738241 L36.1059706,24.5500158 C36.1059706,23.4005507 35.0960979,22.9823181 34.1502866,22.6807462 L34.0264135,22.6412244 C33.3126086,22.4071094 32.6968633,22.2052149 32.6968633,21.7309535 L32.6968633,21.7069864 C32.6968633,21.3012929 33.056835,21.0027367 33.6148149,21.0027367 C34.23481,21.0027367 34.970336,21.2108213 35.4437925,21.4750935 C35.4437925,21.4750935 35.5840351,21.5655651 35.6345603,21.4293816 C35.6625773,21.3554171 35.9018239,20.7052916 35.9276374,20.6345015 C35.9543952,20.5586324 35.9070181,20.5014924 35.8574374,20.4713353 C35.3158271,20.1394474 34.5689683,19.9127924 33.7944073,19.9127924 L33.6510167,19.9137447 C32.3326417,19.9137447 31.4124865,20.7167195 31.4124865,21.8672957 L31.4124865,21.891104 C31.4124865,23.1029469 32.4286552,23.4972124 33.3787162,23.7708493 L33.531236,23.8186246 C34.224579,24.0330581 34.822853,24.218128 34.822853,24.7090553 L34.822853,24.7341334 C34.822853,25.1834755 34.4339198,25.518379 33.8077862,25.518379 C33.5642898,25.518379 32.7906731,25.5142523 31.9531525,24.9806287 C31.8519449,24.9201556 31.7921332,24.8796815 31.7157946,24.8298428 C31.6899812,24.813177 31.5683117,24.7652429 31.5270731,24.8952363 L31.2423381,25.6899576 Z" id="Fill-6" fill="#FEFEFE"></path>
                <path d="M45.6310564,23.2547328 C45.6310564,23.9569191 45.5010447,24.5113352 45.2452712,24.9024264 C44.9915438,25.2893907 44.6087492,25.4787461 44.075481,25.4787461 C43.541111,25.4787461 43.16052,25.2893907 42.910885,24.9024264 C42.658102,24.5113352 42.5302939,23.9569191 42.5302939,23.2547328 C42.5302939,22.5536575 42.658102,22.0001937 42.9097832,21.613388 C43.16052,21.2305504 43.541111,21.0442108 44.075481,21.0442108 C44.6087492,21.0442108 44.9915438,21.2305504 45.2452712,21.613388 C45.5010447,22.0001937 45.6310564,22.5536575 45.6310564,23.2547328 M46.8327986,21.9524183 C46.7152215,21.5498992 46.5305923,21.1951554 46.2861515,20.8997737 C46.0415533,20.6032809 45.7311622,20.3650391 45.3628483,20.1923495 C44.9956362,20.0196599 44.5623164,19.9314105 44.075481,19.9314105 C43.5875437,19.9314105 43.1532796,20.0196599 42.7860675,20.1923495 C42.4188554,20.3650391 42.1083069,20.6032809 41.8638661,20.900726 C41.6183235,21.1962665 41.4347961,21.5510103 41.317219,21.9524183 C41.1996419,22.3528741 41.1396728,22.7907882 41.1396728,23.2547328 C41.1396728,23.7186773 41.1996419,24.1577025 41.317219,24.5570472 C41.4347961,24.958614 41.6183235,25.3133578 41.8638661,25.6098506 C42.1083069,25.9061846 42.4199572,26.1434741 42.7871693,26.3118782 C43.1543814,26.480441 43.5875437,26.5656747 44.075481,26.5656747 C44.5623164,26.5656747 44.9946918,26.480441 45.3628483,26.3118782 C45.7300604,26.1434741 46.0406089,25.9061846 46.2861515,25.6098506 C46.5305923,25.3144688 46.7152215,24.959725 46.8327986,24.5570472 C46.9503757,24.1565915 47.0101874,23.7186773 47.0101874,23.2547328 C47.0101874,22.7907882 46.9503757,22.3528741 46.8327986,21.9524183" id="Fill-8" fill="#FEFEFE"></path>
                <path d="M56.7017227,25.2902954 C56.6625304,25.1726824 56.5479438,25.2176007 56.5479438,25.2176007 C56.373703,25.2850576 56.1879721,25.3464831 55.9890196,25.3777513 C55.7888079,25.4099719 55.5681344,25.4255266 55.3307765,25.4255266 C54.7501312,25.4255266 54.2869056,25.2507737 53.9558953,24.9065055 C53.6245702,24.5611263 53.4380522,24.0035358 53.439941,23.2494473 C53.4421446,22.5639268 53.6061545,22.0479214 53.9011204,21.6536558 C54.1940401,21.2627234 54.6407388,21.0617813 55.2349204,21.0617813 C55.7299406,21.0617813 56.1084855,21.120191 56.5046591,21.2449465 C56.5046591,21.2449465 56.5997281,21.2865317 56.6439573,21.1616175 C56.7503591,20.8662357 56.827642,20.6571988 56.940025,20.3337232 C56.971977,20.2410296 56.8935923,20.2026188 56.8646308,20.1911908 C56.7089631,20.1297654 56.341751,20.0289769 56.0631546,19.9862807 C55.8043904,19.9467589 55.4999805,19.9259663 55.1617299,19.9259663 C54.6572657,19.9259663 54.2074191,20.0132634 53.8227356,20.185953 C53.4380522,20.3576903 53.1130231,20.5957733 52.8541015,20.8922661 C52.5962818,21.1887589 52.4003199,21.5435027 52.2703082,21.9450695 C52.1393522,22.3453665 52.0743463,22.7843917 52.0743463,23.2503996 C52.0743463,24.255269 52.3425544,25.0676084 52.8737764,25.661705 C53.4061002,26.2597697 54.2044285,26.5624527 55.2462532,26.5624527 C55.8619985,26.5624527 56.4934837,26.4365861 56.9482098,26.2565953 C56.9482098,26.2565953 57.0349367,26.2138991 56.9966887,26.1119995 L56.7017227,25.2902954 Z" id="Fill-10" fill="#FEFEFE"></path>
                <path d="M58.8044804,22.5815608 C58.8622459,22.191422 58.9684903,21.8669941 59.1336019,21.6141499 C59.3822925,21.23036 59.7617818,21.0181486 60.2961518,21.0181486 C60.8305217,21.0181486 61.1821514,21.23036 61.4360361,21.6141499 C61.6041384,21.8679465 61.677329,22.2049134 61.7062904,22.5826718 L58.8044804,22.5815608 Z M62.8502671,21.7244617 C62.7481151,21.3352753 62.4953321,20.9432318 62.3302205,20.764352 C62.0683083,20.4792872 61.811433,20.2805672 61.5577056,20.1704141 C61.2266953,20.0267707 60.8283182,19.9321723 60.3920078,19.9321723 C59.8845531,19.9321723 59.4235311,20.0185171 59.0490786,20.1953335 C58.6746261,20.3721498 58.3599853,20.6145184 58.1123965,20.916249 C57.8657521,21.2168686 57.6800212,21.5746281 57.561657,21.9814327 C57.4429781,22.3850629 57.3831665,22.8250404 57.3831665,23.2899373 C57.3831665,23.7632465 57.4448669,24.204335 57.5677956,24.599553 C57.6915113,25.0000087 57.8896768,25.3506257 58.1567831,25.6429917 C58.4249912,25.9363101 58.768436,26.1650285 59.1800347,26.3262901 C59.5894298,26.4854884 60.0866536,26.5686587 60.6572253,26.5666328 C61.8320523,26.5634209 62.451103,26.2993074 62.7057747,26.156775 C62.7511057,26.1307446 62.7936034,26.087096 62.7408747,25.9602771 L62.4737684,25.2092043 C62.4334743,25.0979402 62.3210913,25.1384143 62.3210913,25.1384143 C62.029116,25.2476151 61.6164155,25.4431607 60.6509294,25.4410973 C60.0197589,25.4401449 59.552441,25.2528529 59.2595212,24.9584235 C58.9592037,24.658915 58.8107764,24.2178264 58.7860647,23.5948424 L62.8534151,23.5978581 C62.8534151,23.5978581 62.9606039,23.596747 62.972094,23.4907207 C62.976029,23.4470721 63.1112348,22.6480653 62.8502671,21.7244617 L62.8502671,21.7244617 Z" id="Fill-12" fill="#FEFEFE"></path>
                <path d="M26.2237147,22.5815608 C26.2814802,22.191422 26.3877246,21.8669941 26.5517345,21.6141499 C26.8023138,21.23036 27.1810161,21.0181486 27.7153861,21.0181486 C28.2495987,21.0181486 28.6024875,21.23036 28.8562148,21.6141499 C29.0233727,21.8679465 29.0965633,22.2049134 29.1255247,22.5826718 L26.2237147,22.5815608 Z M30.269344,21.7244617 C30.1673494,21.3352753 29.9145664,20.9432318 29.7494548,20.764352 C29.4875427,20.4792872 29.2316117,20.2805672 28.9769399,20.1704141 C28.6446704,20.0267707 28.2475525,19.9321723 27.8121865,19.9321723 C27.30363,19.9321723 26.842608,20.0185171 26.4681555,20.1953335 C26.0937031,20.3721498 25.7790622,20.6145184 25.5316308,20.916249 C25.2849864,21.2168686 25.0992555,21.5746281 24.980734,21.9814327 C24.862055,22.3850629 24.8022434,22.8250404 24.8022434,23.2899373 C24.8022434,23.7632465 24.8641012,24.204335 24.9868725,24.599553 C25.1107456,25.0000087 25.3087537,25.3506257 25.57586,25.6429917 C25.8440681,25.9363101 26.1876703,26.1650285 26.5991116,26.3262901 C27.0086641,26.4854884 27.5058879,26.5686587 28.0763022,26.5666328 C29.2512866,26.5634209 29.8701799,26.2993074 30.125009,26.156775 C30.17034,26.1307446 30.2126803,26.087096 30.160109,25.9602771 L29.8928454,25.2092043 C29.8527086,25.0979402 29.7401682,25.1384143 29.7401682,25.1384143 C29.4483503,25.2476151 29.0356498,25.4431607 28.0701637,25.4410973 C27.4399376,25.4401449 26.9715179,25.2528529 26.6785981,24.9584235 C26.378438,24.658915 26.2298533,24.2178264 26.2051416,23.5948424 L30.272492,23.5978581 C30.272492,23.5978581 30.3798382,23.596747 30.3911709,23.4907207 C30.3952633,23.4470721 30.5303118,22.6480653 30.269344,21.7244617 L30.269344,21.7244617 Z" id="Fill-14" fill="#FEFEFE"></path>
                <path d="M17.4304089,25.2678204 C17.2704914,25.1398904 17.2489277,25.1076699 17.196199,25.0244995 C17.1148236,24.8986329 17.0734277,24.7195944 17.0734277,24.490876 C17.0734277,24.1308944 17.1921066,23.8709076 17.4367048,23.697107 C17.4345012,23.697107 17.78739,23.3893449 18.6167259,23.4006142 C19.1995748,23.4079154 19.7215103,23.4953713 19.7215103,23.4953713 L19.7215103,25.3605141 C19.7215103,25.3605141 19.2046116,25.4717782 18.6228645,25.5071733 C17.7955748,25.558123 17.4272609,25.2668681 17.4304089,25.2678204 M19.0489439,22.385428 C18.8838322,22.3730476 18.6702416,22.3668575 18.4144681,22.3668575 C18.0658291,22.3668575 17.7285228,22.410506 17.4118358,22.4968508 C17.0942044,22.5830369 16.8083676,22.7162047 16.562825,22.8931798 C16.3153936,23.0720595 16.1172281,23.2998257 15.9728931,23.5702881 C15.8284007,23.8407504 15.7552101,24.1589882 15.7552101,24.5146843 C15.7552101,24.8787927 15.817068,25.1940146 15.9418855,25.451938 C16.0657586,25.7109724 16.2440918,25.9273105 16.4721631,26.09381 C16.6980308,26.2601507 16.9775716,26.3820492 17.3003972,26.455855 C17.6202322,26.5296607 17.9822501,26.5671191 18.3784237,26.5671191 C18.7961609,26.5671191 19.2109076,26.5317241 19.6141641,26.4631562 C20.0134856,26.3944295 20.5023673,26.2945934 20.6385175,26.2623728 C20.7737233,26.2311045 20.9232525,26.1895194 20.9232525,26.1895194 C21.0243027,26.1634889 21.016118,26.0552405 21.016118,26.0552405 L21.0140718,22.304321 C21.0140718,21.4803948 20.7963888,20.8709021 20.3682632,20.4923501 C19.9412394,20.1158613 19.3119578,19.9253949 18.4991488,19.9253949 C18.1937945,19.9253949 17.7038111,19.9669801 17.4086878,20.0263421 C17.4086878,20.0263421 16.520642,20.199984 16.1554761,20.4891756 C16.1554761,20.4891756 16.0750451,20.5391731 16.1183299,20.6525006 L16.4060555,21.4326195 C16.4422572,21.5335667 16.5401595,21.499124 16.5401595,21.499124 C16.5401595,21.499124 16.5711671,21.4867437 16.6073689,21.4649988 C17.3891703,21.0362905 18.3793681,21.0488296 18.3793681,21.0488296 C18.8188264,21.0488296 19.1572345,21.1393011 19.3851484,21.3140541 C19.6069237,21.4867437 19.7193067,21.744667 19.7193067,22.2917819 L19.7193067,22.4655826 C19.3708251,22.4144741 19.0489439,22.385428 19.0489439,22.385428" id="Fill-16" fill="#FEFEFE"></path>
                <path d="M51.8610863,20.2715518 C51.8919365,20.1790169 51.8270881,20.1342572 51.8001728,20.1237816 C51.7310746,20.0979099 51.3844818,20.0239454 51.1183199,20.0063273 C50.6067728,19.975059 50.3229822,20.0614038 50.0692548,20.1769535 C49.8164718,20.2913921 49.536931,20.477573 49.3822077,20.6886734 L49.3812633,20.1883815 C49.3812633,20.1196548 49.3327844,20.0645783 49.2646306,20.0645783 L48.2217041,20.0645783 C48.1537077,20.0645783 48.1052287,20.1196548 48.1052287,20.1883815 L48.1052287,26.3079101 C48.1052287,26.3764781 48.1598462,26.4317133 48.2289444,26.4317133 L49.2976844,26.4317133 C49.3656808,26.4317133 49.4204557,26.3764781 49.4204557,26.3079101 L49.4204557,23.2507647 C49.4204557,22.8398333 49.4657866,22.4309653 49.5556615,22.174153 C49.6433328,21.9192454 49.7627987,21.7163986 49.9113835,21.5708505 C50.0599683,21.4251437 50.2291723,21.3232441 50.4149033,21.2661042 C50.6036248,21.2076945 50.8129656,21.1880129 50.9595042,21.1880129 C51.1729374,21.1880129 51.4060455,21.2442005 51.4060455,21.2442005 C51.485532,21.2524541 51.5289742,21.2037264 51.555732,21.1327777 C51.6248302,20.9456444 51.8239401,20.3829747 51.8610863,20.2715518" id="Fill-18" fill="#FEFEFE"></path>
                <path d="M41.8288133,17.4356491 C41.6988017,17.3951749 41.5812245,17.3680335 41.4265012,17.3399397 C41.2697317,17.3107348 41.0840007,17.2962911 40.8735581,17.2962911 C40.1380321,17.2962911 39.5583312,17.5064391 39.1509823,17.9203862 C38.7464666,18.3313176 38.4711755,18.9574761 38.3329791,19.7802912 L38.2833984,20.0580548 L37.3600952,20.0580548 C37.3600952,20.0580548 37.2467678,20.053928 37.2241024,20.1775725 L37.0723696,21.0305448 C37.0610369,21.1118105 37.0961369,21.1626015 37.2044275,21.1626015 L38.1039634,21.1626015 L37.1910486,26.2972599 C37.1199042,26.7100959 37.0383714,27.050396 36.9475521,27.3083193 C36.858779,27.5630682 36.7712651,27.753376 36.6639189,27.8917816 C36.5597207,28.0249494 36.4616611,28.1247856 36.2915127,28.1820842 C36.15127,28.2289072 35.9893064,28.2506522 35.812862,28.2506522 C35.7149597,28.2506522 35.5838463,28.2341451 35.4868884,28.2143048 C35.3899306,28.1955756 35.3394054,28.173672 35.2671592,28.1435148 C35.2671592,28.1435148 35.1620166,28.1030407 35.1196763,28.209067 C35.0867799,28.2965228 34.8473758,28.9610921 34.8184144,29.0433101 C34.7896104,29.1245758 34.8299045,29.1879059 34.881374,29.2066351 C35.0011548,29.2493313 35.0897705,29.2774251 35.2528359,29.3158358 C35.479648,29.3699601 35.6705732,29.3729758 35.8489064,29.3729758 C36.2233588,29.3729758 36.5649149,29.3199626 36.8476037,29.2171107 C37.1321813,29.1129891 37.3797701,28.9320459 37.5994993,28.6885663 C37.8357553,28.4244528 37.9852845,28.1478003 38.1275733,27.7702005 C38.2689177,27.3967275 38.3886984,26.9326243 38.4856562,26.3918582 L39.4015617,21.1626015 L40.7415003,21.1626015 C40.7415003,21.1626015 40.854985,21.166887 40.8778079,21.0430838 L41.0293832,20.1901115 C41.0396142,20.1090046 41.005616,20.0580548 40.8973254,20.0580548 L39.5965792,20.0580548 C39.6027177,20.0288499 39.661585,19.5669688 39.8111141,19.1331814 C39.8750182,18.9470004 39.9947989,18.7982779 40.0969509,18.695426 C40.195955,18.5944787 40.3113285,18.5227364 40.4372478,18.4809925 C40.5663151,18.4394073 40.7126962,18.4186147 40.8735581,18.4186147 C40.9963294,18.4186147 41.1159528,18.4332171 41.2078738,18.4519463 C41.3336357,18.4789291 41.3832164,18.4935315 41.4161129,18.5028961 C41.5481707,18.5444813 41.5657994,18.5049595 41.5925573,18.4405184 L41.9031057,17.5791338 C41.9350577,17.4865988 41.8577748,17.447077 41.8288133,17.4356491" id="Fill-20" fill="#FEFEFE"></path>
                <path d="M23.6544418,26.3078784 C23.6544418,26.376605 23.6059629,26.4327926 23.5378091,26.4327926 L22.4588382,26.4327926 C22.3908418,26.4327926 22.3423629,26.376605 22.3423629,26.3078784 L22.3423629,17.5524526 C22.3423629,17.483726 22.3908418,17.4286494 22.4588382,17.4286494 L23.5378091,17.4286494 C23.6059629,17.4286494 23.6544418,17.483726 23.6544418,17.5524526 L23.6544418,26.3078784 Z" id="Fill-22" fill="#FEFEFE"></path>
            </g>
        </g>
    </g>
</svg>