<?xml version="1.0" encoding="UTF-8"?>
<svg width="182px" height="207px" viewBox="0 0 182 207" version="1.1" xmlns="http://www.w3.org/2000/svg" xmlns:xlink="http://www.w3.org/1999/xlink">
    <title>OH SO image 01</title>
    <g id="OH-SO-image-01" stroke="none" stroke-width="1" fill="none" fill-rule="evenodd">
        <g id="Group-87-Copy" transform="translate(-3.000000, 1.000000)">
            <polygon id="Line-2-Copy-2" fill="#E8E8E8" fill-rule="nonzero" points="99.75 23.7456055 99.75 111.245605 97.25 111.245605 97.25 23.7456055"></polygon>
            <polygon id="Line-2-Copy-10" fill="#E8E8E8" fill-rule="nonzero" points="134.75 23.7456055 134.75 111.245605 132.25 111.245605 132.25 23.7456055"></polygon>
            <polygon id="Line-2-Copy-11" fill="#E8E8E8" fill-rule="nonzero" points="169.250615 23.246232 169.258163 25.7462206 26.2537794 26.1779449 26.246232 23.6779563"></polygon>
            <polygon id="Line-2-Copy-12" fill="#E8E8E8" fill-rule="nonzero" points="169.250615 53.246232 169.258163 55.7462206 26.2537794 56.1779449 26.246232 53.6779563"></polygon>
            <polygon id="Line-2-Copy-13" fill="#E8E8E8" fill-rule="nonzero" points="169.250615 87.246232 169.258163 89.7462206 26.2537794 90.1779449 26.246232 87.6779563"></polygon>
            <polygon id="Line-2-Copy-14" fill="#E8E8E8" fill-rule="nonzero" points="63.75 116.674177 63.75 119.174177 26.25 119.174177 26.25 116.674177"></polygon>
            <polygon id="Line-2-Copy-16" fill="#E8E8E8" fill-rule="nonzero" points="170.75 0.674176897 170.75 3.1741769 25.25 3.1741769 25.25 0.674176897"></polygon>
            <polygon id="Line-2-Copy-3" fill="#E8E8E8" fill-rule="nonzero" points="63.75 23.7456055 63.75 148.174177 61.25 148.174177 61.25 23.7456055"></polygon>
            <polygon id="Shape-Copy" fill="#E8E8E8" fill-rule="nonzero" points="27.75 148.674177 25.25 148.674177 25.25 1.1741769 27.75 1.1741769"></polygon>
            <ellipse id="Oval-Copy-5" fill="#DADADA" cx="40" cy="203.021192" rx="29" ry="2.59701493"></ellipse>
            <g id="Group-95" transform="translate(0.000000, 142.424177)">
                <path d="M75.250941,25.8925492 L77.1247926,26.5916059 L76.7752642,27.5285317 C76.2911192,28.8263031 75.4885368,30.0715203 74.3759459,31.264628 C71.149493,34.7245751 68.62263,36.3052072 66.585117,35.8162022 L66.4116665,35.7692145 L65.4544333,35.479897 L66.0330683,33.5654307 L66.9903015,33.8547482 C68.043318,34.1730156 70.0938904,32.9240119 72.9132385,29.9006313 C73.760068,28.9925178 74.3792822,28.0723741 74.7770257,27.1405246 L74.9014126,26.8294749 L75.250941,25.8925492 Z" id="Path" fill="#3E4952" fill-rule="nonzero" transform="translate(71.289613, 30.897861) scale(-1, 1) rotate(47.000000) translate(-71.289613, -30.897861) "></path>
                <g id="Group-4-Copy-4" transform="translate(40.432742, 25.795021) scale(-1, 1) rotate(360.000000) translate(-40.432742, -25.795021) translate(15.932742, 1.795021)"></g>
                <path d="M65.6157736,15.0450205 L21.9319879,15.0450205 L22.0903952,50.7950205 L65.9419064,50.7950205 L65.6157736,15.0450205 Z M63.633,17.045 L63.923,48.795 L24.081,48.795 L23.94,17.045 L63.633,17.045 Z" id="Rectangle-3-Copy-12" fill="#3E4952" fill-rule="nonzero" transform="translate(43.936947, 32.920021) scale(-1, 1) rotate(360.000000) translate(-43.936947, -32.920021) "></path>
                <polygon id="Rectangle-8-Copy-12" fill="#00A1E7" transform="translate(43.932742, 11.920021) scale(-1, 1) rotate(360.000000) translate(-43.932742, -11.920021) " points="22.9327422 6.29502054 64.9327422 6.29502054 64.9327422 17.5450205 22.9327422 17.5450205"></polygon>
                <path d="M65.9327422,5.29502054 L21.9327422,5.29502054 L21.9327422,18.5450205 L65.9327422,18.5450205 L65.9327422,5.29502054 Z M63.932,7.295 L63.932,16.545 L23.932,16.545 L23.932,7.295 L63.932,7.295 Z" id="Rectangle-8-Copy-12" fill="#3E4952" fill-rule="nonzero" transform="translate(43.932742, 11.920021) scale(-1, 1) rotate(360.000000) translate(-43.932742, -11.920021) "></path>
                <path d="M23.7727648,5.29502054 L14.2727648,5.29502054 L14.2727648,50.7950205 L23.7727648,50.7950205 L23.7727648,5.29502054 Z M21.772,7.295 L21.772,48.795 L16.272,48.795 L16.272,7.295 L21.772,7.295 Z" id="Rectangle-8-Copy-13" fill="#3E4952" fill-rule="nonzero" transform="translate(19.022765, 28.045021) scale(-1, 1) rotate(360.000000) translate(-19.022765, -28.045021) "></path>
                <path d="M56.0498533,1.09245978 C58.962714,1.09245978 61.3237524,3.45504237 61.3237524,6.36915419 C61.3237524,9.2104132 59.0792205,11.5274446 56.2671816,11.6415203 L56.0497798,11.645922 L56.0497798,9.64592201 C57.8577783,9.64592201 59.3237524,8.17898912 59.3237524,6.36915419 C59.3237524,4.55931925 57.8578517,3.09245978 56.0498533,3.09245978 C54.3041996,3.09245978 52.8773891,4.45996917 52.7810641,6.18327259 L52.7758808,6.36922761 L50.7758808,6.36922761 C50.7758808,3.4551158 53.1369925,1.09245978 56.0498533,1.09245978 Z" id="Oval-4-Copy-12" fill="#3E4952" fill-rule="nonzero" transform="translate(56.049817, 6.369191) scale(-1, 1) rotate(268.000000) translate(-56.049817, -6.369191) "></path>
                <path d="M43.5098915,1.09245978 C46.4227522,1.09245978 48.7837906,3.45504237 48.7837906,6.36915419 C48.7837906,9.2104132 46.5392587,11.5274446 43.7272198,11.6415203 L43.5098181,11.645922 L43.5098181,9.64592201 C45.3178165,9.64592201 46.7837906,8.17898912 46.7837906,6.36915419 C46.7837906,4.55931925 45.3178899,3.09245978 43.5098915,3.09245978 C41.7642379,3.09245978 40.3374273,4.45996917 40.2411023,6.18327259 L40.235919,6.36922761 L38.235919,6.36922761 C38.235919,3.4551158 40.5970308,1.09245978 43.5098915,1.09245978 Z" id="Oval-4-Copy-13" fill="#3E4952" fill-rule="nonzero" transform="translate(43.509855, 6.369191) scale(-1, 1) rotate(268.000000) translate(-43.509855, -6.369191) "></path>
                <path d="M30.9699297,1.09245978 C33.8827905,1.09245978 36.2438288,3.45504237 36.2438288,6.36915419 C36.2438288,9.2104132 33.9992969,11.5274446 31.187258,11.6415203 L30.9698563,11.645922 L30.9698563,9.64592201 C32.7778547,9.64592201 34.2438288,8.17898912 34.2438288,6.36915419 C34.2438288,4.55931925 32.7779281,3.09245978 30.9699297,3.09245978 C29.2242761,3.09245978 27.7974656,4.45996917 27.7011405,6.18327259 L27.6959572,6.36922761 L25.6959572,6.36922761 C25.6959572,3.4551158 28.057069,1.09245978 30.9699297,1.09245978 Z" id="Oval-4-Copy-14" fill="#3E4952" fill-rule="nonzero" transform="translate(30.969893, 6.369191) scale(-1, 1) rotate(268.000000) translate(-30.969893, -6.369191) "></path>
                <ellipse id="Oval-18-Copy-4" fill="#3E4952" transform="translate(53.572814, 25.557296) scale(-1, 1) rotate(360.000000) translate(-53.572814, -25.557296) " cx="53.5728135" cy="25.557296" rx="2.27999305" ry="2.28036241"></ellipse>
                <ellipse id="Oval-18-Copy-5" fill="#3E4952" transform="translate(41.602850, 25.557296) scale(-1, 1) rotate(360.000000) translate(-41.602850, -25.557296) " cx="41.60285" cy="25.557296" rx="2.27999305" ry="2.28036241"></ellipse>
                <path d="M8.20301064,22.3267992 L10.1543014,22.7655067 L9.93494766,23.7411521 L9.71475886,24.7468151 L9.51477226,25.7150964 L9.33496162,26.6459136 C9.27838448,26.9499329 9.22516563,27.2476944 9.17530069,27.5391843 L9.0357632,28.394826 C8.99260169,28.6737593 8.95278972,28.9464072 8.9163229,29.2127562 L8.81695355,29.9928925 C8.62337785,31.6421847 8.57095015,33.0247639 8.65846882,34.1368557 C8.83135717,36.3337323 9.6886771,39.2072789 11.2383531,42.7359175 L11.4539647,43.2211539 L11.8638997,44.1332687 L10.0396701,44.9531386 L9.6297352,44.0410238 C7.85777915,40.0983803 6.86639359,36.8575128 6.66463347,34.2937652 C6.52337375,32.4987908 6.70102238,30.1582316 7.19382781,27.260304 L7.35992233,26.3266277 C7.4187763,26.0092173 7.48111793,25.6856173 7.54694285,25.3558141 L7.75486312,24.3477805 C7.79125669,24.1766687 7.82851998,24.0040026 7.86665245,23.8297805 L8.20301064,22.3267992 Z" id="Line-21-Copy-26" fill="#3E4952" fill-rule="nonzero" transform="translate(9.240782, 33.639969) rotate(-326.000000) translate(-9.240782, -33.639969) "></path>
                <polygon id="Line-21-Copy-27" fill="#3E4952" fill-rule="nonzero" transform="translate(37.245602, 54.743687) rotate(-360.000000) translate(-37.245602, -54.743687) " points="36.3402104 49.4471985 38.3398903 49.4829783 38.1509928 60.0401752 36.1513129 60.0043954"></polygon>
                <polygon id="Line-21-Copy-27" fill="#3E4952" fill-rule="nonzero" transform="translate(47.572589, 54.650351) rotate(-360.000000) translate(-47.572589, -54.650351) " points="48.5725887 49.2782562 48.5725887 60.0224453 46.5725887 60.0224453 46.5725887 49.2782562"></polygon>
            </g>
            <polygon id="Path-Copy" fill="#E8E8E8" fill-rule="nonzero" points="170.75 0.745605469 170.75 111.245605 168.25 111.245605 168.25 0.745605469"></polygon>
            <path d="M80,42.3735817 C94.0832611,42.3735817 105.5,53.7903205 105.5,67.8735817 C105.5,81.8160102 94.3104542,93.1449802 80.4216891,93.3701654 L80,93.3735817 L79.8952268,93.369918 C70.1212511,92.6855458 64.4533699,85.4576 62.8087582,72.0996003 L62.6968776,71.1232896 C62.4521698,68.8203429 62.321872,66.3432726 62.3055865,63.6940632 L62.3038417,63.1237414 L65.3038417,63.1237414 L65.3098189,64.176445 L65.3277457,65.2078734 L65.3576153,66.2180614 L65.3994206,67.2070437 C65.4073824,67.3701089 65.4158412,67.5322919 65.424797,67.6935936 L65.4844929,68.6508323 C65.4954356,68.8086113 65.506875,68.9655102 65.5188107,69.12153 L65.5963816,70.0471033 C65.6242236,70.3521147 65.6540503,70.6536149 65.6858605,70.9516098 L65.7872404,71.8350842 C67.2361691,83.6201768 71.936634,89.6650924 79.8116544,90.354172 L80.048,90.373 L80.3720786,90.3705673 C92.5030856,90.1738815 102.3003,80.3766672 102.496986,68.2456603 L102.5,67.8735817 C102.5,55.4471748 92.4264069,45.3735817 80,45.3735817 C67.6978572,45.3735817 57.7017071,55.2467103 57.5030144,67.501503 L57.5,67.8735817 L54.5,67.8735817 C54.5,53.7903205 65.9167389,42.3735817 80,42.3735817 Z" id="Oval-Copy-11" fill="#049BDE" fill-rule="nonzero" transform="translate(80.000000, 67.873582) scale(-1, 1) rotate(-255.000000) translate(-80.000000, -67.873582) "></path>
            <g id="Group-95-Copy" transform="translate(67.000000, 115.873582)">
                <path d="M105.168318,0.794205295 L104.873879,0.790003178 L71.0830066,0.790003178 C64.940081,0.790003178 59.919801,5.68420002 59.7542077,11.8116961 L59.7500055,12.1061348 L59.7500055,13.1370044 C59.7500055,19.27993 64.6442024,24.30021 70.7716984,24.4658034 L71.0661371,24.4700055 L104.85701,24.4700055 C110.999935,24.4700055 116.020215,19.5758086 116.185809,13.4483126 L116.190011,13.1538739 L116.190011,12.1230043 C116.190011,5.98007868 111.295814,0.959798684 105.168318,0.794205295 Z M71.0830066,3.29000318 L104.85701,3.29000318 L105.11768,3.29363525 C109.875242,3.42232098 113.690011,7.33536515 113.690011,12.1230043 L113.690011,13.1370044 L113.686379,13.3976746 C113.557693,18.1552365 109.644649,21.9700055 104.85701,21.9700055 L71.0830066,21.9700055 L70.8223364,21.9663734 C66.0647745,21.8376877 62.2500055,17.9246435 62.2500055,13.1370044 L62.2500055,12.1230043 L62.2536376,11.8623341 C62.3823233,7.10477217 66.2953675,3.29000318 71.0830066,3.29000318 Z" id="Rectangle-8" fill="#049BDE" fill-rule="nonzero"></path>
                <path d="M46.1683125,33.7542021 L45.8738738,33.75 L12.0830011,33.75 C5.9400755,33.75 0.919795506,38.6441968 0.754202117,44.7716929 L0.75,45.0661316 L0.75,46.0970012 C0.75,52.2399268 5.64419684,57.2602068 11.7716929,57.4258002 L12.0661316,57.4300023 L45.8570043,57.4300023 C51.9999299,57.4300023 57.0202099,52.5358054 57.1858033,46.4083094 L57.1900054,46.1138707 L57.1900054,45.0830011 C57.1900054,38.9400755 52.2958086,33.9197955 46.1683125,33.7542021 Z M12.0830011,36.25 L45.8570043,36.25 L46.1176745,36.2536321 C50.8752364,36.3823178 54.6900054,40.295362 54.6900054,45.0830011 L54.6900054,46.0970012 L54.6863733,46.3576714 C54.5576876,51.1152333 50.6446434,54.9300023 45.8570043,54.9300023 L12.0830011,54.9300023 L11.8223309,54.9263702 C7.06476899,54.7976845 3.25,50.8846403 3.25,46.0970012 L3.25,45.0830011 L3.25363207,44.8223309 C3.3823178,40.064769 7.29536197,36.25 12.0830011,36.25 Z" id="Rectangle-8-Copy-2" fill="#049BDE" fill-rule="nonzero"></path>
                <rect id="Rectangle-8-Copy-5" fill="#E9E9E9" x="60" y="34" width="56.9400054" height="24.1800023" rx="12.0900011"></rect>
                <path d="M73.09821,16.87141 C73.7989913,16.87141 74.3641866,16.7045936 74.7937961,16.3709608 C75.2234055,16.0373279 75.4382102,15.5962927 75.4382102,15.0478552 C75.4382102,14.7005114 75.3292844,14.3813512 75.1114328,14.0903746 C74.8935812,13.799398 74.5348117,13.5198472 74.0351241,13.2517222 C74.4555929,13.0414878 74.7602804,12.8030698 74.9491867,12.5364682 C75.138093,12.2698666 75.2325461,11.9659408 75.2325461,11.6246908 C75.2325461,11.131097 75.0367844,10.7388118 74.6452609,10.4478352 C74.2537374,10.1568586 73.7380538,10.0113703 73.09821,10.0113703 C72.461413,10.0113703 71.9449677,10.1591438 71.5488739,10.4546907 C71.1527801,10.7502376 70.9547332,11.1371907 70.9547332,11.6155502 C70.9547332,11.9415658 71.0385223,12.241683 71.2061004,12.5159018 C71.3736785,12.7901206 71.6478973,13.0475815 72.0287567,13.2882847 C71.5808661,13.5137535 71.2556121,13.7742613 71.0529949,14.0698082 C70.8503777,14.3653551 70.7490691,14.7035583 70.7490691,15.0844177 C70.7490691,15.6541834 70.9577801,16.0944568 71.375202,16.4052381 C71.7926239,16.7160194 72.3669599,16.87141 73.09821,16.87141 Z M73.09821,12.6621518 C72.7904756,12.5098081 72.577956,12.3612729 72.4606513,12.2165463 C72.3433466,12.0718197 72.2846943,11.9080502 72.2846943,11.7252377 C72.2846943,11.5180501 72.358581,11.3527572 72.5063544,11.2293587 C72.6541279,11.1059603 72.8483662,11.044261 73.0890693,11.044261 C73.3267256,11.044261 73.5217256,11.1051985 73.6740694,11.2270736 C73.8264132,11.3489486 73.902585,11.5150033 73.902585,11.7252377 C73.902585,11.9171908 73.843171,12.0862924 73.7243428,12.2325424 C73.6055147,12.3787924 73.3968037,12.5219956 73.09821,12.6621518 Z M73.0799287,15.833949 C72.7630537,15.833949 72.5132099,15.760824 72.3303974,15.614574 C72.1475849,15.468324 72.0561786,15.2641833 72.0561786,15.002152 C72.0561786,14.5451207 72.3806708,14.1673082 73.0296553,13.8687144 C73.4166084,14.0698082 73.6961592,14.2594762 73.8683077,14.4377184 C74.0404561,14.6159606 74.1265304,14.807152 74.1265304,15.0112927 C74.1265304,15.2580896 74.0396944,15.4568982 73.8660225,15.6077185 C73.6923506,15.7585388 73.4303194,15.833949 73.0799287,15.833949 Z M77.1018041,13.1283237 C77.348601,13.1283237 77.5428393,13.0605308 77.684519,12.9249448 C77.8261987,12.7893589 77.8970385,12.5981674 77.8970385,12.3513705 C77.8970385,12.1015268 77.8277221,11.9095736 77.6890893,11.7755111 C77.5504565,11.6414486 77.3546947,11.5744173 77.1018041,11.5744173 C76.8397728,11.5744173 76.6402025,11.6399252 76.5030931,11.7709408 C76.3659837,11.9019564 76.297429,12.095433 76.297429,12.3513705 C76.297429,12.6012143 76.3675071,12.7931675 76.5076634,12.92723 C76.6478197,13.0612925 76.8458666,13.1283237 77.1018041,13.1283237 Z M77.1018041,16.9034022 C77.3516479,16.9034022 77.5466479,16.8340858 77.6868041,16.695453 C77.8269604,16.5568202 77.8970385,16.3671522 77.8970385,16.126449 C77.8970385,15.8766052 77.8277221,15.6846521 77.6890893,15.5505896 C77.5504565,15.4165271 77.3546947,15.3494958 77.1018041,15.3494958 C76.8397728,15.3494958 76.6402025,15.4150036 76.5030931,15.5460193 C76.3659837,15.6770349 76.297429,15.8705115 76.297429,16.126449 C76.297429,16.3732459 76.3675071,16.5644373 76.5076634,16.7000233 C76.6478197,16.8356092 76.8458666,16.9034022 77.1018041,16.9034022 Z M80.7169216,16.87141 C81.5822342,16.87141 82.2479764,16.6924061 82.7141484,16.3343983 C83.1803203,15.9763904 83.4134062,15.4759411 83.4134062,14.8330505 C83.4134062,14.3912535 83.2747734,14.0401012 82.9975078,13.7795933 C82.7202421,13.5190855 82.3119608,13.3553159 81.7726639,13.2882847 L81.7726639,13.2882847 L81.7726639,13.2608628 C82.2296952,13.1511753 82.5846562,12.9500815 82.8375468,12.6575815 C83.0904375,12.3650815 83.2168828,12.0101205 83.2168828,11.5926986 C83.2168828,11.093011 83.0165507,10.703011 82.6158866,10.4226985 C82.2152225,10.142386 81.6690701,10.0022297 80.9774295,10.0022297 C80.133445,10.0022297 79.4067652,10.2216047 78.7973902,10.6603548 L78.7973902,10.6603548 L79.4509449,11.6338314 C79.7282106,11.4540658 79.9803395,11.3276204 80.2073317,11.2544954 C80.4343239,11.1813704 80.6575075,11.1448079 80.8768826,11.1448079 C81.5106326,11.1448079 81.8275077,11.3976986 81.8275077,11.9034799 C81.8275077,12.2325424 81.7079178,12.4648666 81.4687381,12.6004526 C81.2295584,12.7360385 80.8509841,12.8038315 80.3330153,12.8038315 L80.3330153,12.8038315 L79.81657,12.8038315 L79.81657,13.8869957 L80.3238747,13.8869957 C80.8844998,13.8869957 81.292781,13.9525035 81.5487186,14.0835191 C81.8046561,14.2145348 81.9326249,14.4369567 81.9326249,14.7507848 C81.9326249,15.1011755 81.8214139,15.3555896 81.598992,15.5140271 C81.3765701,15.6724646 81.0322732,15.7516834 80.5661013,15.7516834 C80.2614138,15.7516834 79.9536794,15.7105505 79.6428981,15.6282849 C79.3321168,15.5460193 79.047234,15.4393786 78.7882496,15.308363 L78.7882496,15.308363 L78.7882496,16.5103553 C79.3488746,16.7510585 79.9917653,16.87141 80.7169216,16.87141 Z M86.4435237,16.87141 C87.2387582,16.87141 87.8275668,16.5910975 88.2099497,16.0304724 C88.5923325,15.4698474 88.7835239,14.6060583 88.7835239,13.439105 C88.7835239,12.3117612 88.5862388,11.4555892 88.1916684,10.8705891 C87.7970981,10.2855891 87.2143832,9.99308906 86.4435237,9.99308906 C85.6513361,9.99308906 85.0648127,10.2726399 84.6839532,10.8317415 C84.3030938,11.3908431 84.1126641,12.2599643 84.1126641,13.439105 C84.1126641,14.5694957 84.3084259,15.4241443 84.6999493,16.0030506 C85.0914728,16.5819569 85.6726643,16.87141 86.4435237,16.87141 Z M86.4435237,15.7334021 C86.1083674,15.7334021 85.8699494,15.5559216 85.7282697,15.2009607 C85.58659,14.8459997 85.5157502,14.2587145 85.5157502,13.439105 C85.5157502,12.6194956 85.5873518,12.0306869 85.7305549,11.6726791 C85.873758,11.3146712 86.1114143,11.1356673 86.4435237,11.1356673 C86.7695394,11.1356673 87.0064339,11.3146712 87.1542074,11.6726791 C87.3019808,12.0306869 87.3758676,12.6194956 87.3758676,13.439105 C87.3758676,14.2495738 87.3027426,14.8345739 87.1564925,15.1941052 C87.0102425,15.5536365 86.7725863,15.7334021 86.4435237,15.7334021 Z M93.0750478,16.7800038 L93.559501,15.1895349 L95.9954778,15.1895349 L96.4799309,16.7800038 L98.0064154,16.7800038 L95.6389933,10.0707844 L93.9068447,10.0707844 L91.5485633,16.7800038 L93.0750478,16.7800038 Z M95.6572746,14.0012535 L93.9159854,14.0012535 C94.3912979,12.4625815 94.6792276,11.4982455 94.7797745,11.1082454 C94.8041495,11.2179329 94.8445206,11.3672298 94.9008878,11.5561361 C94.957255,11.7450424 95.2093839,12.5600815 95.6572746,14.0012535 L95.6572746,14.0012535 Z M100.11333,16.7800038 L100.11333,13.672191 C100.11333,13.3157066 100.084384,12.6042612 100.026494,11.5378548 L100.026494,11.5378548 L100.067627,11.5378548 L101.676377,16.7800038 L102.974346,16.7800038 L104.697354,11.5469955 L104.738486,11.5469955 C104.701924,12.387933 104.681357,12.9059018 104.676787,13.1009019 C104.672217,13.2959019 104.669932,13.4680503 104.669932,13.6173472 L104.669932,13.6173472 L104.669932,16.7800038 L105.990752,16.7800038 L105.990752,10.0982063 L104.06208,10.0982063 L102.384775,15.2078161 L102.357353,15.2078161 L100.776025,10.0982063 L98.847353,10.0982063 L98.847353,16.7800038 L100.11333,16.7800038 Z" id="8:30AM" fill="#3E4952" fill-rule="nonzero"></path>
                <path d="M72.3665236,48.878321 C73.4908205,48.878321 74.3302347,48.5538287 74.884766,47.9048443 C75.4392973,47.2558599 75.7165629,46.2732426 75.7165629,44.9569925 C75.7165629,44.3476174 75.6175395,43.8227931 75.4194926,43.3825197 C75.2214457,42.9422462 74.9373246,42.6063282 74.5671292,42.3747657 C74.1969339,42.1432031 73.7650393,42.0274219 73.2714455,42.0274219 C72.5706642,42.0274219 72.0168946,42.2353711 71.6101368,42.6512696 C71.2033789,43.0671681 71,43.6331252 71,44.3491408 C71,45.0133597 71.1675781,45.5320902 71.5027344,45.9053324 C71.8378907,46.2785746 72.2964454,46.4651957 72.8783986,46.4651957 C73.2257424,46.4651957 73.5151956,46.4073051 73.7467581,46.2915238 C73.9783206,46.1757426 74.1824612,45.9746488 74.35918,45.6882425 L74.35918,45.6882425 L74.4140238,45.6882425 C74.3896488,46.2092582 74.2967191,46.6183012 74.1352347,46.9153716 C73.9737503,47.2124419 73.7406643,47.4302935 73.4359768,47.5689263 C73.1312893,47.7075591 72.7428127,47.7768755 72.270547,47.7768755 C71.9902345,47.7768755 71.7221094,47.7448834 71.4661719,47.680899 L71.4661719,47.680899 L71.4661719,48.8143366 C71.6703126,48.8569928 71.9704298,48.878321 72.3665236,48.878321 Z M73.2714455,45.3820316 C72.966758,45.3820316 72.7397658,45.2875784 72.5904689,45.0986722 C72.441172,44.9097659 72.3665236,44.6538284 72.3665236,44.3308596 C72.3665236,43.9530471 72.4487892,43.6635939 72.6133205,43.4625001 C72.7778517,43.2614064 73.0063674,43.1608595 73.2988674,43.1608595 C73.5944143,43.1608595 73.8374026,43.2857814 74.0278323,43.5356251 C74.218262,43.7854689 74.3134769,44.0916799 74.3134769,44.454258 C74.3134769,44.6980081 74.2114066,44.9135745 74.0072659,45.1009573 C73.8031253,45.2883402 73.5578518,45.3820316 73.2714455,45.3820316 Z M77.3801569,45.1352347 C77.6269538,45.1352347 77.8211921,45.0674417 77.9628718,44.9318557 C78.1045515,44.7962698 78.1753913,44.6050784 78.1753913,44.3582815 C78.1753913,44.1084377 78.1060749,43.9164846 77.9674421,43.782422 C77.8288092,43.6483595 77.6330475,43.5813283 77.3801569,43.5813283 C77.1181256,43.5813283 76.9185552,43.6468361 76.7814459,43.7778517 C76.6443365,43.9088674 76.5757818,44.1023439 76.5757818,44.3582815 C76.5757818,44.6081252 76.6458599,44.8000784 76.7860162,44.9341409 C76.9261724,45.0682034 77.1242193,45.1352347 77.3801569,45.1352347 Z M77.3801569,48.9103132 C77.6300006,48.9103132 77.8250006,48.8409967 77.9651569,48.7023639 C78.1053132,48.5637311 78.1753913,48.3740631 78.1753913,48.13336 C78.1753913,47.8835162 78.1060749,47.691563 77.9674421,47.5575005 C77.8288092,47.423438 77.6330475,47.3564068 77.3801569,47.3564068 C77.1181256,47.3564068 76.9185552,47.4219146 76.7814459,47.5529302 C76.6443365,47.6839459 76.5757818,47.8774224 76.5757818,48.13336 C76.5757818,48.3801569 76.6458599,48.5713483 76.7860162,48.7069342 C76.9261724,48.8425202 77.1242193,48.9103132 77.3801569,48.9103132 Z M81.3791807,48.878321 C82.1744151,48.878321 82.7632238,48.5980084 83.1456066,48.0373834 C83.5279895,47.4767583 83.7191809,46.6129692 83.7191809,45.446016 C83.7191809,44.3186721 83.5218957,43.4625001 83.1273254,42.8775001 C82.732755,42.2925 82.1500401,42 81.3791807,42 C80.5869931,42 80.0004696,42.2795508 79.6196102,42.8386524 C79.2387508,43.397754 79.0483211,44.2668752 79.0483211,45.446016 C79.0483211,46.5764067 79.2440828,47.4310552 79.6356063,48.0099615 C80.0271298,48.5888678 80.6083212,48.878321 81.3791807,48.878321 Z M81.3791807,47.740313 C81.0440244,47.740313 80.8056064,47.5628326 80.6639267,47.2078716 C80.522247,46.8529106 80.4514071,46.2656254 80.4514071,45.446016 C80.4514071,44.6264065 80.5230087,44.0375978 80.6662119,43.67959 C80.809415,43.3215822 81.0470713,43.1425782 81.3791807,43.1425782 C81.7051963,43.1425782 81.9420909,43.3215822 82.0898643,43.67959 C82.2376378,44.0375978 82.3115245,44.6264065 82.3115245,45.446016 C82.3115245,46.2564848 82.2383995,46.8414848 82.0921495,47.2010161 C81.9458995,47.5605474 81.7082432,47.740313 81.3791807,47.740313 Z M86.7218765,48.878321 C87.5171109,48.878321 88.1059196,48.5980084 88.4883024,48.0373834 C88.8706853,47.4767583 89.0618767,46.6129692 89.0618767,45.446016 C89.0618767,44.3186721 88.8645915,43.4625001 88.4700212,42.8775001 C88.0754508,42.2925 87.4927359,42 86.7218765,42 C85.9296889,42 85.3431654,42.2795508 84.962306,42.8386524 C84.5814466,43.397754 84.3910169,44.2668752 84.3910169,45.446016 C84.3910169,46.5764067 84.5867786,47.4310552 84.9783021,48.0099615 C85.3698256,48.5888678 85.951017,48.878321 86.7218765,48.878321 Z M86.7218765,47.740313 C86.3867202,47.740313 86.1483022,47.5628326 86.0066225,47.2078716 C85.8649428,46.8529106 85.794103,46.2656254 85.794103,45.446016 C85.794103,44.6264065 85.8657045,44.0375978 86.0089077,43.67959 C86.1521108,43.3215822 86.3897671,43.1425782 86.7218765,43.1425782 C87.0478921,43.1425782 87.2847867,43.3215822 87.4325602,43.67959 C87.5803336,44.0375978 87.6542203,44.6264065 87.6542203,45.446016 C87.6542203,46.2564848 87.5810953,46.8414848 87.4348453,47.2010161 C87.2885953,47.5605474 87.050939,47.740313 86.7218765,47.740313 Z M93.3534006,48.7869147 L93.8378537,47.1964458 L96.2738305,47.1964458 L96.7582837,48.7869147 L98.2847682,48.7869147 L95.9173461,42.0776953 L94.1851975,42.0776953 L91.826916,48.7869147 L93.3534006,48.7869147 Z M95.9356274,46.0081644 L94.1943381,46.0081644 C94.6696507,44.4694924 94.9575804,43.5051564 95.0581273,43.1151564 C95.0825023,43.2248439 95.1228734,43.3741408 95.1792406,43.563047 C95.2356078,43.7519533 95.4877367,44.5669924 95.9356274,46.0081644 L95.9356274,46.0081644 Z M100.391682,48.7869147 L100.391682,45.6791019 C100.391682,45.3226175 100.362737,44.6111721 100.304847,43.5447658 L100.304847,43.5447658 L100.345979,43.5447658 L101.954729,48.7869147 L103.252698,48.7869147 L104.975706,43.5539064 L105.016839,43.5539064 C104.980277,44.394844 104.95971,44.9128128 104.95514,45.1078128 C104.95057,45.3028128 104.948284,45.4749613 104.948284,45.6242582 L104.948284,45.6242582 L104.948284,48.7869147 L106.269105,48.7869147 L106.269105,42.1051172 L104.340433,42.1051172 L102.663128,47.2147271 L102.635706,47.2147271 L101.054378,42.1051172 L99.1257058,42.1051172 L99.1257058,48.7869147 L100.391682,48.7869147 Z" id="9:00AM" fill="#ADADAD" fill-rule="nonzero"></path>
                <rect id="Rectangle-8-Copy" fill="#E9E9E9" x="1" y="1.32000325" width="54.6000052" height="23.4000022" rx="11.7000011"></rect>
                <path d="M14.0269153,16.7800038 L14.0260469,13.5136925 C14.0208368,13.1248503 13.9921809,12.5286987 13.9400794,11.7252377 L13.9400794,11.7252377 L13.9812122,11.7252377 L16.8879312,16.7800038 L18.6886345,16.7800038 L18.6886345,10.0982063 L17.4135172,10.0982063 L17.4135172,13.2608628 C17.4135172,13.6203941 17.4363687,14.2343395 17.4820719,15.1026989 L17.4820719,15.1026989 L17.4500797,15.1026989 L14.547931,10.0982063 L12.7609386,10.0982063 L12.7609386,16.7800038 L14.0269153,16.7800038 Z M22.4134395,16.87141 C23.1964865,16.87141 23.807385,16.6368006 24.246135,16.1675818 C24.6848851,15.698363 24.9042601,15.0478552 24.9042601,14.2160582 C24.9042601,13.6798082 24.8037132,13.2121128 24.6026194,12.8129721 C24.4015257,12.4138315 24.1135959,12.1076205 23.7388303,11.8943392 C23.3640646,11.681058 22.9314083,11.5744173 22.4408614,11.5744173 C21.6517207,11.5744173 21.0392988,11.8059799 20.6035956,12.2691049 C20.1678924,12.7322299 19.9500409,13.3812144 19.9500409,14.2160582 C19.9500409,14.7523083 20.0505877,15.2215271 20.2516815,15.6237146 C20.4527753,16.0259021 20.740705,16.3343983 21.1154707,16.549203 C21.4902363,16.7640077 21.9228926,16.87141 22.4134395,16.87141 Z M22.4317208,15.7516834 C22.0569551,15.7516834 21.7865449,15.6221912 21.6204902,15.3632068 C21.4544355,15.1042224 21.3714082,14.7218395 21.3714082,14.2160582 C21.3714082,13.70723 21.4536738,13.3271323 21.6182051,13.0757651 C21.7827363,12.8243979 22.0508614,12.6987143 22.4225802,12.6987143 C22.7973458,12.6987143 23.0669943,12.8251596 23.2315255,13.0780503 C23.3960568,13.3309409 23.4783224,13.7102769 23.4783224,14.2160582 C23.4783224,14.7248864 23.3968185,15.108031 23.2338107,15.3654919 C23.0708029,15.6229529 22.8034396,15.7516834 22.4317208,15.7516834 Z M28.7021901,16.7800038 L30.6491434,11.6703939 L29.1912136,11.6703939 L28.2085963,14.5816832 C28.0867213,14.9869177 28.0181666,15.3357849 28.0029322,15.6282849 L28.0029322,15.6282849 L27.9755104,15.6282849 C27.9480885,15.2992224 27.8795338,14.9503552 27.7698463,14.5816832 L27.7698463,14.5816832 L26.7826587,11.6703939 L25.3247289,11.6703939 L27.2716822,16.7800038 L28.7021901,16.7800038 Z M38.1261754,16.7800038 L38.1261754,15.5917224 L35.2148861,15.5917224 L35.2148861,15.527738 L36.0741049,14.7187926 C36.6469174,14.1947301 37.0468198,13.7910191 37.273812,13.5076597 C37.5008042,13.2243003 37.6683824,12.9477964 37.7765465,12.6781479 C37.8847105,12.4084994 37.9387926,12.119808 37.9387926,11.8120736 C37.9387926,11.4586361 37.8504332,11.1448079 37.6737144,10.8705891 C37.4969956,10.5963704 37.2486753,10.3830891 36.9287534,10.2307453 C36.6088315,10.0784016 36.2401596,10.0022297 35.8227377,10.0022297 C35.5058626,10.0022297 35.2194564,10.0334602 34.9635188,10.0959211 C34.7075813,10.158382 34.4714485,10.2475032 34.2551203,10.3632844 C34.0387922,10.4790657 33.7660969,10.6771126 33.4370343,10.9574251 L33.4370343,10.9574251 L34.2048469,11.8669174 C34.469925,11.6475423 34.7243391,11.4784408 34.9680892,11.3596126 C35.2118392,11.2407845 35.4632064,11.1813704 35.7221908,11.1813704 C35.9689877,11.1813704 36.1662729,11.2468782 36.3140463,11.3778939 C36.4618198,11.5089095 36.5357065,11.7084799 36.5357065,11.9766049 C36.5357065,12.1563705 36.5021909,12.3300424 36.4351596,12.4976206 C36.3681284,12.6651987 36.2584408,12.8472495 36.1060971,13.0437729 C35.9537533,13.2402964 35.6292611,13.5929722 35.1326204,14.1018004 L35.1326204,14.1018004 L33.4553156,15.7973865 L33.4553156,16.7800038 L38.1261754,16.7800038 Z M43.4688712,16.7800038 L43.4688712,15.5917224 L40.5575819,15.5917224 L40.5575819,15.527738 L41.4168007,14.7187926 C41.9896133,14.1947301 42.3895156,13.7910191 42.6165078,13.5076597 C42.8435001,13.2243003 43.0110782,12.9477964 43.1192423,12.6781479 C43.2274063,12.4084994 43.2814884,12.119808 43.2814884,11.8120736 C43.2814884,11.4586361 43.193129,11.1448079 43.0164102,10.8705891 C42.8396915,10.5963704 42.5913711,10.3830891 42.2714492,10.2307453 C41.9515273,10.0784016 41.5828554,10.0022297 41.1654335,10.0022297 C40.8485585,10.0022297 40.5621522,10.0334602 40.3062147,10.0959211 C40.0502771,10.158382 39.8141443,10.2475032 39.5978162,10.3632844 C39.381488,10.4790657 39.1087927,10.6771126 38.7797301,10.9574251 L38.7797301,10.9574251 L39.5475427,11.8669174 C39.8126209,11.6475423 40.067035,11.4784408 40.310785,11.3596126 C40.554535,11.2407845 40.8059022,11.1813704 41.0648866,11.1813704 C41.3116835,11.1813704 41.5089687,11.2468782 41.6567421,11.3778939 C41.8045156,11.5089095 41.8784023,11.7084799 41.8784023,11.9766049 C41.8784023,12.1563705 41.8448867,12.3300424 41.7778554,12.4976206 C41.7108242,12.6651987 41.6011367,12.8472495 41.4487929,13.0437729 C41.2964491,13.2402964 40.9719569,13.5929722 40.4753162,14.1018004 L40.4753162,14.1018004 L38.7980114,15.7973865 L38.7980114,16.7800038 L43.4688712,16.7800038 Z" id="Nov22" fill="#ADADAD" fill-rule="nonzero"></path>
                <path d="M15.2659767,48.7777741 L15.2651083,45.5114628 C15.2598982,45.1226206 15.2312423,44.526469 15.1791407,43.723008 L15.1791407,43.723008 L15.2202736,43.723008 L18.1269926,48.7777741 L19.9276959,48.7777741 L19.9276959,42.0959766 L18.6525786,42.0959766 L18.6525786,45.2586331 C18.6525786,45.6181644 18.6754301,46.2321098 18.7211333,47.1004692 L18.7211333,47.1004692 L18.6891411,47.1004692 L15.7869924,42.0959766 L14,42.0959766 L14,48.7777741 L15.2659767,48.7777741 Z M23.6525009,48.8691803 C24.4355479,48.8691803 25.0464464,48.6345709 25.4851964,48.1653521 C25.9239464,47.6961334 26.1433215,47.0456255 26.1433215,46.2138285 C26.1433215,45.6775785 26.0427746,45.2098831 25.8416808,44.8107425 C25.640587,44.4116018 25.3526573,44.1053908 24.9778917,43.8921096 C24.603126,43.6788283 24.1704697,43.5721876 23.6799228,43.5721876 C22.8907821,43.5721876 22.2783602,43.8037502 21.842657,44.2668752 C21.4069538,44.7300003 21.1891022,45.3789847 21.1891022,46.2138285 C21.1891022,46.7500786 21.2896491,47.2192974 21.4907429,47.6214849 C21.6918367,48.0236724 21.9797664,48.3321686 22.354532,48.5469733 C22.7292977,48.761778 23.161954,48.8691803 23.6525009,48.8691803 Z M23.6707822,47.7494537 C23.2960165,47.7494537 23.0256063,47.6199615 22.8595516,47.3609771 C22.6934969,47.1019927 22.6104696,46.7196098 22.6104696,46.2138285 C22.6104696,45.7050004 22.6927352,45.3249027 22.8572665,45.0735354 C23.0217977,44.8221682 23.2899228,44.6964846 23.6616415,44.6964846 C24.0364072,44.6964846 24.3060557,44.82293 24.4705869,45.0758206 C24.6351182,45.3287113 24.7173838,45.7080472 24.7173838,46.2138285 C24.7173838,46.7226567 24.6358799,47.1058013 24.4728721,47.3632622 C24.3098643,47.6207232 24.042501,47.7494537 23.6707822,47.7494537 Z M29.9412515,48.7777741 L31.8882048,43.6681642 L30.430275,43.6681642 L29.4476577,46.5794536 C29.3257827,46.984688 29.257228,47.3335552 29.2419936,47.6260552 L29.2419936,47.6260552 L29.2145718,47.6260552 C29.1871499,47.2969927 29.1185952,46.9481255 29.0089077,46.5794536 L29.0089077,46.5794536 L28.0217201,43.6681642 L26.5637903,43.6681642 L28.5107436,48.7777741 L29.9412515,48.7777741 Z M39.3652368,48.7777741 L39.3652368,47.5894927 L36.4539474,47.5894927 L36.4539474,47.5255083 L37.3131663,46.7165629 C37.8859788,46.1925004 38.2858812,45.7887894 38.5128734,45.50543 C38.7398656,45.2220706 38.9074438,44.9455667 39.0156078,44.6759182 C39.1237719,44.4062698 39.1778539,44.1175783 39.1778539,43.8098439 C39.1778539,43.4564064 39.0894946,43.1425782 38.9127758,42.8683595 C38.736057,42.5941407 38.4877367,42.3808594 38.1678148,42.2285156 C37.8478929,42.0761719 37.479221,42 37.0617991,42 C36.744924,42 36.4585178,42.0312305 36.2025802,42.0936914 C35.9466427,42.1561524 35.7105099,42.2452735 35.4941817,42.3610547 C35.2778536,42.476836 35.0051582,42.6748829 34.6760957,42.9551954 L34.6760957,42.9551954 L35.4439083,43.8646877 C35.7089864,43.6453127 35.9634005,43.4762111 36.2071505,43.3573829 C36.4509006,43.2385548 36.7022678,43.1791407 36.9612522,43.1791407 C37.2080491,43.1791407 37.4053342,43.2446486 37.5531077,43.3756642 C37.7008812,43.5066798 37.7747679,43.7062502 37.7747679,43.9743752 C37.7747679,44.1541408 37.7412522,44.3278127 37.674221,44.4953909 C37.6071897,44.662969 37.4975022,44.8450198 37.3451585,45.0415433 C37.1928147,45.2380667 36.8683225,45.5907425 36.3716818,46.0995707 L36.3716818,46.0995707 L34.694377,47.7951568 L34.694377,48.7777741 L39.3652368,48.7777741 Z M44.0543778,48.7777741 L44.0543778,47.3929693 L44.8587529,47.3929693 L44.8587529,46.2960942 L44.0543778,46.2960942 L44.0543778,42.0959766 L42.7518387,42.0959766 L39.8222681,46.410352 L39.8222681,47.3929693 L42.6741433,47.3929693 L42.6741433,48.7777741 L44.0543778,48.7777741 Z M42.6741433,46.2960942 L41.0653932,46.2960942 L42.2902371,44.4451174 C42.4486746,44.2074611 42.5842605,43.9637111 42.6969949,43.7138673 L42.6969949,43.7138673 L42.7335574,43.7138673 C42.7244168,43.771758 42.7122293,43.9804689 42.6969949,44.3400002 C42.6817605,44.6995315 42.6741433,44.9737503 42.6741433,45.1626565 L42.6741433,46.2960942 Z" id="Nov24" fill="#3E4952" fill-rule="nonzero"></path>
            </g>
            <circle id="Oval-Copy" fill="#E8E8E8" cx="61" cy="13.8735817" r="6"></circle>
            <circle id="Oval-Copy-6" fill="#E8E8E8" cx="137" cy="13.8735817" r="6"></circle>
        </g>
    </g>
</svg>