<svg width="388" height="460" xmlns="http://www.w3.org/2000/svg" xmlns:xlink="http://www.w3.org/1999/xlink"><defs><path id="a" d="M.588.701h104v141h-104z"/><path id="c" d="M.878.581h105v141h-105z"/></defs><g fill="none" fill-rule="evenodd"><path d="M11.887 372.764C-11.04 312.553 2.334 259.25 57.344 204.24c21.454-21.454 31.59-51.4 40.603-80.938l4.117-13.57c12.564-41.18 26.012-78.824 68.936-87.964 78.044-16.619 216.434 15.571 216.434 92.996 0 44.906-13.835 62.1-31.672 80.823l-1.86 1.943-3.793 3.949-1.93 2.019-1.95 2.059c-10.441 11.1-21.586 24.198-31.782 44.207-12.457 24.447-5.31 45.191 2.442 65.272l2.115 5.463c9.105 23.619 16.645 46.696-8.741 74.247-77.303 83.894-275.45 38.23-298.376-21.982z" fill="#DAF2FF"/><g transform="translate(77 65.764)"><g transform="translate(.412 11.299)"><mask id="b" fill="#fff"><use xlink:href="#a"/></mask><path d="M-65.525 295.701c-22.926-60.211-9.553-113.514 45.457-168.524 21.454-21.454 31.59-51.4 40.603-80.937l4.118-13.571c12.563-41.18 26.011-78.824 68.935-87.964 78.044-16.618 216.434 15.571 216.434 92.996 0 47.23-10.818 65.666-26.488 87.056l-1.556 2.115-1.587 2.14-3.259 4.385-.831 1.123-1.682 2.283c-7.907 10.781-16.61 23.39-25.53 40.898-12.175 23.891-8.831 47.45-4.526 68.982l.606 2.991 1.213 5.9.59 2.906c4.74 23.61 7.213 44.18-14.12 59.203-92.537 65.162-275.45 38.23-298.377-21.982z" fill="#D8D8D8" mask="url(#b)"/></g><path fill="#FFF" d="M161 12.236h105v141H161z"/><path d="M266 12.236v141H161v-141h105zm-4 4h-97v133h97v-133z" fill="#3E4952" fill-rule="nonzero"/><path fill="#D8D8D8" d="M198 0h34l-6.628 28h-20.744z"/><path d="M232 .262l-6.628 28h-20.744L198 .262h34zm-5.058 4h-23.885l4.734 20h14.417l4.734-20z" fill="#3E4952" fill-rule="nonzero"/><path d="M215 8.236a6 6 0 100 12 6 6 0 000-12zm0 4a2 2 0 110 4 2 2 0 010-4z" fill="#3E4952" fill-rule="nonzero"/><path fill="#FFF" d="M0 210.236h105v141H0z"/><path d="M105 210.236v141H0v-141h105zm-4 4H4v133h97v-133z" fill="#3E4952" fill-rule="nonzero"/><g transform="translate(160.122 209.419)"><mask id="d" fill="#fff"><use xlink:href="#c"/></mask><path d="M-225.236 97.581c-22.926-60.211-9.553-113.514 45.457-168.524 20.904-20.904 31.063-49.87 39.908-78.664l1.387-4.544 2.741-9.05c12.77-42.052 25.916-80.907 69.62-90.214 78.044-16.618 216.434 15.572 216.434 92.996 0 45.681-14.315 62.686-32.598 81.793l-4.727 4.922-1.93 2.02c-10.994 11.547-22.898 25.006-33.73 46.265C65.15-1.528 71.7 18.828 79.238 38.484l2.642 6.832c9.106 23.62 16.645 46.697-8.74 74.247-77.303 83.895-275.45 38.23-298.377-21.982z" fill="#D8D8D8" mask="url(#d)"/></g><path d="M52.5 124.236c10.217 0 18.5-8.283 18.5-18.5s-8.283-18.5-18.5-18.5-18.5 8.283-18.5 18.5 8.283 18.5 18.5 18.5z" fill="#FFF"/><path d="M52.5 85.236c-11.322 0-20.5 9.178-20.5 20.5s9.178 20.5 20.5 20.5 20.5-9.178 20.5-20.5-9.178-20.5-20.5-20.5zm0 4c9.113 0 16.5 7.387 16.5 16.5s-7.387 16.5-16.5 16.5-16.5-7.387-16.5-16.5 7.387-16.5 16.5-16.5zM52.5 283c-11.322 0-20.5 9.178-20.5 20.5S41.178 324 52.5 324 73 314.822 73 303.5 63.822 283 52.5 283zm0 4c9.113 0 16.5 7.387 16.5 16.5S61.613 320 52.5 320 36 312.613 36 303.5 43.387 287 52.5 287zM216.5 84.236c-11.322 0-20.5 9.178-20.5 20.5s9.178 20.5 20.5 20.5 20.5-9.178 20.5-20.5-9.178-20.5-20.5-20.5zm0 4c9.113 0 16.5 7.387 16.5 16.5s-7.387 16.5-16.5 16.5-16.5-7.387-16.5-16.5 7.387-16.5 16.5-16.5z" fill="#3E4952" fill-rule="nonzero"/><circle fill="#FFF" cx="216.5" cy="303.549" r="18.5"/><path d="M216.5 283.049c-11.322 0-20.5 9.178-20.5 20.5s9.178 20.5 20.5 20.5 20.5-9.178 20.5-20.5-9.178-20.5-20.5-20.5zm0 4c9.113 0 16.5 7.387 16.5 16.5s-7.387 16.5-16.5 16.5-16.5-7.387-16.5-16.5 7.387-16.5 16.5-16.5zM69.728 96.117c-2.4 4.161-6.529 8.036-11.057 8.273-3.33.175-6.814-.94-10.45-3.28l-.41-.269-.175.127c-.554.396-1.096.766-1.625 1.11l-.628.399c-5.29 3.285-9.26 3.78-11.783.869l-.147-.175 3.109-2.518c.645.797 2.051.806 4.268-.217l.425-.204c.217-.108.441-.225.673-.352l.473-.266.243-.142.502-.304.258-.162.531-.343.273-.181.56-.383c.19-.133.383-.27.58-.41l.598-.438.62-.465 1.189-.906 1.205.885c3.542 2.599 6.708 3.777 9.502 3.63 2.695-.14 5.821-3.003 7.635-5.996l.166-.28 3.465 1.998zM69.08 299.866v4c-1.592 0-3.529-.486-5.837-1.458l-.67-.29-.69-.318a40.865 40.865 0 01-.352-.168l-.72-.357-.742-.383c-.376-.198-.76-.406-1.151-.624l-.794-.449-.815-.475c-.275-.163-.553-.33-.836-.501l-.857-.528c-.29-.18-.582-.365-.879-.554l-.9-.58-.922-.607-.61-.408-.127.108c-5.93 4.909-11.433 7.469-16.549 7.588l-.373.004v-4c4.362 0 9.438-2.415 15.182-7.358l.411-.358 1.17-1.025 1.72 1.181.86.582.84.56.82.535.8.512.78.488c.127.08.255.158.381.236l.748.453.727.43.706.408.346.194.674.372c.11.06.22.12.33.178l.642.337.313.16.61.302.297.142.578.267c.19.085.375.166.556.244l.534.22c.087.035.174.07.259.102l.5.186.243.084.467.15c.837.256 1.56.394 2.167.415l.162.003zM31.43 85.52a8.126 8.126 0 0115.888 3.413l-.052.243-3.898-.9a4.126 4.126 0 10-5.148 3.041l.2.051-.9 3.898a8.126 8.126 0 01-6.09-9.746z" fill="#3E4952" fill-rule="nonzero"/><path d="M28 151.16v-7.26c0-10.86 8.804-19.664 19.664-19.664h10.672C69.196 124.236 78 133.04 78 143.9v9.287" fill="#FFF"/><path d="M76 153.187V143.9c0-9.646-7.732-17.486-17.336-17.661l-.328-.003H47.664c-9.646 0-17.486 7.732-17.661 17.336L30 143.9v7.26h-4v-7.26c0-11.845 9.506-21.47 21.305-21.661l.359-.003h10.672c11.845 0 21.47 9.506 21.661 21.305l.003.359v9.287h-4zM76 351v-9.288c0-9.645-7.732-17.485-17.336-17.66l-.328-.003H47.664c-9.646 0-17.486 7.731-17.661 17.335l-.003.328v7.262h-4v-7.262c0-11.844 9.506-21.469 21.305-21.66l.359-.003h10.672c11.845 0 21.47 9.506 21.661 21.305l.003.358V351h-4zM240 153.187V143.9c0-9.646-7.732-17.486-17.336-17.661l-.328-.003h-10.672c-9.646 0-17.486 7.732-17.661 17.336l-.003.328v7.26h-4v-7.26c0-11.845 9.506-21.47 21.305-21.661l.359-.003h10.672c11.845 0 21.47 9.506 21.661 21.305l.003.359v9.287h-4z" fill="#3E4952" fill-rule="nonzero"/><path d="M105 12.236v141H1v-141h104zm-4 4H5v133h96v-133z" fill="#3E4952" fill-rule="nonzero"/><path fill="#D8D8D8" d="M36 .236h34l-6.628 28H42.628z"/><path d="M70 .236l-6.628 28H42.628L36 .236h34zm-5.058 4H41.057l4.734 20h14.417l4.734-20z" fill="#3E4952" fill-rule="nonzero"/><path d="M53 8.236a6 6 0 100 12 6 6 0 000-12zm0 4a2 2 0 110 4 2 2 0 010-4zM240 351.187V341.9c0-9.646-7.732-17.486-17.336-17.661l-.328-.003h-10.672c-9.646 0-17.486 7.732-17.661 17.336l-.003.328v7.26h-4v-7.26c0-11.845 9.506-21.47 21.305-21.661l.359-.003h10.672c11.845 0 21.47 9.506 21.661 21.305l.003.359v9.287h-4z" fill="#3E4952" fill-rule="nonzero"/><path d="M266 210.236v141H161v-141h105zm-4 4h-97v133h97v-133z" fill="#3E4952" fill-rule="nonzero"/><path fill="#D8D8D8" d="M197 198.28h34l-6.628 28h-20.744z"/><path d="M231 198.28l-6.628 28h-20.744l-6.628-28h34zm-5.058 3.999h-23.885l4.734 20h14.417l4.734-20z" fill="#3E4952" fill-rule="nonzero"/><path d="M214 206.236a6 6 0 100 12 6 6 0 000-12zm0 4a2 2 0 110 4 2 2 0 010-4z" fill="#3E4952" fill-rule="nonzero"/><path d="M198 84h27.419c2.064.417 3.9 1.74 5.51 3.967 1.61 2.228 2.388 4.522 2.331 6.883h-24.532c-2.504-.005-4.905-1.17-7.203-3.494-2.297-2.323-3.473-4.775-3.525-7.356z" fill="#FFF"/><path d="M225.419 82.236h-29.46l.041 2.04c.063 3.156 1.449 6.11 4.062 8.81 2.632 2.718 5.51 4.144 8.582 4.15h26.307l.046-1.953c.066-2.841-.843-5.583-2.68-8.18-1.872-2.645-4.11-4.291-6.698-4.826l-.2-.041zm-.428 4l-.181-.041c1.509.311 2.917 1.347 4.242 3.219l.22.32c.71 1.066 1.196 2.13 1.468 3.199l.071.303h-22.163c-1.894-.004-3.783-.94-5.712-2.933l-.26-.274c-1.097-1.19-1.846-2.382-2.267-3.588l-.068-.205h24.65z" fill="#3E4952" fill-rule="nonzero"/><path fill="#D8D8D8" d="M35 198.24h34l-6.628 28H41.628z"/><path d="M69 198.24l-6.628 28H41.628l-6.628-28h34zm-5.058 4H40.057l4.734 20h14.417l4.734-20z" fill="#3E4952" fill-rule="nonzero"/><path d="M52 206.236a6 6 0 100 12 6 6 0 000-12zm0 4a2 2 0 110 4 2 2 0 010-4zM31.664 302.71l3.95.629-.314 1.975c-1.112 6.988-2.504 12.329-4.206 16.057l-.612 1.327-.379.808-.525 1.095-.186.38H34v4H22.005l2.442-3.264.11-.166.127-.209.144-.25.161-.29.177-.333.296-.573.332-.664.365-.751.54-1.138.598-1.288.158-.346c.542-1.186 1.056-2.583 1.541-4.19l.262-.897c.604-2.142 1.162-4.623 1.669-7.44l.214-1.227c.036-.208.07-.418.105-.63l.418-2.614zM72.63 302.71l-3.95.629.315 1.975c1.074 6.755 2.41 11.971 4.037 15.679l.379.836.402.87.378.807.526 1.095.186.38h-4.608v4h11.994l-2.393-3.197-.101-.145-.119-.187-.136-.23-.234-.42-.272-.514-.308-.604-.343-.693-.377-.78-.703-1.493-.464-1.009c-1.23-2.695-2.32-6.481-3.25-11.34l-.221-1.187c-.037-.2-.073-.404-.108-.608l-.212-1.249-.417-2.614z" fill="#3E4952" fill-rule="nonzero"/><path stroke="#979797" stroke-linecap="square" d="M156.5 187.5l1.5 1.5"/><path d="M235.018 302c2.197-6.427 2.904-10.76 2.121-13-.431-1.233-2.19-2.613-5.276-4.138-1.164-3.62-2.347-5.777-3.548-6.471-2.651-1.532-8.498-2.329-17.54-2.391h-16.568l4.995 8.862c-3.1 1.583-4.765 2.962-4.995 4.138-.676 3.456.301 7.79 2.93 13 7.695-1.42 13.258-2.972 16.691-4.657 3.434-1.685 6.698-4.466 9.795-8.343 1.8 4.047 3.364 6.828 4.692 8.343 1.328 1.515 3.563 3.068 6.703 4.657z" fill="#FFF"/><path d="M210.788 274h-20.004l5.682 10.081-.161.096c-2.392 1.443-3.747 2.834-4.06 4.44-.776 3.962.295 8.713 3.107 14.284l.675 1.338 2.142-.397 1.305-.251 1.264-.255c.621-.128 1.227-.257 1.817-.387l1.159-.262c.38-.087.752-.176 1.117-.264l1.076-.269c3.693-.943 6.623-1.946 8.803-3.016l.445-.224c2.663-1.38 5.208-3.354 7.638-5.912l.327-.35.09.182c1.305 2.632 2.495 4.566 3.6 5.827 1.526 1.74 3.956 3.429 7.305 5.124l2.052 1.038.744-2.176.316-.94.295-.913c.095-.3.187-.594.275-.885l.254-.856c.081-.281.159-.558.233-.83l.212-.801c.067-.263.131-.521.191-.775l.17-.747.149-.721c.574-2.949.592-5.206.021-6.839l-.076-.202c-.654-1.605-2.354-3.031-5.116-4.511l-.332-.176-.13-.376c-1.193-3.384-2.459-5.492-4.058-6.416-1.434-.828-3.536-1.45-6.333-1.884l-.746-.11a49.373 49.373 0 00-.777-.1l-.809-.092-.84-.083a68.048 68.048 0 00-.433-.04l-.89-.07c-.15-.012-.302-.023-.456-.033l-.937-.06-.97-.05-1.001-.043-1.035-.035c-.175-.006-.352-.01-.53-.015l-1.083-.023-1.116-.016-.571-.005zm-8.82 11.696L197.63 278h13.144l1.048.01 1.017.019.987.024.955.032 1.374.06.877.048.426.027.83.058.798.065.766.07.37.039.719.08.686.087.654.093.621.1.59.105.556.11.524.118c1.184.28 2.1.607 2.743.978.227.13.603.581 1.034 1.368.483.88.98 2.082 1.484 3.598l.385 1.191.76.375c.292.145.57.288.834.428l.507.276.467.268.427.259.388.249c.183.122.352.24.505.352l.287.22c.49.392.776.718.858.953l.04.123c.205.696.22 1.748.036 3.135l-.084.573a34.887 34.887 0 01-.744 3.392l-.214.781-.116.404-.248.832-.061.198-.233-.137c-1.73-1.029-3-2.015-3.808-2.936-.388-.443-.81-1.03-1.267-1.76l-.308-.508-.318-.55a39.034 39.034 0 01-.494-.905l-.341-.654-.35-.697-.178-.364-.362-.759-.371-.8-.38-.84-1.336-3.007-2.053 2.57c-2.924 3.66-5.965 6.251-9.114 7.797l-.282.136c-1.247.587-2.794 1.164-4.639 1.728l-.872.26-.452.128-.935.257c-.32.085-.645.17-.978.254l-1.02.253c-.346.083-.7.167-1.06.25l-1.104.248-1.145.246-1.187.244-1.002.197-.192-.425c-1.737-3.894-2.368-7.12-1.959-9.66l.05-.28c-.002.009 0 .008.008-.003l.077-.11c.133-.179.35-.399.65-.647.703-.583 1.777-1.25 3.206-1.98l1.856-.948z" fill="#3E4952" fill-rule="nonzero"/><path fill="#979797" fill-rule="nonzero" d="M251 241.236v4h-71v-4zM88 43.236v4H17v-4zM226 251.236v4h-46v-4zM251 251.236v4h-20v-4zM249 53.236v4h-71v-4zM49 54.236v4H17v-4zM210 43.236v4h-32v-4zM85 243.236v4H17v-4zM73 253.236v4H17v-4zM88 54.236v4H56v-4z"/></g></g></svg>