<?xml version="1.0" encoding="UTF-8"?>
<svg width="70px" height="70px" viewBox="0 0 70 70" version="1.1" xmlns="http://www.w3.org/2000/svg" xmlns:xlink="http://www.w3.org/1999/xlink">
    <title>Artboard Copy 4</title>
    <g id="Artboard-Copy-4" stroke="none" stroke-width="1" fill="none" fill-rule="evenodd">
        <g id="Group-15" transform="translate(10.000000, 10.000000)">
            <g id="Group-4" transform="translate(0.741600, 0.741600)">
                <path d="M38.4911987,5.54273261 C39.5518755,5.54273261 40.5290492,5.9002517 41.3091878,6.50127576 C46.2013706,11.0010016 49.2687343,17.4594738 49.2687343,24.6343672 C49.2687343,38.2395525 38.2395525,49.2687343 24.6343672,49.2687343 C17.4594738,49.2687343 11.0010016,46.2013706 6.49875449,41.306447 C5.89935398,40.5265939 5.54273261,39.550543 5.54273261,38.4911987 C5.54273261,35.9402265 7.61070421,33.8722549 10.1616765,33.8722549 C11.5439319,33.8722549 12.7843753,34.479424 13.630851,35.4416065 L13.630851,35.4416065 L13.6506335,35.423681 C13.6325073,35.4052303 13.6144273,35.386734 13.5963935,35.3681925 C16.3934634,38.2441514 20.3052628,40.0308467 24.6343672,40.0308467 C33.137608,40.0308467 40.0308467,33.137608 40.0308467,24.6343672 C40.0308467,20.5402142 38.4328256,16.819299 35.826494,14.0613321 L35.6784046,13.9067798 L35.7230149,13.8595582 C34.5993128,13.0170201 33.8722549,11.674255 33.8722549,10.1616765 C33.8722549,7.61070421 35.9402265,5.54273261 38.4911987,5.54273261 Z" id="Combined-Shape" fill="#015073"></path>
                <path d="M24.6343672,0 C31.0659983,0 36.9219512,2.46477132 41.3091878,6.50127576 C40.5290492,5.9002517 39.5518755,5.54273261 38.4911987,5.54273261 C35.9402265,5.54273261 33.8722549,7.61070421 33.8722549,10.1616765 C33.8722549,11.674255 34.5993128,13.0170201 35.7230149,13.8595582 L35.6784046,13.9067798 C32.8806912,11.0270595 28.9664709,9.23788769 24.6343672,9.23788769 C16.1311264,9.23788769 9.23788769,16.1311264 9.23788769,24.6343672 C9.23788769,28.8365413 10.9213463,32.6455226 13.6506335,35.423681 L13.630851,35.4416065 C12.7843753,34.479424 11.5439319,33.8722549 10.1616765,33.8722549 C7.61070421,33.8722549 5.54273261,35.9402265 5.54273261,38.4911987 C5.54273261,39.5518755 5.9002517,40.5290492 6.50135589,41.3087859 C2.46477132,36.9219512 0,31.0659983 0,24.6343672 C0,11.0291819 11.0291819,0 24.6343672,0 Z" id="Combined-Shape" fill="#00BCEC"></path>
                <path d="M35.0898458,13.3322978 C38.1285378,16.1447291 40.0308467,20.1673941 40.0308467,24.6343672 C40.0308467,33.137608 33.137608,40.0308467 24.6343672,40.0308467 C20.1830918,40.0308467 16.1730072,38.1418844 13.3619926,35.1218391 C13.9539615,35.1744898 14.5534839,35.2014041 15.1592925,35.2014041 C26.2135056,35.2014041 35.1747158,26.2401938 35.1747158,15.1859807 C35.1747158,14.6102405 35.150407,14.0401778 35.1027597,13.4767632 Z" id="Combined-Shape" fill="#6DBE4A"></path>
            </g>
        </g>
    </g>
</svg>