<?xml version="1.0" encoding="UTF-8"?>
<svg width="70px" height="70px" viewBox="0 0 70 70" version="1.1" xmlns="http://www.w3.org/2000/svg" xmlns:xlink="http://www.w3.org/1999/xlink">
    <title>zapier</title>
    <g id="zapier" stroke="none" stroke-width="1" fill="none" fill-rule="evenodd">
        <g id="Group-48" transform="translate(10.000000, 10.000000)" fill="#FF4A00">
            <g id="icon-/-Zapier-Copy-2" transform="translate(0.200001, 0.360001)">
                <path d="M24.7040779,0 C26.8350537,0 28.9662898,0.493916796 28.9662898,0.493916796 L28.966,14.746 L39.0347648,4.67839023 C39.0347648,4.67839023 40.7859002,5.7310218 42.2927277,7.23784925 C43.7995551,8.74467671 44.9573147,10.6009401 44.9573147,10.6009401 L34.926,20.631 L49.1860852,20.6314438 C49.1860852,20.6314438 49.680002,22.6140064 49.680002,24.7449823 C49.680002,26.8759581 49.1860852,29.0071942 49.1860852,29.0071942 L34.86,29.007 L44.9573147,39.1047072 C44.9573147,39.1047072 43.8807755,40.830748 42.4528009,42.3051155 L42.2927277,42.467798 C40.7859002,43.9746254 39.0347648,45.027257 39.0347648,45.027257 L39.0347648,45.027257 L28.966,34.959 L28.9662898,49.1447212 C28.9662898,49.1447212 26.9845664,49.6039882 24.9323006,49.636793 L24.7040779,49.638638 C22.573102,49.638638 20.5905394,49.1447212 20.5905394,49.1447212 L20.5905394,49.1447212 L20.59,35.025 L10.5889074,45.027257 C10.5889074,45.027257 8.83777196,43.9746254 7.3309445,42.467798 C5.82411704,40.9609705 4.6663575,39.1047072 4.6663575,39.1047072 L14.763,29.007 L0.493916796,29.0071942 C0.493916796,29.0071942 0.0346497752,27.0254708 0.00184498803,24.973205 L6.77526373e-14,24.7449823 C6.84025115e-14,22.6140064 0.493916796,20.6314438 0.493916796,20.6314438 L0.493916796,20.6314438 L14.697,20.631 L4.6663575,10.6009401 C4.6663575,10.6009401 5.74289666,8.87489927 7.17087126,7.4005317 L7.3309445,7.23784925 C8.83777196,5.7310218 10.5889074,4.67839023 10.5889074,4.67839023 L10.5889074,4.67839023 L20.59,14.68 L20.5905394,0.493916796 C20.5905394,0.493916796 22.573102,5.1938957e-16 24.7040779,0 Z M24.78491,18.645359 C22.201529,18.645359 19.4819842,19.6331926 19.4819842,19.6331926 C19.4819842,19.6331926 18.6197746,22.2533875 18.6197746,24.8735823 C18.6197746,27.4937771 19.4819842,30.1289245 19.4819842,30.1289245 C19.4819842,30.1289245 22.0759505,30.9932789 24.6699167,30.9932789 C27.2638829,30.9932789 29.9516721,30.1289245 29.9516721,30.1289245 C29.9516721,30.1289245 30.9370545,27.3999619 30.9370545,24.6709992 C30.9370545,22.1180987 30.0747168,19.9328567 29.9634474,19.661516 L29.9516721,19.6331926 C29.9516721,19.6331926 27.3682911,18.645359 24.78491,18.645359 Z" id="icon-/-Zapier"></path>
            </g>
        </g>
    </g>
</svg>