<?xml version="1.0" encoding="UTF-8"?>
<svg width="70px" height="70px" viewBox="0 0 70 70" version="1.1" xmlns="http://www.w3.org/2000/svg" xmlns:xlink="http://www.w3.org/1999/xlink">
    <title>zoom</title>
    <g id="zoom" stroke="none" stroke-width="1" fill="none" fill-rule="evenodd">
        <g id="Group-21" transform="translate(6.000000, 7.000000)">
            <g id="Group" transform="translate(0.797761, 0.486721)">
                <g id="Account-page-/-Integration-icon-/-Zoom" transform="translate(1.953042, 1.953042)">
                    <circle id="Oval-Copy-4" fill="#2D8CFF" cx="26.1902929" cy="26.1902929" r="26.1902929"></circle>
                    <path d="M26.8081027,18.1374756 L26.8078677,18.1504393 C30.3407116,18.2808155 33.1647182,21.1859432 33.1647182,24.750653 C33.1647182,24.8542469 33.1623332,24.9572837 33.1576152,25.0597116 L33.1623912,25.0598129 L33.1623912,35.0910171 L20.92193,35.0914032 C20.8640826,35.0929 20.8060502,35.093653 20.7478419,35.093653 L17.6629048,35.093653 C14.1187788,35.093653 11.2266396,32.3021657 11.0652267,28.7979305 L11.0581237,28.7980318 L11.0581237,18.1374756 L26.8081027,18.1374756 Z M41.9611464,19.347497 C42.1045585,19.5474508 42.1816879,19.7873278 42.1816879,20.033394 L42.1816879,33.2676171 C42.1816879,33.9175793 41.6547894,34.4444778 41.0048272,34.4444778 C40.7603191,34.4444778 40.5218819,34.368321 40.3226431,34.2265884 L34.2867249,29.9328137 L34.2867249,23.4035296 L40.3189301,19.0770748 C40.8470906,18.6982644 41.5823359,18.8193365 41.9611464,19.347497 Z" id="Combined-Shape-Copy-4" fill="#FFFFFF"></path>
                </g>
            </g>
        </g>
    </g>
</svg>